<svg width="115" height="119" viewBox="0 0 115 119" fill="none" xmlns="http://www.w3.org/2000/svg">
<path d="M59.6406 28.6659V56.8588L83.2391 42.7206L59.6406 28.6659Z" fill="#00D3A9" fill-opacity="0.15"/>
<path d="M59.6406 62.7809V91.0989L83.4812 77.0024L59.6406 62.7809Z" fill="#00D3A9" fill-opacity="0.15"/>
<path d="M56.2116 56.692V28.9161L32.8955 42.7623L56.2116 56.692Z" fill="#00B39F" fill-opacity="0.15"/>
<path d="M9.41797 90.9738C13.9763 98.5642 20.1886 105.029 27.5303 109.825V80.1721L9.41797 90.9738Z" fill="#00B39F" fill-opacity="0.15"/>
<path d="M56.2118 90.9738V62.9478L32.8149 76.9608L56.2118 90.9738Z" fill="#00B39F" fill-opacity="0.15"/>
<path d="M30.9189 108.073L54.5981 94.06L30.9189 79.8801V108.073Z" fill="#00D3A9" fill-opacity="0.15"/>
<path d="M85.0947 108.198V80.0886L61.4155 94.0599L85.0947 108.198Z" fill="#00B39F" fill-opacity="0.15"/>
<path d="M108.249 87.7208C112.203 80.1305 114.583 71.5391 114.946 62.4056L90.2983 77.0025L108.249 87.7208Z" fill="#00B39F" fill-opacity="0.15"/>
<path d="M88.4834 74.0414L112.284 59.9866L88.4834 45.8485V74.0414Z" fill="#00D3A9" fill-opacity="0.15"/>
<path d="M85.0948 39.7595V11.8169L61.5366 25.7465L85.0948 39.7595Z" fill="#00B39F" fill-opacity="0.15"/>
<path d="M85.0946 73.9162V45.6816L61.4961 59.8198L85.0946 73.9162Z" fill="#00B39F" fill-opacity="0.15"/>
<path d="M30.9189 45.64V74.0414L54.6788 59.8199L30.9189 45.64Z" fill="#00D3A9" fill-opacity="0.15"/>
<path d="M56.2119 0.848389C47.1758 1.14033 38.6642 3.55925 31.1611 7.68808L56.2119 22.5769V0.848389Z" fill="#00B39F" fill-opacity="0.15"/>
<path d="M30.9189 11.6084V39.843L54.7192 25.7465L30.9189 11.6084Z" fill="#00D3A9" fill-opacity="0.15"/>
<path d="M27.4903 9.89844C20.1485 14.6946 13.9766 21.1172 9.37793 28.7493L27.4903 39.551V9.89844Z" fill="#00B39F" fill-opacity="0.15"/>
<path d="M84.9334 7.85495C77.3496 3.6427 68.7573 1.14037 59.6406 0.890137V22.8689L84.9334 7.85495Z" fill="#00D3A9" fill-opacity="0.15"/>
<path d="M0.866211 61.9468C1.18893 71.3305 3.6093 80.1721 7.68357 87.971L26.038 77.0024L0.866211 61.9468Z" fill="#00D3A9" fill-opacity="0.15"/>
<path d="M7.68357 31.7938C3.6093 39.551 1.18893 48.3509 0.866211 57.6929L26.038 42.7623L7.68357 31.7938Z" fill="#00D3A9" fill-opacity="0.15"/>
<path d="M31.1206 111.993C38.6641 116.122 47.1757 118.583 56.2117 118.875V97.1462L31.1206 111.993Z" fill="#00B39F" fill-opacity="0.15"/>
<path d="M106.475 28.8327C101.916 21.2423 95.7445 14.8197 88.4834 10.0236V39.5927L106.475 28.8327Z" fill="#00D3A9" fill-opacity="0.15"/>
<path d="M88.4834 109.741C95.8252 104.945 101.997 98.4392 106.555 90.8071L88.4834 80.0054V109.741Z" fill="#00D3A9" fill-opacity="0.15"/>
<path d="M114.946 57.526C114.583 48.2674 112.203 39.551 108.169 31.8772L90.0566 42.7206L114.946 57.526Z" fill="#00B39F" fill-opacity="0.15"/>
<path d="M59.6406 118.875C68.6766 118.583 77.1883 116.164 84.6914 112.035L59.6406 97.0627V118.875Z" fill="#00D3A9" fill-opacity="0.15"/>
<path d="M27.4901 73.7911V45.9319L4.09326 59.8198L27.4901 73.7911Z" fill="#00B39F" fill-opacity="0.15"/>
</svg>
