<svg xmlns="http://www.w3.org/2000/svg" viewBox="0 0 24 24" fill="white">
          <path d="M23.0617 2.45142H15.7633C15.2758 2.45142 14.5445 2.72798 14.1977 3.11235L5.12734 12.1499C4.78047 12.4967 4.78047 13.0874 5.12734 13.4342L12.9836 21.2905C13.3305 21.6374 13.9211 21.6374 14.268 21.2905L23.3383 12.2202C23.6852 11.8733 23.9992 11.1795 23.9992 10.6545V3.3561C23.9664 2.8686 23.5492 2.45142 23.0617 2.45142ZM18.4727 9.74985C17.4648 9.74985 16.6305 8.91548 16.6305 7.90767C16.6305 6.89985 17.4648 6.06548 18.4727 6.06548C19.4805 6.06548 20.3148 6.89985 20.3148 7.90767C20.3148 8.91548 19.4805 9.74985 18.4727 9.74985Z"/>
          <path d="M2.03398 12.8062L12.3934 2.44678H10.8652C10.3777 2.44678 9.64648 2.72334 9.29961 3.10772L0.262109 12.1499C-0.0847656 12.4968 -0.0847656 13.0874 0.262109 13.4343L8.11836 21.2905C8.46523 21.6374 9.05586 21.6374 9.40273 21.2905L9.96055 20.7327L2.03398 12.8062Z"/>
        </svg>