<svg width="679" height="300" viewBox="0 0 679 300" fill="none" xmlns="http://www.w3.org/2000/svg">
<rect x="40" y="4" width="634.545" height="292" fill="#326CE5" fill-opacity="0.1"/>
<rect x="40" y="4" width="634.545" height="292" stroke="#326CE5" stroke-width="8"/>
<rect y="150" width="72" height="72" rx="36" fill="#326CE5"/>
<g clip-path="url(#clip0_27402_24391)">
<rect x="19.1332" y="171.816" width="38.1037" height="28.3679" fill="white" fill-opacity="0.1" stroke="white" stroke-width="1.20789" stroke-dasharray="2.42 2.42"/>
<path fill-rule="evenodd" clip-rule="evenodd" d="M16.9518 195.374C14.5045 194.199 13.4703 191.256 14.6419 188.8C15.2045 187.621 16.211 186.715 17.4398 186.28C18.6686 185.846 20.0192 185.918 21.1945 186.483C23.6418 187.658 24.6759 190.601 23.5044 193.057C22.3328 195.512 19.3991 196.549 16.9518 195.374Z" fill="white"/>
<path d="M19.028 187.972C18.9729 187.975 18.9188 187.989 18.8691 188.013L16.6997 189.052C16.6436 189.079 16.5943 189.118 16.5554 189.167C16.5165 189.215 16.4892 189.272 16.4753 189.332L15.9401 191.668C15.9278 191.722 15.9264 191.777 15.936 191.832C15.9457 191.886 15.9663 191.938 15.9964 191.984C16.0037 191.996 16.0116 192.007 16.02 192.017L17.5215 193.89C17.5604 193.938 17.6097 193.977 17.6659 194.004C17.722 194.031 17.7835 194.045 17.8459 194.045L20.2538 194.045C20.316 194.045 20.3775 194.031 20.4337 194.004C20.4898 193.977 20.5392 193.938 20.5781 193.89L22.079 192.017C22.1179 191.968 22.1453 191.912 22.1592 191.851C22.1731 191.791 22.1731 191.728 22.1592 191.667L21.6232 189.332C21.6093 189.271 21.582 189.215 21.5431 189.166C21.5042 189.118 21.4549 189.079 21.3988 189.052L19.2292 188.013C19.1666 187.983 19.0974 187.969 19.028 187.972Z" fill="#326CE5"/>
<path d="M19.0498 188.767C18.9781 188.767 18.92 188.832 18.92 188.912C18.92 188.913 18.9202 188.914 18.9203 188.916C18.9202 188.926 18.9196 188.939 18.92 188.949C18.9217 188.995 18.9317 189.03 18.9377 189.073C18.9487 189.164 18.9578 189.239 18.9522 189.309C18.9467 189.335 18.9273 189.36 18.91 189.376L18.9069 189.432C18.829 189.438 18.7506 189.45 18.6722 189.468C18.3351 189.544 18.0448 189.719 17.8238 189.954C17.8095 189.944 17.7844 189.926 17.7769 189.921C17.7537 189.924 17.7303 189.931 17.6998 189.913C17.6417 189.874 17.5888 189.82 17.5247 189.754C17.4954 189.723 17.4741 189.693 17.4393 189.663C17.4314 189.657 17.4193 189.647 17.4104 189.64C17.3832 189.618 17.351 189.607 17.32 189.606C17.2801 189.605 17.2416 189.62 17.2165 189.652C17.1718 189.708 17.1861 189.794 17.2484 189.844C17.249 189.844 17.2497 189.845 17.2503 189.845C17.2589 189.852 17.2694 189.861 17.2773 189.867C17.3143 189.894 17.348 189.909 17.3849 189.93C17.4626 189.978 17.5269 190.018 17.578 190.066C17.5979 190.088 17.6014 190.125 17.6041 190.141L17.6457 190.179C17.4229 190.515 17.3198 190.931 17.3807 191.354L17.3264 191.37C17.312 191.388 17.2918 191.417 17.2706 191.426C17.2038 191.447 17.1286 191.455 17.0378 191.465C16.9952 191.468 16.9584 191.466 16.9133 191.475C16.9033 191.476 16.8895 191.48 16.8786 191.483C16.8782 191.483 16.8778 191.483 16.8775 191.483C16.8769 191.483 16.8761 191.483 16.8755 191.483C16.799 191.502 16.7498 191.573 16.7657 191.642C16.7815 191.712 16.8562 191.754 16.9332 191.737C16.9338 191.737 16.9346 191.737 16.9352 191.737C16.936 191.737 16.9368 191.736 16.9377 191.736C16.9484 191.734 16.9619 191.731 16.9712 191.729C17.0157 191.717 17.0478 191.699 17.0878 191.684C17.1737 191.653 17.2448 191.627 17.3142 191.617C17.3431 191.615 17.3736 191.635 17.3888 191.644L17.4454 191.634C17.5756 192.039 17.8486 192.366 18.1942 192.572L18.1706 192.628C18.1791 192.65 18.1885 192.68 18.1822 192.702C18.157 192.768 18.1138 192.837 18.0646 192.914C18.0408 192.95 18.0165 192.977 17.995 193.018C17.9899 193.028 17.9833 193.043 17.9784 193.053C17.945 193.125 17.9695 193.207 18.0336 193.238C18.0981 193.269 18.1781 193.237 18.2128 193.165C18.2128 193.165 18.213 193.165 18.2131 193.164C18.2131 193.164 18.213 193.164 18.2131 193.164C18.218 193.154 18.225 193.141 18.2292 193.131C18.2476 193.089 18.2537 193.053 18.2666 193.012C18.301 192.925 18.3198 192.834 18.3671 192.778C18.3801 192.762 18.4012 192.756 18.4231 192.75L18.4525 192.697C18.7538 192.813 19.0911 192.844 19.428 192.767C19.5048 192.75 19.579 192.727 19.6508 192.7C19.659 192.715 19.6744 192.743 19.6785 192.75C19.7008 192.757 19.725 192.761 19.7448 192.79C19.7802 192.851 19.8044 192.923 19.8339 193.009C19.8468 193.05 19.8532 193.087 19.8716 193.129C19.8758 193.138 19.8828 193.152 19.8877 193.162C19.9223 193.234 20.0026 193.267 20.0672 193.236C20.1313 193.205 20.1558 193.123 20.1224 193.051C20.1175 193.041 20.1106 193.026 20.1055 193.016C20.084 192.975 20.0597 192.948 20.0359 192.912C19.9867 192.835 19.9459 192.771 19.9207 192.705C19.9102 192.671 19.9225 192.65 19.9307 192.628C19.9258 192.623 19.9153 192.591 19.9091 192.576C20.2682 192.363 20.5332 192.023 20.6576 191.631C20.6744 191.634 20.7036 191.639 20.7131 191.641C20.7326 191.628 20.7506 191.611 20.7858 191.614C20.8551 191.624 20.9263 191.65 21.0122 191.681C21.0521 191.696 21.0843 191.714 21.1287 191.726C21.1381 191.728 21.1515 191.731 21.1623 191.733C21.1631 191.733 21.1639 191.734 21.1648 191.734C21.1653 191.734 21.1661 191.734 21.1667 191.734C21.2437 191.751 21.3185 191.709 21.3343 191.639C21.3501 191.57 21.3009 191.499 21.2244 191.48C21.2133 191.478 21.1975 191.474 21.1867 191.472C21.1415 191.463 21.1047 191.465 21.0621 191.462C20.9713 191.452 20.8961 191.444 20.8293 191.423C20.8021 191.412 20.7827 191.38 20.7733 191.367L20.7209 191.351C20.748 191.154 20.7407 190.949 20.6937 190.743C20.6462 190.536 20.5623 190.346 20.4503 190.179C20.4638 190.167 20.4892 190.144 20.4964 190.138C20.4985 190.114 20.4967 190.09 20.5208 190.064C20.5719 190.016 20.6363 189.976 20.7139 189.928C20.7508 189.906 20.7849 189.892 20.8218 189.865C20.8302 189.858 20.8416 189.849 20.8504 189.841C20.9127 189.792 20.927 189.706 20.8823 189.649C20.8376 189.593 20.751 189.588 20.6887 189.638C20.6798 189.645 20.6678 189.654 20.6598 189.661C20.625 189.691 20.6034 189.721 20.5741 189.752C20.5101 189.817 20.4571 189.872 20.399 189.911C20.3738 189.925 20.337 189.92 20.3202 189.919L20.2708 189.955C19.9892 189.659 19.6058 189.469 19.193 189.432C19.1918 189.415 19.1903 189.384 19.1899 189.374C19.173 189.358 19.1526 189.344 19.1475 189.309C19.1418 189.239 19.1513 189.164 19.1622 189.073C19.1682 189.03 19.1782 188.995 19.1799 188.949C19.1803 188.938 19.1797 188.923 19.1797 188.912C19.1797 188.832 19.1215 188.767 19.0498 188.767H19.0498ZM18.8872 189.777L18.8487 190.461L18.8459 190.462C18.8433 190.523 18.7932 190.572 18.7316 190.572C18.7064 190.572 18.6831 190.564 18.6642 190.55L18.6631 190.551L18.1046 190.153C18.2762 189.984 18.4958 189.859 18.7488 189.801C18.795 189.791 18.8412 189.783 18.8872 189.777ZM19.2127 189.777C19.5081 189.814 19.7813 189.948 19.9906 190.154L19.4357 190.548L19.4338 190.548C19.3846 190.584 19.3152 190.575 19.2768 190.526C19.261 190.507 19.2528 190.483 19.2518 190.46L19.2513 190.46L19.2127 189.777ZM17.9021 190.409L18.412 190.866L18.4114 190.869C18.4575 190.909 18.4643 190.979 18.4259 191.027C18.4101 191.047 18.3891 191.06 18.3665 191.066L18.3659 191.069L17.7123 191.258C17.679 190.953 17.7507 190.656 17.9021 190.409ZM20.194 190.409C20.2698 190.532 20.3271 190.67 20.3613 190.819C20.395 190.966 20.4035 191.113 20.3896 191.256L19.7326 191.066L19.7321 191.063C19.6732 191.047 19.6371 190.987 19.6508 190.927C19.6564 190.902 19.6694 190.881 19.6871 190.866L19.6868 190.864L20.194 190.409H20.194ZM18.9452 190.902H19.1541L19.284 191.064L19.2374 191.268L19.0498 191.358L18.8617 191.267L18.8151 191.064L18.9452 190.902ZM19.615 191.459C19.6239 191.458 19.6327 191.459 19.6413 191.461L19.6424 191.459L20.3186 191.574C20.2196 191.853 20.0303 192.094 19.7773 192.256L19.5148 191.62L19.5157 191.619C19.4915 191.563 19.5157 191.497 19.5711 191.47C19.5853 191.463 19.6002 191.459 19.615 191.459H19.615ZM18.4794 191.462C18.531 191.462 18.5773 191.498 18.5893 191.551C18.5949 191.576 18.5922 191.6 18.5829 191.622L18.5848 191.624L18.3252 192.254C18.0824 192.097 17.889 191.863 17.7855 191.576L18.4558 191.462L18.4569 191.463C18.4644 191.462 18.472 191.461 18.4794 191.462V191.462ZM19.0457 191.737C19.0636 191.737 19.0819 191.74 19.0992 191.749C19.1219 191.76 19.1395 191.777 19.1505 191.798H19.153L19.4835 192.397C19.4406 192.411 19.3965 192.423 19.3514 192.434C19.0987 192.491 18.8468 192.474 18.6187 192.396L18.9483 191.798H18.9488C18.9686 191.761 19.0061 191.739 19.0457 191.737Z" fill="white" stroke="white" stroke-width="0.0603947"/>
</g>
<rect x="110.817" y="62.7273" width="174.545" height="174.545" rx="38.1818" fill="#326CE5"/>
<g clip-path="url(#clip1_27402_24391)">
<path fill-rule="evenodd" clip-rule="evenodd" d="M198.1 149.873C210.253 149.873 220.105 140.02 220.105 127.867C220.105 115.713 210.253 105.861 198.1 105.861C185.946 105.861 176.094 115.713 176.094 127.867C176.094 140.02 185.946 149.873 198.1 149.873ZM182.147 151.03C182.59 150.966 183.037 151.081 183.415 151.319C187.378 153.816 192.462 155.317 198.006 155.317C203.582 155.317 208.692 153.799 212.665 151.276C213.035 151.041 213.472 150.924 213.907 150.98C224.544 152.346 232.764 161.435 232.764 172.443V180.967C232.764 188.242 226.866 194.14 219.592 194.14H176.829C169.554 194.14 163.656 188.242 163.656 180.967V172.443C163.656 161.561 171.688 152.555 182.147 151.03Z" fill="white"/>
</g>
<path d="M443.73 70H603.73V158C603.73 191.941 603.73 208.912 593.186 219.456C582.642 230 565.672 230 531.73 230H515.73C481.789 230 464.819 230 454.275 219.456C443.73 208.912 443.73 191.941 443.73 158V70Z" fill="#326CE5"/>
<path fill-rule="evenodd" clip-rule="evenodd" d="M507.2 115.5C506.095 115.5 505.2 116.395 505.2 117.5V119.5C505.2 120.604 506.095 121.5 507.2 121.5H565.675C566.78 121.5 567.675 120.604 567.675 119.5V117.5C567.675 116.395 566.78 115.5 565.675 115.5H507.2ZM481.73 115.5C480.626 115.5 479.73 116.395 479.73 117.5V119.499C479.73 120.604 480.626 121.499 481.73 121.499H493.029C494.133 121.499 495.029 120.604 495.029 119.499V117.5C495.029 116.395 494.133 115.5 493.029 115.5H481.73ZM528.208 138.628C528.208 137.523 529.104 136.628 530.208 136.628H565.73C566.834 136.628 567.73 137.523 567.73 138.628V140.5C567.73 141.605 566.834 142.5 565.73 142.5H530.208C529.104 142.5 528.208 141.605 528.208 140.5V138.628ZM504.865 136.5C503.76 136.5 502.865 137.396 502.865 138.5V140.372C502.865 141.477 503.76 142.372 504.865 142.372H516.163C517.268 142.372 518.163 141.477 518.163 140.372V138.5C518.163 137.396 517.268 136.5 516.163 136.5H504.865ZM528.208 159.628C528.208 158.523 529.104 157.628 530.208 157.628H565.73C566.834 157.628 567.73 158.523 567.73 159.628V161.5C567.73 162.605 566.834 163.5 565.73 163.5H530.208C529.104 163.5 528.208 162.605 528.208 161.5V159.628ZM504.865 157.5C503.76 157.5 502.865 158.396 502.865 159.5V161.372C502.865 162.477 503.76 163.372 504.865 163.372H516.163C517.268 163.372 518.163 162.477 518.163 161.372V159.5C518.163 158.396 517.268 157.5 516.163 157.5H504.865ZM505.2 180.5C505.2 179.396 506.095 178.5 507.2 178.5H565.675C566.78 178.5 567.675 179.396 567.675 180.5V182.5C567.675 183.605 566.78 184.5 565.675 184.5H507.2C506.095 184.5 505.2 183.605 505.2 182.5V180.5ZM481.73 178.5C480.626 178.5 479.73 179.396 479.73 180.5V182.499C479.73 183.604 480.626 184.499 481.73 184.499H493.029C494.133 184.499 495.029 183.604 495.029 182.499V180.5C495.029 179.396 494.133 178.5 493.029 178.5H481.73Z" fill="white"/>
<defs>
<clipPath id="clip0_27402_24391">
<rect width="43.6364" height="43.6364" fill="white" transform="translate(14.1816 164.182)"/>
</clipPath>
<clipPath id="clip1_27402_24391">
<rect width="98.1818" height="98.1818" fill="white" transform="translate(148.999 100.909)"/>
</clipPath>
</defs>
</svg>
