<svg width="337" height="301" viewBox="0 0 337 301" fill="none" xmlns="http://www.w3.org/2000/svg">
<rect x="40.5" y="4.5" width="292" height="292" fill="#326CE5" fill-opacity="0.1"/>
<rect x="40.5" y="4.5" width="292" height="292" stroke="#326CE5" stroke-width="8"/>
<rect x="0.5" y="150.5" width="72" height="72" rx="36" fill="#326CE5"/>
<path d="M40.6044 169.829C38.6837 168.442 36.091 168.442 34.1703 169.829L20.6177 179.61C18.6783 181.01 17.8665 183.503 18.6101 185.776L23.7735 201.563C24.5126 203.822 26.6207 205.351 28.9982 205.351H45.7765C48.154 205.351 50.2621 203.822 51.0012 201.563L56.1646 185.776C56.9082 183.503 56.0964 181.01 54.157 179.61L40.6044 169.829Z" fill="white" fill-opacity="0.1" stroke="white" stroke-width="1.22158"/>
<path fill-rule="evenodd" clip-rule="evenodd" d="M19.1377 199.635C16.6576 198.461 15.6095 195.52 16.7968 193.068C17.367 191.89 18.3869 190.984 19.6323 190.55C20.8776 190.115 22.2463 190.188 23.4373 190.752C25.9175 191.927 26.9655 194.867 25.7782 197.32C24.5909 199.773 21.6179 200.81 19.1377 199.635Z" fill="white"/>
<path d="M21.2376 192.24C21.1817 192.243 21.1269 192.257 21.0765 192.28L18.878 193.319C18.8211 193.346 18.7712 193.385 18.7318 193.434C18.6924 193.482 18.6646 193.538 18.6506 193.599L18.1082 195.932C18.0957 195.986 18.0943 196.042 18.1041 196.096C18.1139 196.15 18.1347 196.202 18.1653 196.248C18.1727 196.26 18.1807 196.271 18.1892 196.281L19.7109 198.152C19.7502 198.201 19.8002 198.24 19.8571 198.267C19.914 198.294 19.9764 198.307 20.0395 198.307L22.4798 198.307C22.5429 198.307 22.6052 198.293 22.6621 198.266C22.719 198.239 22.769 198.2 22.8084 198.152L24.3295 196.281C24.369 196.232 24.3967 196.176 24.4108 196.115C24.4249 196.055 24.4249 195.992 24.4108 195.932L23.8676 193.598C23.8535 193.538 23.8258 193.481 23.7864 193.433C23.747 193.385 23.697 193.345 23.6401 193.319L21.4414 192.28C21.378 192.25 21.3079 192.237 21.2376 192.24Z" fill="#326CE5"/>
<path d="M21.2563 193.034C21.1836 193.034 21.1247 193.099 21.1247 193.179C21.1247 193.18 21.125 193.181 21.125 193.183C21.1249 193.193 21.1244 193.207 21.1247 193.216C21.1265 193.262 21.1366 193.297 21.1427 193.34C21.1538 193.431 21.1631 193.506 21.1573 193.576C21.1518 193.602 21.1321 193.626 21.1146 193.643L21.1115 193.698C21.0325 193.705 20.953 193.716 20.8736 193.734C20.532 193.811 20.2378 193.985 20.0138 194.22C19.9993 194.21 19.9739 194.192 19.9663 194.187C19.9428 194.19 19.9191 194.197 19.8882 194.179C19.8293 194.14 19.7756 194.086 19.7107 194.021C19.681 193.989 19.6595 193.96 19.6241 193.93C19.6161 193.923 19.6039 193.914 19.5949 193.907C19.5673 193.885 19.5347 193.874 19.5032 193.872C19.4628 193.871 19.4239 193.887 19.3984 193.918C19.3531 193.975 19.3676 194.06 19.4307 194.11C19.4313 194.111 19.432 194.111 19.4327 194.112C19.4413 194.119 19.452 194.127 19.4599 194.133C19.4974 194.161 19.5317 194.175 19.569 194.196C19.6477 194.244 19.713 194.284 19.7647 194.332C19.7849 194.354 19.7885 194.391 19.7912 194.407L19.8333 194.445C19.6076 194.781 19.5031 195.196 19.5648 195.619L19.5097 195.635C19.4952 195.653 19.4747 195.682 19.4532 195.691C19.3855 195.712 19.3093 195.72 19.2173 195.729C19.1741 195.733 19.1368 195.731 19.0911 195.739C19.081 195.741 19.0669 195.745 19.0559 195.747C19.0555 195.747 19.0552 195.748 19.0548 195.748C19.0542 195.748 19.0534 195.748 19.0528 195.748C18.9753 195.767 18.9254 195.837 18.9415 195.907C18.9575 195.976 19.0333 196.018 19.1113 196.002C19.1119 196.002 19.1127 196.002 19.1133 196.002C19.1142 196.001 19.1149 196.001 19.1158 196.001C19.1267 195.998 19.1403 195.996 19.1498 195.993C19.1948 195.981 19.2274 195.964 19.2679 195.948C19.355 195.918 19.4271 195.892 19.4973 195.882C19.5267 195.879 19.5576 195.9 19.573 195.908L19.6303 195.898C19.7623 196.303 20.0389 196.63 20.3892 196.835L20.3653 196.892C20.3739 196.914 20.3834 196.944 20.377 196.966C20.3515 197.031 20.3077 197.1 20.2579 197.177C20.2338 197.213 20.2091 197.241 20.1873 197.281C20.1821 197.291 20.1755 197.306 20.1704 197.316C20.1366 197.388 20.1614 197.47 20.2264 197.501C20.2918 197.532 20.3729 197.5 20.408 197.428C20.4081 197.428 20.4083 197.428 20.4083 197.428C20.4083 197.428 20.4083 197.427 20.4083 197.427C20.4133 197.417 20.4204 197.404 20.4246 197.394C20.4433 197.352 20.4495 197.316 20.4626 197.275C20.4974 197.189 20.5165 197.098 20.5645 197.041C20.5776 197.026 20.599 197.02 20.6212 197.014L20.651 196.961C20.9563 197.076 21.2981 197.108 21.6395 197.031C21.7174 197.013 21.7926 196.991 21.8653 196.964C21.8737 196.978 21.8893 197.007 21.8934 197.014C21.916 197.021 21.9406 197.025 21.9606 197.054C21.9965 197.115 22.021 197.186 22.0509 197.273C22.064 197.314 22.0705 197.35 22.0891 197.392C22.0934 197.402 22.1004 197.415 22.1054 197.425C22.1405 197.497 22.2219 197.53 22.2873 197.499C22.3523 197.468 22.3771 197.386 22.3433 197.314C22.3383 197.304 22.3313 197.289 22.3261 197.279C22.3044 197.238 22.2797 197.211 22.2556 197.175C22.2057 197.098 22.1644 197.034 22.1389 196.969C22.1282 196.935 22.1407 196.914 22.149 196.892C22.144 196.886 22.1334 196.855 22.1271 196.84C22.4911 196.627 22.7596 196.288 22.8857 195.896C22.9027 195.899 22.9323 195.904 22.9419 195.906C22.9617 195.893 22.9799 195.876 23.0156 195.879C23.0858 195.889 23.1579 195.914 23.245 195.945C23.2855 195.961 23.3181 195.978 23.3631 195.99C23.3726 195.993 23.3862 195.995 23.3971 195.998C23.398 195.998 23.3987 195.998 23.3996 195.998C23.4002 195.999 23.401 195.999 23.4016 195.999C23.4796 196.015 23.5554 195.973 23.5714 195.904C23.5874 195.834 23.5376 195.764 23.4601 195.745C23.4488 195.743 23.4328 195.738 23.4218 195.736C23.376 195.728 23.3388 195.73 23.2956 195.726C23.2036 195.717 23.1274 195.709 23.0597 195.688C23.0321 195.677 23.0125 195.645 23.0029 195.631L22.9498 195.616C22.9773 195.419 22.9699 195.214 22.9222 195.009C22.8741 194.801 22.789 194.612 22.6756 194.445C22.6893 194.433 22.715 194.41 22.7223 194.404C22.7244 194.38 22.7226 194.356 22.747 194.33C22.7988 194.282 22.864 194.242 22.9427 194.194C22.9801 194.172 23.0146 194.158 23.0521 194.131C23.0606 194.125 23.0722 194.115 23.0811 194.108C23.1442 194.058 23.1587 193.972 23.1134 193.916C23.0681 193.86 22.9803 193.854 22.9171 193.904C22.9082 193.911 22.896 193.92 22.8879 193.927C22.8526 193.957 22.8308 193.987 22.801 194.018C22.7361 194.083 22.6825 194.138 22.6236 194.177C22.5981 194.192 22.5607 194.187 22.5438 194.186L22.4937 194.221C22.2083 193.925 21.8198 193.736 21.4014 193.699C21.4002 193.682 21.3987 193.65 21.3983 193.641C21.3812 193.625 21.3605 193.611 21.3553 193.576C21.3496 193.506 21.3591 193.431 21.3702 193.34C21.3763 193.297 21.3864 193.262 21.3882 193.216C21.3886 193.206 21.3879 193.19 21.3879 193.179C21.3879 193.099 21.329 193.034 21.2563 193.034H21.2563ZM21.0915 194.044L21.0525 194.726L21.0497 194.728C21.047 194.789 20.9962 194.838 20.9338 194.838C20.9083 194.838 20.8847 194.829 20.8655 194.816L20.8644 194.816L20.2984 194.419C20.4723 194.25 20.6948 194.125 20.9512 194.068C20.9981 194.057 21.0449 194.049 21.0915 194.044ZM21.4214 194.044C21.7207 194.08 21.9976 194.214 22.2097 194.42L21.6474 194.814L21.6454 194.813C21.5955 194.849 21.5252 194.84 21.4863 194.792C21.4704 194.772 21.462 194.749 21.461 194.726L21.4604 194.725L21.4214 194.044ZM20.0931 194.674L20.6099 195.132L20.6093 195.134C20.656 195.174 20.6629 195.244 20.624 195.292C20.608 195.312 20.5867 195.325 20.5638 195.331L20.5632 195.334L19.9008 195.523C19.8671 195.218 19.9398 194.921 20.0931 194.674ZM22.4158 194.675C22.4926 194.798 22.5508 194.935 22.5854 195.084C22.6196 195.231 22.6282 195.378 22.6141 195.52L21.9483 195.331L21.9477 195.328C21.8881 195.312 21.8514 195.252 21.8653 195.192C21.871 195.167 21.8842 195.146 21.9021 195.131L21.9019 195.13L22.4158 194.675H22.4158ZM21.1503 195.167H21.362L21.4936 195.329L21.4464 195.532L21.2563 195.623L21.0657 195.532L21.0184 195.329L21.1503 195.167ZM21.829 195.723C21.838 195.723 21.847 195.724 21.8558 195.725L21.8569 195.724L22.5421 195.839C22.4418 196.117 22.2499 196.359 21.9935 196.52L21.7275 195.885L21.7284 195.884C21.7039 195.827 21.7284 195.762 21.7846 195.735C21.799 195.728 21.814 195.724 21.829 195.723H21.829ZM20.6782 195.726C20.7305 195.727 20.7774 195.763 20.7896 195.816C20.7953 195.84 20.7925 195.865 20.7831 195.886L20.7851 195.889L20.5219 196.518C20.2759 196.361 20.0799 196.128 19.975 195.841L20.6543 195.727L20.6555 195.728C20.6631 195.727 20.6708 195.726 20.6782 195.726V195.726ZM21.2521 196.002C21.2703 196.001 21.2888 196.005 21.3064 196.013C21.3294 196.024 21.3472 196.041 21.3584 196.062H21.3609L21.6958 196.661C21.6523 196.675 21.6076 196.687 21.5619 196.697C21.3058 196.755 21.0505 196.738 20.8194 196.66L21.1534 196.062H21.154C21.174 196.025 21.212 196.003 21.2521 196.002Z" fill="white" stroke="white" stroke-width="0.0610789"/>
<rect x="82.5" y="46.5" width="208" height="208" rx="29" stroke="#00D3A9" stroke-width="4" stroke-dasharray="10 10"/>
<path d="M106.5 70.5H266.5V158.5C266.5 192.441 266.5 209.412 255.956 219.956C245.412 230.5 228.441 230.5 194.5 230.5H178.5C144.559 230.5 127.588 230.5 117.044 219.956C106.5 209.412 106.5 192.441 106.5 158.5V70.5Z" fill="#326CE5"/>
<path fill-rule="evenodd" clip-rule="evenodd" d="M144.501 116C143.396 116 142.501 116.895 142.501 118V119.999C142.501 121.104 143.396 121.999 144.501 121.999H155.799C156.904 121.999 157.799 121.104 157.799 119.999V118C157.799 116.895 156.904 116 155.799 116H144.501ZM169.97 116C168.866 116 167.97 116.895 167.97 118V120C167.97 121.105 168.866 122 169.97 122H228.445C229.55 122 230.445 121.105 230.445 120V118C230.445 116.895 229.55 116 228.445 116H169.97ZM190.978 139.128C190.978 138.023 191.874 137.128 192.978 137.128H228.5C229.604 137.128 230.5 138.023 230.5 139.128V141C230.5 142.105 229.604 143 228.5 143H192.978C191.874 143 190.978 142.105 190.978 141V139.128ZM167.635 137C166.53 137 165.635 137.895 165.635 139V140.872C165.635 141.977 166.53 142.872 167.635 142.872H178.933C180.037 142.872 180.933 141.977 180.933 140.872V139C180.933 137.895 180.037 137 178.933 137H167.635ZM190.978 160.128C190.978 159.023 191.874 158.128 192.978 158.128H228.5C229.604 158.128 230.5 159.023 230.5 160.128V162C230.5 163.105 229.604 164 228.5 164H192.978C191.874 164 190.978 163.105 190.978 162V160.128ZM167.635 158C166.53 158 165.635 158.895 165.635 160V161.872C165.635 162.977 166.53 163.872 167.635 163.872H178.933C180.037 163.872 180.933 162.977 180.933 161.872V160C180.933 158.895 180.037 158 178.933 158H167.635ZM167.97 181C167.97 179.895 168.866 179 169.97 179H228.445C229.55 179 230.445 179.895 230.445 181V183C230.445 184.105 229.55 185 228.445 185H169.97C168.866 185 167.97 184.105 167.97 183V181ZM144.501 179C143.396 179 142.501 179.895 142.501 181V182.999C142.501 184.104 143.396 184.999 144.501 184.999H155.799C156.904 184.999 157.799 184.104 157.799 182.999V181C157.799 179.895 156.904 179 155.799 179H144.501Z" fill="white"/>
</svg>
