<svg width="111px" height="127px" fill="#00B39F" version="1.1" xmlns="http://www.w3.org/2000/svg" viewBox="0 0 254 187"><path d="M137.75 186.964L195.857 81.2227L253.994 186.964H137.75Z" fill="#00B39F"></path><path d="M217.85 121.244L207.007 132.244L195.51 121.244L183.639 132.244L173.852 121.244L195.852 81.2227L217.85 121.244Z" fill="#00B39F"></path><path d="M0 186.879L42.5621 109.473L85.1469 186.879H0Z" fill="#00B39F"></path><path d="M58.6074 138.964L50.7041 147.07L42.3246 138.964L33.6726 147.07L26.5391 138.964L42.5736 109.473L58.6074 138.964Z" fill="#00B39F"></path><path d="M70.9531 24.245H125.504V0H70.9531L89.6349 12.1225L70.9531 24.245Z" fill="#00B39F"></path><path d="M51 186.89L128.281 45.4609L205.562 186.89H51Z" fill="#00B39F"></path><path d="M157.592 99.3499L143.115 114.155L127.831 99.3499L112.02 114.155L99 99.3499L128.297 45.4609L157.592 99.3499Z" fill="#00B39F"></path><line x1="128.516" y1="8.74229e-08" x2="118.414" y2="57.5818" stroke="#00B39F" stroke-width="4"></line></svg>