<svg xmlns="http://www.w3.org/2000/svg" id="Layer_1" data-name="Layer 1" viewBox="0 0 400 400"><defs><style>.cls-1,.cls-2{fill:#fff;}.cls-2{opacity:0.8;}.cls-3{fill:#00b39f;}</style></defs><path class="cls-1" d="M199.51,300.58c-9.58-17.5-19.11-33.37-27.18-49.94-16.91-34.76-33.61-69.65-49.26-105-7.78-17.56-12.88-36.09-10.76-56,3.62-34.08,30.44-65.64,63.88-74,47.5-11.93,92.13,11.75,108.07,58,6.84,19.89,4.07,39.77-2.73,59.38-13.74,39.63-32.71,76.87-52,114-8.19,15.78-17.09,31.19-25.7,46.75C202.84,295.56,201.6,297.29,199.51,300.58Zm.83-136.52c34.92-.29,63.89-29.56,63.55-64.19-.34-35.08-29.59-63.51-65.22-63.41-33.07.1-63.19,30.22-62.85,62.86C136.19,135.52,164.93,164.36,200.34,164.06Z"/><polygon class="cls-2" points="203.33 341.52 203.33 355.88 251.68 348.68 203.33 341.52"/><polygon class="cls-2" points="203.33 358.89 203.33 373.31 252.12 366.13 203.33 358.89"/><polygon class="cls-1" points="196.37 355.78 196.37 341.64 148.61 348.69 196.37 355.78"/><path class="cls-1" d="M100.57,373.26c9.36,3.88,22.05,7.17,37.05,9.6V367.74Z"/><polygon class="cls-1" points="196.37 373.25 196.37 358.99 148.49 366.12 196.37 373.25"/><polygon class="cls-2" points="144.58 381.96 193.06 374.82 144.58 367.61 144.58 381.96"/><polygon class="cls-1" points="255.44 382.04 255.44 367.71 207.03 374.83 255.44 382.04"/><path class="cls-1" d="M302.87,371.6c8.05-3.87,12.92-8.24,13.69-12.89l-50.46,7.43Z"/><polygon class="cls-2" points="262.4 364.62 311.05 357.46 262.4 350.26 262.4 364.62"/><polygon class="cls-1" points="255.44 347.17 255.44 332.93 207.26 340.04 255.44 347.17"/><polygon class="cls-1" points="255.44 364.56 255.44 350.19 207.14 357.38 255.44 364.56"/><polygon class="cls-3" points="199.85 387.48 199.86 387.48 199.84 387.48 199.85 387.48"/><polygon class="cls-2" points="144.58 350.16 144.58 364.64 193.23 357.39 144.58 350.16"/><path class="cls-1" d="M196.37,327.35a405.82,405.82,0,0,0-51.28,3.49l51.28,7.59Z"/><polygon class="cls-2" points="144.58 332.83 144.58 347.22 193.27 340.03 144.58 332.83"/><path class="cls-1" d="M137.62,332c-15,2.44-27.69,5.73-37.06,9.6l37.06,5.51Z"/><path class="cls-2" d="M255.12,330.91a403.41,403.41,0,0,0-51.79-3.56v11.2Z"/><path class="cls-2" d="M83.1,358.46c.64,4.79,5.62,9.29,14,13.26l37.52-5.59Z"/><path class="cls-2" d="M97.06,343.1c-8.31,3.95-13.28,8.43-14,13.19l51.54-7.61Z"/><path class="cls-1" d="M145,384a405.21,405.21,0,0,0,51.37,3.5V376.4Z"/><path class="cls-2" d="M299.22,341.59c-9.3-3.86-21.91-7.15-36.82-9.58v15.07Z"/><path class="cls-2" d="M262.4,382.81c15-2.45,27.67-5.76,37-9.66l-37-5.49Z"/><path class="cls-1" d="M316.58,356.21c-.72-4.72-5.65-9.15-13.86-13.07l-37.11,5.53Z"/><path class="cls-2" d="M203.33,387.46A403.83,403.83,0,0,0,254.58,384l-51.25-7.63Z"/><polygon class="cls-1" points="137.62 364.51 137.62 350.31 89.72 357.38 137.62 364.51"/></svg>