<svg xmlns="http://www.w3.org/2000/svg" viewBox="0 0 322.28 404.9"><defs><style>.cls-1,.cls-3,.cls-4{fill:none;}.cls-1{stroke:#00b39f;}.cls-1,.cls-3{stroke-miterlimit:10;stroke-width:10px;}.cls-2{fill:#00b39f;}.cls-3{stroke:#00d3a9;}.cls-5{fill:#00d3a9;}</style></defs><g id="Layer_2" data-name="Layer 2"><g id="Layer_1-2" data-name="Layer 1"><path class="cls-1" d="M162.33,399.9C76,400.09,5.92,381.49,5,358.13c-.83-21.06,72.61-40.49,153.25-40.55,86.87-.07,158.18,18.28,159,40.9C318.1,380.83,247.46,399.71,162.33,399.9Z"/><ellipse class="cls-2" cx="161.45" cy="360.97" rx="65.09" ry="8.67"/><path class="cls-3" d="M161.87,384c-53.05.12-96.11-11.31-96.68-25.67-.5-12.94,44.62-24.88,94.18-24.92,53.38,0,97.2,11.24,97.72,25.14C257.6,372.31,214.19,383.91,161.87,384Z"/><path class="cls-4" d="M211.75,107.35a54.59,54.59,0,0,0-3.84-6.87,56.28,56.28,0,0,0-7.38-9.06,55.78,55.78,0,0,0-75.82-2.54l-5.65,5.64a57.77,57.77,0,0,0-4.37,5.76,55.73,55.73,0,0,0-9.3,30.79,55.49,55.49,0,0,0,6,25.25,54.63,54.63,0,0,0,4.06,6.75,55.66,55.66,0,0,0,41.73,23.62c1.3.09,2.6.16,3.93.16s2.63-.07,3.94-.16a55.58,55.58,0,0,0,35.18-15.91l.67-.68a56.35,56.35,0,0,0,6.14-7.42,54.73,54.73,0,0,0,4-6.77A55.86,55.86,0,0,0,211.75,107.35Z"/><path class="cls-5" d="M207.91,100.48l11.86-6.87L165.1,62.18V75.37a55.55,55.55,0,0,1,35.43,16A56.28,56.28,0,0,1,207.91,100.48Z"/><path class="cls-5" d="M200.28,170.78a55.58,55.58,0,0,1-35.18,15.91v15.14l55.17-31.54-13.18-7.61A56.35,56.35,0,0,1,201,170.1Z"/><path class="cls-2" d="M124.71,88.88a55.48,55.48,0,0,1,32.52-13.49V62.72l-54,31,11.45,6.61a57.77,57.77,0,0,1,4.37-5.76Z"/><path class="cls-2" d="M90.81,243.76v-66.4L48.93,201.61A132.73,132.73,0,0,0,90.81,243.76Z"/><path class="cls-2" d="M115.5,163.07l-12.39,7.18,54.12,31.29V186.69A55.66,55.66,0,0,1,115.5,163.07Z"/><polygon class="cls-5" points="98.68 176.78 98.68 239.81 153.5 208.47 98.68 176.78"/><polygon class="cls-2" points="224.02 240.14 224.02 177.21 169.29 208.5 224.02 240.14"/><path class="cls-2" d="M277.64,194.3A132.54,132.54,0,0,0,285.35,177a143.19,143.19,0,0,0,6.87-38.81l-56.15,32.1Z"/><polygon class="cls-5" points="231.89 100.58 231.89 163.64 286.89 132.19 231.89 100.58"/><polygon class="cls-2" points="224.02 86.97 224.02 24.43 169.54 55.66 224.02 86.97"/><path class="cls-2" d="M211.1,155.91,224,163.36V100.24l-12.27,7.11A55.86,55.86,0,0,1,211.1,155.91Z"/><path class="cls-5" d="M110.81,107.13l-12.13-7v63.58l12.76-7.39a55.65,55.65,0,0,1-.63-49.19Z"/><path class="cls-2" d="M157.23,0A130.41,130.41,0,0,0,99.41,15.35l57.82,33.23Z"/><polygon class="cls-5" points="98.68 24 98.68 87.2 153.73 55.65 98.68 24"/><path class="cls-2" d="M90.81,20.37a132,132,0,0,0-24.69,20.3A130.64,130.64,0,0,0,49.29,62.54l41.52,24Z"/><path class="cls-5" d="M223.4,15.71A130.72,130.72,0,0,0,165.1,0V49.13Z"/><path class="cls-5" d="M87.39,170.25,30.06,137.11a144.67,144.67,0,0,0,7,40.16A129.37,129.37,0,0,0,45,194.81Z"/><path class="cls-5" d="M45.37,69.36l-.75,1.43-.47.9c-.29.58-.58,1.16-.86,1.75-.2.39-.4.79-.59,1.19s-.47,1-.7,1.5-.45,1-.68,1.48l-.55,1.26c-.25.58-.5,1.16-.74,1.75-.15.35-.3.71-.44,1.06-.26.65-.53,1.3-.78,2-.12.3-.23.61-.35.91-.27.71-.53,1.41-.79,2.12-.1.27-.19.55-.29.82-.26.74-.52,1.48-.76,2.23-.09.26-.17.52-.26.77-.24.76-.49,1.52-.72,2.28l-.24.81c-.22.75-.44,1.5-.65,2.25-.09.31-.17.62-.25.93-.2.71-.39,1.43-.57,2.14L33.66,100c-.16.65-.32,1.3-.47,2-.11.47-.21,1-.31,1.42s-.24,1.12-.35,1.68-.23,1.19-.35,1.78-.17.89-.24,1.34c-.14.74-.26,1.49-.38,2.24,0,.3-.09.6-.14.9-.14.92-.27,1.85-.39,2.77,0,.14,0,.27-.05.4q-.77,6-1,12.06L87.45,93.64Z"/><path class="cls-2" d="M157.23,264V215.4L99.15,248.6A131.27,131.27,0,0,0,157.23,264Z"/><path class="cls-5" d="M273,62.8a130.9,130.9,0,0,0-41.09-42.07V86.59Z"/><path class="cls-5" d="M231.89,243.53a132.75,132.75,0,0,0,41.82-42.41L231.89,177Z"/><path class="cls-2" d="M292.27,126.21a130.62,130.62,0,0,0-7.82-39.61l-.05.05a131.69,131.69,0,0,0-7.53-17L235.52,93.58Z"/><path class="cls-5" d="M165.1,264a131.4,131.4,0,0,0,58-15.31l-58-33.49Z"/><polygon class="cls-2" points="90.81 163.14 90.81 100.79 36.66 131.83 90.81 163.14"/><path class="cls-5" d="M44.94,194.88a130.56,130.56,0,0,1-7.89-17.54C47.91,210.51,70,236.25,94.6,262.46c2.34,2.4,4.29,5.06,6.51,7.54h0a236.66,236.66,0,0,1,47.13,82.35,13.09,13.09,0,0,0,24.72.52,286.41,286.41,0,0,1,32.6-64c-1.63,2.56-3.22,5.14-4.81,7.71,1.6-2.58,3.19-5.16,4.82-7.72a285.84,285.84,0,0,1,20.3-26.45c26.51-26.93,48.68-52.35,59.46-85.27a132.54,132.54,0,0,1-7.71,17.27"/></g></g></svg>