<?xml version="1.0" standalone="no"?>
<!DOCTYPE svg PUBLIC "-//W3C//DTD SVG 20010904//EN"
 "http://www.w3.org/TR/2001/REC-SVG-20010904/DTD/svg10.dtd">
<svg version="1.0" xmlns="http://www.w3.org/2000/svg"
 width="393.000000pt" height="393.000000pt" viewBox="0 0 393.000000 393.000000"
 preserveAspectRatio="xMidYMid meet">
<metadata>
Created by potrace 1.14, written by Peter Selinger 2001-2017
</metadata>
<g transform="translate(0.000000,393.000000) scale(0.100000,-0.100000)"
fill="#000000" stroke="none">
<path d="M30 3320 c0 -346 3 -530 10 -531 51 -4 821 -3 840 2 l25 5 0 170 0
169 560 2 c308 1 571 2 585 2 l25 1 0 355 0 355 -1022 0 -1023 0 0 -530z"/>
<path d="M2315 3495 l0 -355 45 -1 c290 -3 1422 0 1426 4 5 4 8 533 5 680 l-1
27 -737 0 -738 0 0 -355z"/>
<path d="M30 2140 c0 -325 3 -419 13 -422 6 -2 686 -4 1510 -4 l1497 1 1 -50
c0 -27 1 -86 2 -130 l2 -80 420 -2 c231 -1 428 1 437 3 16 5 17 23 14 202 -3
178 -6 205 -28 274 -72 219 -273 387 -508 424 -25 3 -593 7 -1262 6 -899 0
-1218 3 -1219 12 -1 6 -2 49 -3 96 l-1 85 -437 2 -438 2 0 -419z"/>
<path d="M3055 1220 c-2 -4 -4 -89 -4 -190 0 -102 0 -192 -1 -201 0 -15 -54
-16 -571 -15 -314 1 -576 -2 -582 -6 -9 -5 -12 -104 -12 -358 0 -305 2 -350
15 -351 8 0 351 -1 761 -1 734 0 747 0 825 22 105 28 196 80 270 154 68 69
106 128 142 225 25 65 25 72 28 394 1 239 -1 327 -10 328 -39 5 -859 3 -861
-1z"/>
<path d="M2 876 c3 -292 5 -315 26 -374 72 -203 245 -351 457 -393 37 -8 1013
-16 1145 -10 13 1 15 45 14 354 -1 193 -2 354 -3 357 0 3 -173 4 -383 3 -211
-1 -392 0 -403 2 -20 4 -21 11 -20 172 1 92 -1 175 -3 184 -3 15 -45 16 -419
16 l-415 0 4 -311z"/>
</g>
</svg>
