<?xml version="1.0" encoding="utf-8"?>
<!-- Generator: Adobe Illustrator 25.3.1, SVG Export Plug-In . SVG Version: 6.00 Build 0)  -->
<svg version="1.1" id="Layer_1" xmlns="http://www.w3.org/2000/svg" xmlns:xlink="http://www.w3.org/1999/xlink" x="0px" y="0px"
	 width="18px" height="16px" viewBox="0 0 18 16" style="enable-background:new 0 0 18 16;" xml:space="preserve">
<style type="text/css">
	.st0{clip-path:url(#SVGID_2_);}
	.st1{fill:#00B39F;}
	.st2{fill:#00D3A9;}
</style>
<g>
	<defs>
		<rect id="SVGID_1_" width="18" height="16"/>
	</defs>
	<clipPath id="SVGID_2_">
		<use xlink:href="#SVGID_1_"  style="overflow:visible;"/>
	</clipPath>
	<g class="st0">
		<path class="st1" d="M9,16c-2.5,0-5,0-7.6,0c-0.7,0-1.2-0.4-1.4-1C0,14.9,0,14.7,0,14.6C0,12,0,9.5,0,6.9c0-0.2,0-0.4,0.1-0.6
			c0.6-2,1.3-3.9,1.9-5.9C2.1,0,2.2,0,2.6,0c4.2,0,8.5,0,12.8,0c0.4,0,0.4,0,0.5,0.4c0.6,1.8,1.2,3.6,1.8,5.4
			c0.1,0.2,0.1,0.3,0.2,0.5C17.9,6.5,18,6.7,18,6.9c0,2.6,0,5.2,0,7.7c0,0.8-0.6,1.4-1.4,1.4C14.1,16,11.6,16,9,16z M11.6,5.5
			c1.8,0,3.5,0,5.3,0c0-0.1,0-0.1,0-0.2c-0.5-1.5-1-3-1.5-4.5c-0.1-0.2-0.2-0.2-0.3-0.2c-4.1,0-8.1,0-12.2,0c-0.2,0-0.3,0.1-0.3,0.2
			c-0.5,1.5-0.9,3-1.4,4.4c0,0.1,0,0.1-0.1,0.2c1.8,0,3.6,0,5.4,0c0.1,0.7,0.3,0.9,0.9,0.9c1.1,0,2.2,0,3.3,0
			C11.3,6.4,11.5,6.2,11.6,5.5z M6.5,11.2c0.1-0.2,0.1-0.4,0.2-0.6c0.1-0.4-0.1-0.8-0.5-0.9c-0.4-0.1-0.7,0.1-0.9,0.5
			c-0.1,0.5-0.3,1-0.4,1.5c-0.1,0.5,0.2,0.9,0.7,0.9c2.3,0,4.6,0,6.9,0c0.5,0,0.8-0.4,0.7-0.8c-0.2-0.6-0.4-1.1-0.6-1.7
			c-0.1-0.3-0.4-0.4-0.7-0.4c-0.3,0-0.5,0.2-0.6,0.5c0,0.2,0,0.3,0,0.5c0,0.2,0.1,0.4,0.2,0.5C9.9,11.2,8.2,11.2,6.5,11.2z"/>
		<path class="st2" d="M8.9,4.1c2.1,0,4.2,0,6.2,0c0.1,0,0.2,0,0.3,0.1c0.1,0.1,0.2,0.2,0.1,0.3c0,0.2-0.1,0.3-0.3,0.3
			c-0.3,0-0.7,0-1,0c-3.8,0-7.7,0-11.5,0c0,0-0.1,0-0.1,0c-0.2,0-0.4-0.1-0.4-0.3c0-0.2,0.1-0.3,0.4-0.3c1,0,2.1,0,3.1,0
			C6.8,4.1,7.9,4.1,8.9,4.1z"/>
		<path class="st2" d="M8.9,2.8c1.9,0,3.9,0,5.8,0c0.1,0,0.2,0,0.3,0c0.2,0,0.3,0.1,0.3,0.3c0,0.2-0.1,0.3-0.3,0.3
			c-0.1,0-0.1,0-0.2,0c-3.9,0-7.8,0-11.8,0c-0.1,0-0.2,0-0.3,0C2.7,3.3,2.6,3.2,2.6,3.1c0-0.1,0.1-0.2,0.3-0.3c0.1,0,0.2,0,0.2,0
			C5,2.8,7,2.8,8.9,2.8z"/>
		<path class="st2" d="M8.9,2C7.1,2,5.3,2,3.5,2c-0.1,0-0.1,0-0.2,0C3.2,2,3.1,1.9,3.1,1.7c0-0.2,0.1-0.3,0.3-0.3c0.1,0,0.1,0,0.2,0
			c3.6,0,7.2,0,10.8,0c0.1,0,0.1,0,0.2,0c0.2,0,0.3,0.1,0.3,0.3c0,0.2-0.1,0.3-0.3,0.3c-0.1,0-0.1,0-0.2,0C12.5,2,10.7,2,8.9,2z"/>
	</g>
</g>
</svg>
