<?xml version="1.0" encoding="utf-8"?>
<!-- Generator: Adobe Illustrator 25.3.1, SVG Export Plug-In . SVG Version: 6.00 Build 0)  -->
<svg version="1.1" id="Layer_1" xmlns="http://www.w3.org/2000/svg" xmlns:xlink="http://www.w3.org/1999/xlink" x="0px" y="0px"
	 width="480px" height="540px" viewBox="0 0 480 540" style="enable-background:new 0 0 480 540;" xml:space="preserve">
<style type="text/css">
	.st0{fill-rule:evenodd;clip-rule:evenodd;fill:url(#SVGID_3_);}
	.st1{fill-rule:evenodd;clip-rule:evenodd;fill-opacity:0;}
	.st2{fill:#EEEEEE;}
	.st3{fill:#EEFF41;}
	.st4{fill-rule:evenodd;clip-rule:evenodd;fill:#222529;}
	.st5{fill-rule:evenodd;clip-rule:evenodd;fill:#00B39F;}
	.st6{fill:none;stroke:#000000;stroke-linejoin:round;stroke-miterlimit:10;}
	.st7{fill:#FFFFFF;}
	.st8{fill-rule:evenodd;clip-rule:evenodd;fill:#595959;}
	.st9{fill-rule:evenodd;clip-rule:evenodd;fill:#434343;}
</style>
<g>
	<defs>
		<rect id="SVGID_1_" x="-209" y="-27.5" width="960" height="540"/>
	</defs>
	<clipPath id="SVGID_2_">
		<use xlink:href="#SVGID_1_"  style="overflow:visible;"/>
	</clipPath>
</g>
<g>
	
		<linearGradient id="SVGID_3_" gradientUnits="userSpaceOnUse" x1="-448.0653" y1="776.1646" x2="-448.0744" y2="799.4025" gradientTransform="matrix(23.2459 0 0 -23.2459 10655.8027 18583.4531)">
		<stop  offset="0" style="stop-color:#00B39F"/>
		<stop  offset="1" style="stop-color:#111111"/>
	</linearGradient>
	<path class="st0" d="M0,0.7h480v540H0V0.7z"/>
	<path class="st1" d="M27.9,18.2h424.7v155.6H27.9L27.9,18.2z"/>
	<path class="st2" d="M93.4,72.6c4.1,0,7,0.8,8.9,2.4c1.9,1.6,2.8,3.8,2.8,6.8c0,1.3-0.2,2.6-0.7,3.8c-0.4,1.2-1.1,2.2-2.1,3.2
		c-1,0.9-2.2,1.6-3.8,2.1c-1.6,0.5-3.5,0.8-5.8,0.8h-3.8V104h-3.7V72.6H93.4z M93.1,75.7h-4.2v12.8h3.4c2,0,3.7-0.2,5-0.6
		c1.3-0.4,2.3-1.1,3-2.1c0.7-1,1-2.3,1-3.9c0-2.1-0.7-3.6-2-4.7C98,76.2,95.9,75.7,93.1,75.7z M121.8,80c0.5,0,1,0,1.5,0.1
		c0.5,0.1,1,0.1,1.4,0.2l-0.5,3.3c-0.4-0.1-0.8-0.2-1.3-0.2c-0.5-0.1-0.9-0.1-1.3-0.1c-0.9,0-1.8,0.2-2.7,0.6
		c-0.8,0.4-1.6,0.9-2.2,1.6c-0.6,0.7-1.1,1.6-1.5,2.6c-0.4,1-0.5,2.1-0.5,3.3V104h-3.6V80.5h3l0.4,4.3h0.2c0.5-0.9,1.1-1.7,1.8-2.4
		c0.7-0.7,1.5-1.3,2.4-1.7C119.7,80.3,120.7,80,121.8,80z M149.4,92.2c0,1.9-0.2,3.7-0.8,5.2c-0.5,1.5-1.2,2.8-2.2,3.9
		c-0.9,1-2.1,1.8-3.4,2.4c-1.3,0.6-2.8,0.8-4.5,0.8c-1.6,0-3-0.3-4.3-0.8c-1.3-0.6-2.4-1.3-3.4-2.4c-0.9-1.1-1.7-2.3-2.2-3.9
		c-0.5-1.5-0.8-3.2-0.8-5.2c0-2.6,0.4-4.8,1.3-6.6c0.9-1.8,2.1-3.2,3.8-4.1c1.6-1,3.6-1.4,5.8-1.4c2.1,0,4,0.5,5.6,1.5
		c1.6,1,2.9,2.3,3.8,4.2C149,87.5,149.4,89.6,149.4,92.2z M131.5,92.2c0,1.9,0.2,3.5,0.8,4.9c0.5,1.4,1.3,2.5,2.3,3.2
		c1,0.8,2.4,1.1,4,1.1c1.6,0,3-0.4,4-1.1c1.1-0.8,1.8-1.8,2.3-3.2c0.5-1.4,0.8-3,0.8-4.9c0-1.9-0.3-3.5-0.8-4.9
		c-0.5-1.4-1.3-2.4-2.3-3.2c-1-0.8-2.4-1.1-4.1-1.1c-2.4,0-4.2,0.8-5.4,2.4C132.1,87.1,131.5,89.3,131.5,92.2z M160.8,104l-8.9-23.5
		h3.8l5.2,14.2c0.4,1,0.7,2,1.1,3.2c0.4,1.2,0.6,2.1,0.8,2.8h0.1c0.2-0.7,0.5-1.7,0.9-2.8c0.4-1.2,0.8-2.3,1.1-3.2l5.2-14.2h3.8
		l-9,23.5H160.8z M181.1,80.5V104h-3.6V80.5H181.1z M179.4,71.7c0.6,0,1.1,0.2,1.5,0.6c0.4,0.4,0.6,1,0.6,1.8c0,0.8-0.2,1.4-0.6,1.8
		c-0.4,0.4-0.9,0.6-1.5,0.6c-0.6,0-1.1-0.2-1.5-0.6s-0.6-1-0.6-1.8c0-0.8,0.2-1.4,0.6-1.8C178.3,71.9,178.8,71.7,179.4,71.7z
		 M197.1,104.5c-3,0-5.3-1-7.1-3c-1.7-2-2.6-5.1-2.6-9.1c0-4.1,0.9-7.1,2.7-9.2c1.8-2.1,4.1-3.1,7.1-3.1c1.2,0,2.3,0.2,3.3,0.5
		s1.7,0.8,2.4,1.3s1.2,1.2,1.7,1.9h0.2c-0.1-0.4-0.1-1.1-0.2-1.8c-0.1-0.8-0.1-1.4-0.1-1.9v-9.4h3.6V104h-2.9l-0.5-3.4h-0.1
		c-0.4,0.7-1,1.3-1.7,1.9c-0.7,0.6-1.5,1-2.4,1.4C199.4,104.3,198.3,104.5,197.1,104.5z M197.6,101.5c2.5,0,4.3-0.7,5.3-2.1
		c1-1.4,1.6-3.6,1.6-6.4v-0.6c0-3-0.5-5.3-1.5-6.9c-1-1.6-2.8-2.4-5.4-2.4c-2.2,0-3.8,0.8-4.9,2.5c-1.1,1.7-1.6,4-1.6,6.9
		c0,2.9,0.5,5.1,1.6,6.7C193.8,100.7,195.4,101.5,197.6,101.5z M224.7,80c2,0,3.7,0.4,5.1,1.3c1.4,0.9,2.5,2.1,3.3,3.7
		c0.8,1.6,1.1,3.5,1.1,5.6v2.2H218c0,2.8,0.7,4.9,2.1,6.3c1.3,1.4,3.2,2.2,5.6,2.2c1.5,0,2.8-0.1,4-0.4c1.1-0.3,2.3-0.7,3.6-1.2v3.1
		c-1.2,0.5-2.4,0.9-3.5,1.2c-1.2,0.3-2.5,0.4-4.1,0.4c-2.3,0-4.2-0.5-5.9-1.4c-1.7-0.9-3-2.3-3.9-4.1c-0.9-1.8-1.4-4-1.4-6.6
		c0-2.5,0.4-4.7,1.3-6.6c0.9-1.9,2.1-3.3,3.6-4.3C220.7,80.5,222.6,80,224.7,80z M224.6,83c-1.9,0-3.4,0.6-4.6,1.9
		c-1.1,1.3-1.8,3-2,5.2h12.5c0-1.4-0.2-2.6-0.7-3.7c-0.4-1.1-1.1-1.9-1.9-2.5C227.1,83.3,226,83,224.6,83z M251,80
		c0.5,0,1,0,1.5,0.1c0.5,0.1,1,0.1,1.4,0.2l-0.5,3.3c-0.4-0.1-0.8-0.2-1.3-0.2c-0.5-0.1-0.9-0.1-1.3-0.1c-0.9,0-1.8,0.2-2.7,0.6
		c-0.8,0.4-1.6,0.9-2.2,1.6c-0.6,0.7-1.1,1.6-1.5,2.6c-0.4,1-0.5,2.1-0.5,3.3V104h-3.6V80.5h3l0.4,4.3h0.2c0.5-0.9,1.1-1.7,1.8-2.4
		c0.7-0.7,1.5-1.3,2.4-1.7C248.9,80.3,249.9,80,251,80z M290,104l-3.9-10h-12.6l-3.8,10H266l12.3-31.5h3.3l12.2,31.5H290z M285,90.8
		l-3.7-9.9c-0.1-0.2-0.2-0.7-0.4-1.2c-0.2-0.6-0.4-1.2-0.6-1.8c-0.2-0.6-0.4-1.1-0.5-1.5c-0.1,0.6-0.3,1.2-0.5,1.8
		c-0.2,0.6-0.3,1.1-0.5,1.6c-0.2,0.5-0.3,0.9-0.4,1.2l-3.7,9.9H285z M305.9,104.5c-3,0-5.3-1-7.1-3c-1.7-2-2.6-5.1-2.6-9.1
		c0-4.1,0.9-7.1,2.7-9.2c1.8-2.1,4.1-3.1,7.1-3.1c1.2,0,2.3,0.2,3.3,0.5s1.7,0.8,2.4,1.3s1.2,1.2,1.7,1.9h0.2
		c-0.1-0.4-0.1-1.1-0.2-1.8c-0.1-0.8-0.1-1.4-0.1-1.9v-9.4h3.6V104H314l-0.5-3.4h-0.1c-0.4,0.7-1,1.3-1.7,1.9
		c-0.7,0.6-1.5,1-2.4,1.4C308.3,104.3,307.2,104.5,305.9,104.5z M306.5,101.5c2.5,0,4.3-0.7,5.3-2.1c1-1.4,1.6-3.6,1.6-6.4v-0.6
		c0-3-0.5-5.3-1.5-6.9c-1-1.6-2.8-2.4-5.4-2.4c-2.2,0-3.8,0.8-4.9,2.5c-1.1,1.7-1.6,4-1.6,6.9c0,2.9,0.5,5.1,1.6,6.7
		C302.6,100.7,304.3,101.5,306.5,101.5z M350,80c2.6,0,4.5,0.7,5.9,2c1.3,1.4,2,3.5,2,6.5V104h-3.5V88.8c0-1.9-0.4-3.3-1.2-4.3
		c-0.8-1-2-1.4-3.7-1.4c-2.3,0-3.9,0.7-5,2c-1,1.3-1.5,3.3-1.5,5.8V104h-3.5V88.8c0-1.3-0.2-2.3-0.5-3.2c-0.4-0.8-0.9-1.5-1.6-1.9
		c-0.7-0.4-1.6-0.6-2.7-0.6c-1.6,0-2.8,0.3-3.8,1s-1.6,1.6-2.1,2.9c-0.4,1.3-0.6,2.8-0.6,4.7V104h-3.6V80.5h2.9l0.5,3.3h0.2
		c0.5-0.8,1.1-1.5,1.8-2.1s1.5-1,2.4-1.3c0.9-0.3,1.8-0.4,2.8-0.4c1.8,0,3.3,0.3,4.5,1c1.2,0.7,2.1,1.7,2.6,3h0.2
		c0.8-1.4,1.8-2.4,3.2-3C346.9,80.4,348.4,80,350,80z M368.8,80.5V104h-3.6V80.5H368.8z M367,71.7c0.6,0,1.1,0.2,1.5,0.6
		c0.4,0.4,0.6,1,0.6,1.8c0,0.8-0.2,1.4-0.6,1.8c-0.4,0.4-0.9,0.6-1.5,0.6c-0.6,0-1.1-0.2-1.5-0.6s-0.6-1-0.6-1.8
		c0-0.8,0.2-1.4,0.6-1.8C365.9,71.9,366.4,71.7,367,71.7z M387.4,80c2.8,0,4.9,0.7,6.3,2.1c1.4,1.4,2.2,3.6,2.2,6.6V104h-3.5V88.9
		c0-2-0.4-3.4-1.3-4.4c-0.9-1-2.3-1.5-4.1-1.5c-2.6,0-4.5,0.7-5.5,2.2c-1.1,1.5-1.6,3.6-1.6,6.4V104h-3.6V80.5h2.9l0.5,3.4h0.2
		c0.5-0.8,1.1-1.5,1.9-2.1s1.6-1,2.6-1.3C385.4,80.2,386.4,80,387.4,80z"/>
	<path class="st3" d="M159.5,139.2c-0.2-0.4-0.4-0.8-0.6-1.3c-0.2-0.4-0.3-0.9-0.4-1.4c-0.1-0.5-0.1-1-0.1-1.5
		c0-0.9,0.1-1.7,0.2-2.5c0.2-0.8,0.4-1.5,0.7-2.2c0.3-0.7,0.7-1.4,1.1-2c0.4-0.6,1-1.2,1.5-1.8h1.1c-0.5,0.6-1,1.2-1.4,1.8
		c-0.4,0.6-0.8,1.3-1.1,2c-0.3,0.7-0.6,1.5-0.7,2.2c-0.2,0.8-0.3,1.6-0.3,2.4c0,0.6,0,1.1,0.1,1.6c0.1,0.5,0.2,1,0.3,1.4
		c0.1,0.4,0.3,0.9,0.5,1.3H159.5z M165.6,137c-0.6,0-1.1-0.1-1.5-0.3s-0.8-0.5-1-1c-0.2-0.4-0.4-1-0.4-1.6c0-0.6,0.1-1.1,0.2-1.6
		c0.1-0.5,0.3-1,0.5-1.4c0.2-0.4,0.5-0.8,0.9-1.1c0.3-0.3,0.7-0.6,1.1-0.8c0.4-0.2,0.9-0.3,1.4-0.3c0.3,0,0.7,0,1,0.1
		c0.3,0.1,0.7,0.2,0.9,0.3l-0.3,1c-0.2-0.1-0.4-0.2-0.7-0.2c-0.3-0.1-0.6-0.1-0.9-0.1c-0.4,0-0.8,0.1-1.2,0.3
		c-0.4,0.2-0.7,0.5-0.9,0.9c-0.2,0.4-0.4,0.8-0.6,1.3c-0.1,0.5-0.2,1-0.2,1.6c0,0.4,0.1,0.8,0.2,1.1c0.1,0.3,0.4,0.5,0.6,0.7
		c0.3,0.2,0.6,0.2,1,0.2c0.4,0,0.7,0,1-0.1c0.3-0.1,0.6-0.2,0.9-0.3v1c-0.3,0.1-0.6,0.2-0.9,0.3C166.4,137,166,137,165.6,137z
		 M171.4,137c-0.4,0-0.7-0.1-1-0.2c-0.3-0.1-0.5-0.4-0.7-0.7c-0.2-0.3-0.2-0.6-0.2-1.1c0-0.2,0-0.4,0-0.6c0-0.2,0.1-0.4,0.1-0.6
		l1-4.8h1.2l-1.1,5c0,0.2-0.1,0.4-0.1,0.5c0,0.2,0,0.3,0,0.4c0,0.3,0.1,0.6,0.2,0.8c0.2,0.2,0.5,0.3,0.8,0.3c0.4,0,0.7-0.1,1.1-0.4
		c0.4-0.2,0.8-0.6,1.1-1.2c0.3-0.5,0.6-1.2,0.8-2l0.7-3.5h1.2l-1.7,7.8h-1l0.2-1.5h-0.1c-0.2,0.2-0.4,0.5-0.7,0.8
		c-0.3,0.2-0.6,0.5-0.9,0.6C172.3,136.9,171.9,137,171.4,137z M177.5,136.9l1.7-7.8h1l-0.2,1.5h0.1c0.2-0.3,0.4-0.5,0.6-0.8
		c0.2-0.3,0.5-0.5,0.8-0.6c0.3-0.2,0.6-0.2,1-0.2c0.1,0,0.3,0,0.4,0c0.2,0,0.3,0,0.4,0.1l-0.3,1.1c-0.1,0-0.2-0.1-0.4-0.1
		c-0.1,0-0.2,0-0.4,0c-0.4,0-0.7,0.1-1,0.3c-0.3,0.2-0.6,0.4-0.8,0.8c-0.2,0.3-0.4,0.7-0.6,1c-0.2,0.4-0.3,0.8-0.4,1.2l-0.8,3.6
		H177.5z M183.3,136.9l1.7-7.8h1l-0.2,1.5h0.1c0.2-0.3,0.4-0.5,0.6-0.8c0.2-0.3,0.5-0.5,0.8-0.6c0.3-0.2,0.6-0.2,1-0.2
		c0.1,0,0.3,0,0.4,0c0.2,0,0.3,0,0.4,0.1l-0.3,1.1c-0.1,0-0.3-0.1-0.4-0.1c-0.1,0-0.2,0-0.4,0c-0.4,0-0.7,0.1-1,0.3
		c-0.3,0.2-0.6,0.4-0.8,0.8c-0.2,0.3-0.4,0.7-0.6,1c-0.2,0.4-0.3,0.8-0.4,1.2l-0.8,3.6H183.3z M192.2,137c-0.6,0-1.1-0.1-1.5-0.3
		c-0.4-0.2-0.7-0.6-1-1c-0.2-0.4-0.3-1-0.3-1.6c0-0.6,0.1-1.3,0.3-1.9c0.2-0.6,0.4-1.2,0.8-1.7c0.3-0.5,0.8-0.9,1.2-1.2
		c0.5-0.3,1-0.5,1.6-0.5c0.7,0,1.3,0.2,1.6,0.5c0.4,0.3,0.6,0.8,0.6,1.3c0,0.4-0.1,0.8-0.3,1.1c-0.2,0.3-0.5,0.6-0.8,0.9
		c-0.4,0.2-0.9,0.4-1.4,0.6c-0.6,0.1-1.3,0.2-2.1,0.2h-0.3c0,0.1,0,0.2,0,0.3c0,0.1,0,0.2,0,0.3c0,0.6,0.2,1.1,0.5,1.5
		c0.3,0.4,0.8,0.5,1.4,0.5c0.4,0,0.7-0.1,1.1-0.2c0.3-0.1,0.7-0.3,1.1-0.4v1c-0.4,0.2-0.7,0.3-1.1,0.4
		C193.1,136.9,192.7,137,192.2,137z M190.8,132.5h0.2c0.6,0,1.2-0.1,1.7-0.2c0.5-0.1,0.9-0.3,1.2-0.5c0.3-0.2,0.5-0.6,0.5-1
		c0-0.3-0.1-0.5-0.3-0.7c-0.2-0.2-0.4-0.3-0.8-0.3c-0.3,0-0.7,0.1-1,0.3c-0.3,0.2-0.6,0.5-0.9,0.9
		C191.2,131.4,191,131.9,190.8,132.5z M196.3,136.9l1.7-7.9h1l-0.2,1.5h0c0.2-0.2,0.4-0.5,0.7-0.7c0.3-0.3,0.6-0.5,0.9-0.7
		c0.3-0.2,0.7-0.3,1.2-0.3c0.4,0,0.8,0.1,1.1,0.2c0.3,0.2,0.5,0.4,0.7,0.7c0.2,0.3,0.2,0.6,0.2,1.1c0,0.2,0,0.4,0,0.7
		c0,0.2-0.1,0.4-0.1,0.6l-1,4.8h-1.3l1.1-5c0-0.2,0.1-0.4,0.1-0.5c0-0.2,0-0.3,0-0.4c0-0.3-0.1-0.6-0.3-0.8
		c-0.2-0.2-0.4-0.3-0.8-0.3c-0.3,0-0.7,0.1-1.1,0.4c-0.4,0.2-0.7,0.6-1.1,1.1c-0.3,0.5-0.6,1.2-0.8,2l-0.7,3.5H196.3z M207.1,137
		c-0.5,0-0.9-0.1-1.3-0.4c-0.3-0.2-0.5-0.7-0.5-1.3c0-0.1,0-0.3,0-0.5c0-0.2,0.1-0.4,0.1-0.5l0.9-4.4h-1.2l0.1-0.5l1.3-0.5l0.9-1.7
		h0.7l-0.4,1.8h2l-0.2,0.9h-2l-0.9,4.4c0,0.1-0.1,0.3-0.1,0.4c0,0.1,0,0.3,0,0.4c0,0.2,0.1,0.4,0.2,0.6c0.1,0.2,0.3,0.2,0.6,0.2
		c0.2,0,0.3,0,0.5,0c0.2,0,0.3-0.1,0.5-0.1v0.9c-0.1,0.1-0.3,0.1-0.5,0.2C207.5,137,207.3,137,207.1,137z M209.7,136.9l2.4-11.1h1.2
		l-2.4,11.1H209.7z M212.5,140.4c-0.2,0-0.4,0-0.6,0c-0.1,0-0.3-0.1-0.4-0.1v-1c0.1,0,0.3,0.1,0.4,0.1c0.2,0,0.3,0,0.5,0
		c0.4,0,0.7-0.1,1-0.4s0.6-0.6,0.8-1.1l0.5-1l-1.2-7.9h1.2l0.5,4c0,0.3,0.1,0.7,0.1,1c0,0.4,0.1,0.7,0.1,1c0,0.3,0,0.6,0,0.8h0
		c0.1-0.2,0.2-0.4,0.3-0.7c0.1-0.3,0.3-0.6,0.4-0.9c0.2-0.3,0.3-0.6,0.4-0.8l2.4-4.4h1.3l-5,9.2c-0.3,0.5-0.5,0.9-0.8,1.2
		c-0.3,0.3-0.6,0.6-0.9,0.7C213.4,140.3,213,140.4,212.5,140.4z M226.2,137c-0.5,0-0.9-0.1-1.3-0.4c-0.3-0.2-0.5-0.7-0.5-1.3
		c0-0.1,0-0.3,0-0.5c0-0.2,0.1-0.4,0.1-0.5l0.9-4.4h-1.2l0.1-0.5l1.3-0.5l0.9-1.7h0.7l-0.4,1.8h2l-0.2,0.9h-2l-0.9,4.4
		c0,0.1-0.1,0.3-0.1,0.4c0,0.1,0,0.3,0,0.4c0,0.2,0.1,0.4,0.2,0.6c0.1,0.2,0.3,0.2,0.6,0.2c0.2,0,0.3,0,0.5,0c0.2,0,0.3-0.1,0.5-0.1
		v0.9c-0.1,0.1-0.3,0.1-0.5,0.2C226.6,137,226.4,137,226.2,137z M228.8,136.9l2.4-11.1h1.2l-0.6,2.9c0,0.2-0.1,0.4-0.1,0.6
		c-0.1,0.2-0.1,0.4-0.2,0.7c-0.1,0.2-0.1,0.4-0.2,0.6h0.1c0.2-0.3,0.4-0.5,0.7-0.8c0.3-0.2,0.6-0.5,0.9-0.6c0.3-0.2,0.7-0.3,1.2-0.3
		c0.4,0,0.8,0.1,1,0.2c0.3,0.1,0.5,0.4,0.7,0.7c0.2,0.3,0.2,0.7,0.2,1.1c0,0.2,0,0.4,0,0.6c0,0.2-0.1,0.4-0.1,0.6l-1,4.8h-1.2l1-4.9
		c0.1-0.2,0.1-0.4,0.1-0.5c0-0.2,0-0.3,0-0.4c0-0.3-0.1-0.6-0.3-0.8c-0.2-0.2-0.4-0.3-0.8-0.3c-0.4,0-0.7,0.1-1.1,0.4
		c-0.4,0.2-0.8,0.6-1.1,1.1c-0.3,0.5-0.6,1.2-0.8,2l-0.7,3.5H228.8z M240.4,137c-0.6,0-1.1-0.1-1.5-0.3c-0.4-0.2-0.7-0.6-1-1
		c-0.2-0.4-0.3-1-0.3-1.6c0-0.6,0.1-1.3,0.3-1.9c0.2-0.6,0.4-1.2,0.8-1.7c0.3-0.5,0.8-0.9,1.2-1.2c0.5-0.3,1-0.5,1.6-0.5
		c0.7,0,1.3,0.2,1.6,0.5c0.4,0.3,0.6,0.8,0.6,1.3c0,0.4-0.1,0.8-0.3,1.1c-0.2,0.3-0.5,0.6-0.8,0.9c-0.4,0.2-0.9,0.4-1.4,0.6
		c-0.6,0.1-1.3,0.2-2.1,0.2h-0.3c0,0.1,0,0.2,0,0.3c0,0.1,0,0.2,0,0.3c0,0.6,0.2,1.1,0.5,1.5c0.3,0.4,0.8,0.5,1.4,0.5
		c0.4,0,0.7-0.1,1.1-0.2c0.3-0.1,0.7-0.3,1.1-0.4v1c-0.4,0.2-0.7,0.3-1.1,0.4C241.3,136.9,240.8,137,240.4,137z M238.9,132.5h0.2
		c0.6,0,1.2-0.1,1.7-0.2c0.5-0.1,0.9-0.3,1.2-0.5c0.3-0.2,0.5-0.6,0.5-1c0-0.3-0.1-0.5-0.3-0.7c-0.2-0.2-0.4-0.3-0.8-0.3
		c-0.3,0-0.7,0.1-1,0.3c-0.3,0.2-0.6,0.5-0.9,0.9C239.3,131.4,239.1,131.9,238.9,132.5z M250.7,137c-0.4,0-0.8-0.1-1.1-0.3
		c-0.3-0.2-0.6-0.5-0.8-0.9c-0.2-0.4-0.3-0.9-0.3-1.5c0-0.6,0.1-1.1,0.2-1.7c0.1-0.5,0.3-1,0.5-1.5c0.2-0.5,0.5-0.9,0.8-1.2
		c0.3-0.3,0.7-0.6,1.1-0.8c0.4-0.2,0.8-0.3,1.3-0.3c0.4,0,0.7,0.1,0.9,0.2c0.3,0.1,0.5,0.3,0.7,0.5c0.2,0.2,0.3,0.4,0.4,0.7h0.1
		l0.5-1.3h0.9l-1.7,7.8h-1l0.2-1.5h-0.1c-0.2,0.3-0.5,0.6-0.7,0.8c-0.3,0.2-0.6,0.5-0.9,0.6C251.5,136.9,251.1,137,250.7,137z
		 M251.1,136c0.4,0,0.7-0.1,1.1-0.4c0.4-0.3,0.7-0.6,1-1.1c0.3-0.5,0.5-1,0.7-1.6c0.1-0.3,0.1-0.5,0.1-0.8c0-0.2,0-0.5,0-0.7
		c0-0.5-0.1-0.9-0.4-1.2c-0.3-0.3-0.6-0.5-1.1-0.5c-0.3,0-0.6,0.1-0.9,0.2c-0.3,0.2-0.5,0.4-0.8,0.7c-0.2,0.3-0.4,0.6-0.6,1
		c-0.2,0.4-0.3,0.8-0.4,1.2c-0.1,0.4-0.1,0.9-0.1,1.4c0,0.5,0.1,1,0.3,1.2C250.4,135.9,250.7,136,251.1,136z M259,137
		c-0.4,0-0.8-0.1-1.1-0.3c-0.3-0.2-0.6-0.5-0.8-0.9c-0.2-0.4-0.3-0.9-0.3-1.5c0-0.6,0.1-1.1,0.2-1.6s0.3-1,0.5-1.5
		c0.2-0.5,0.5-0.9,0.8-1.2s0.7-0.6,1.1-0.8c0.4-0.2,0.8-0.3,1.3-0.3c0.4,0,0.7,0.1,0.9,0.2c0.3,0.1,0.5,0.3,0.7,0.5
		c0.2,0.2,0.3,0.4,0.4,0.7h0.1c0-0.2,0.1-0.4,0.1-0.6c0-0.2,0.1-0.4,0.1-0.6c0-0.2,0.1-0.4,0.1-0.7l0.6-2.6h1.2l-2.4,11.1h-1
		l0.2-1.5h0c-0.2,0.3-0.5,0.6-0.8,0.8c-0.3,0.2-0.6,0.5-0.9,0.6C259.8,136.9,259.4,137,259,137z M259.4,136c0.2,0,0.5-0.1,0.7-0.2
		c0.2-0.1,0.5-0.3,0.7-0.5c0.2-0.2,0.4-0.4,0.6-0.7c0.2-0.3,0.4-0.6,0.5-0.9c0.1-0.3,0.3-0.7,0.3-1.1s0.1-0.8,0.1-1.2
		c0-0.5-0.1-0.9-0.4-1.2c-0.2-0.3-0.6-0.5-1.2-0.5c-0.3,0-0.6,0.1-0.9,0.2c-0.3,0.2-0.5,0.4-0.8,0.7c-0.2,0.3-0.4,0.6-0.6,1
		c-0.1,0.4-0.3,0.8-0.3,1.2c-0.1,0.4-0.1,0.9-0.1,1.3c0,0.5,0.1,1,0.3,1.2C258.7,135.9,259,136,259.4,136z M265.1,136.9l1.7-7.8h1
		l-0.2,1.5h0.1c0.2-0.2,0.4-0.5,0.6-0.8c0.2-0.3,0.5-0.5,0.8-0.6c0.3-0.2,0.7-0.3,1.1-0.3c0.6,0,1,0.2,1.2,0.5
		c0.3,0.3,0.5,0.7,0.5,1.3h0.1c0.2-0.3,0.4-0.6,0.7-0.8c0.3-0.3,0.6-0.5,0.9-0.7c0.3-0.2,0.7-0.3,1.1-0.3c0.6,0,1.1,0.2,1.4,0.5
		c0.3,0.3,0.5,0.8,0.5,1.4c0,0.2,0,0.4,0,0.6c0,0.2-0.1,0.4-0.1,0.6l-1,4.8h-1.2l1.1-4.9c0-0.2,0.1-0.4,0.1-0.6c0-0.2,0-0.3,0-0.5
		c0-0.3-0.1-0.6-0.3-0.8c-0.2-0.2-0.4-0.3-0.8-0.3c-0.2,0-0.5,0.1-0.8,0.2c-0.3,0.1-0.5,0.3-0.8,0.6c-0.2,0.3-0.5,0.6-0.7,1
		c-0.2,0.4-0.4,0.9-0.5,1.5l-0.8,3.6h-1.2l1-4.9c0-0.2,0.1-0.4,0.1-0.6c0-0.2,0-0.3,0-0.4c0-0.3-0.1-0.6-0.2-0.8
		c-0.2-0.2-0.4-0.3-0.8-0.3c-0.3,0-0.5,0.1-0.8,0.2c-0.3,0.1-0.5,0.3-0.8,0.6c-0.3,0.3-0.5,0.6-0.7,1.1c-0.2,0.4-0.4,1-0.5,1.6
		l-0.7,3.5H265.1z M277.8,136.9l1.7-7.8h1.2l-1.7,7.8H277.8z M280.5,127.6c-0.2,0-0.3-0.1-0.5-0.2c-0.1-0.1-0.2-0.3-0.2-0.5
		c0-0.2,0-0.3,0.1-0.4c0.1-0.1,0.2-0.3,0.3-0.3c0.1-0.1,0.3-0.1,0.4-0.1c0.2,0,0.4,0.1,0.5,0.2c0.1,0.1,0.2,0.3,0.2,0.5
		c0,0.3-0.1,0.5-0.2,0.7C280.9,127.6,280.7,127.6,280.5,127.6z M281.5,136.9l1.7-7.9h1l-0.2,1.5h0c0.2-0.2,0.4-0.5,0.7-0.7
		c0.3-0.3,0.6-0.5,0.9-0.7c0.3-0.2,0.7-0.3,1.2-0.3c0.4,0,0.8,0.1,1.1,0.2s0.5,0.4,0.7,0.7c0.2,0.3,0.2,0.6,0.2,1.1
		c0,0.2,0,0.4,0,0.7c0,0.2-0.1,0.4-0.1,0.6l-1,4.8h-1.3l1.1-5c0-0.2,0.1-0.4,0.1-0.5c0-0.2,0-0.3,0-0.4c0-0.3-0.1-0.6-0.3-0.8
		c-0.2-0.2-0.4-0.3-0.8-0.3c-0.3,0-0.7,0.1-1.1,0.4c-0.4,0.2-0.7,0.6-1.1,1.1c-0.3,0.5-0.6,1.2-0.8,2l-0.7,3.5H281.5z M293.8,136.9
		l1.7-7.8h1l-0.2,1.5h0.1c0.2-0.3,0.4-0.5,0.6-0.8c0.2-0.3,0.5-0.5,0.8-0.6c0.3-0.2,0.6-0.2,1-0.2c0.1,0,0.3,0,0.4,0
		c0.2,0,0.3,0,0.4,0.1l-0.3,1.1c-0.1,0-0.2-0.1-0.4-0.1c-0.1,0-0.2,0-0.4,0c-0.4,0-0.7,0.1-1,0.3c-0.3,0.2-0.6,0.4-0.8,0.8
		c-0.2,0.3-0.4,0.7-0.6,1c-0.2,0.4-0.3,0.8-0.4,1.2l-0.8,3.6H293.8z M302.8,137c-0.6,0-1.1-0.1-1.5-0.4c-0.4-0.2-0.8-0.6-1-1
		c-0.2-0.4-0.3-1-0.3-1.6c0-0.5,0.1-1,0.2-1.5c0.1-0.5,0.3-0.9,0.5-1.4c0.2-0.4,0.5-0.8,0.8-1.2c0.3-0.3,0.7-0.6,1.1-0.8
		c0.4-0.2,0.9-0.3,1.4-0.3c0.6,0,1.1,0.1,1.5,0.4c0.4,0.2,0.8,0.6,1,1c0.2,0.4,0.4,1,0.4,1.6c0,0.5-0.1,1-0.2,1.5
		c-0.1,0.5-0.3,0.9-0.5,1.4c-0.2,0.4-0.5,0.8-0.8,1.1c-0.3,0.3-0.7,0.6-1.1,0.8C303.8,136.9,303.3,137,302.8,137z M302.9,136
		c0.3,0,0.6-0.1,0.8-0.2c0.3-0.1,0.5-0.3,0.7-0.5c0.2-0.2,0.4-0.5,0.6-0.9s0.3-0.7,0.4-1.2c0.1-0.4,0.1-0.9,0.1-1.4
		c0-0.3-0.1-0.6-0.2-0.9c-0.1-0.3-0.3-0.5-0.5-0.7c-0.2-0.2-0.6-0.3-1-0.3c-0.3,0-0.6,0.1-0.9,0.2c-0.3,0.1-0.5,0.3-0.8,0.6
		c-0.2,0.2-0.4,0.5-0.6,0.9s-0.3,0.7-0.4,1.1c-0.1,0.4-0.1,0.8-0.1,1.3c0,0.6,0.2,1.1,0.5,1.5C301.9,135.8,302.3,136,302.9,136z
		 M307.8,136.9l2.4-11.1h1.2l-2.4,11.1H307.8z M314.7,137c-0.6,0-1.1-0.1-1.5-0.3c-0.4-0.2-0.7-0.6-1-1c-0.2-0.4-0.3-1-0.3-1.6
		c0-0.6,0.1-1.3,0.3-1.9c0.2-0.6,0.4-1.2,0.8-1.7c0.3-0.5,0.8-0.9,1.2-1.2c0.5-0.3,1-0.5,1.6-0.5c0.7,0,1.3,0.2,1.6,0.5
		c0.4,0.3,0.6,0.8,0.6,1.3c0,0.4-0.1,0.8-0.3,1.1c-0.2,0.3-0.5,0.6-0.8,0.9c-0.4,0.2-0.9,0.4-1.4,0.6c-0.6,0.1-1.3,0.2-2.1,0.2h-0.3
		c0,0.1,0,0.2,0,0.3c0,0.1,0,0.2,0,0.3c0,0.6,0.2,1.1,0.5,1.5c0.3,0.4,0.8,0.5,1.4,0.5c0.4,0,0.7-0.1,1.1-0.2
		c0.3-0.1,0.7-0.3,1.1-0.4v1c-0.4,0.2-0.7,0.3-1.1,0.4C315.6,136.9,315.2,137,314.7,137z M313.3,132.5h0.2c0.6,0,1.2-0.1,1.7-0.2
		c0.5-0.1,0.9-0.3,1.2-0.5c0.3-0.2,0.5-0.6,0.5-1c0-0.3-0.1-0.5-0.3-0.7c-0.2-0.2-0.4-0.3-0.8-0.3c-0.3,0-0.7,0.1-1,0.3
		c-0.3,0.2-0.6,0.5-0.9,0.9C313.6,131.4,313.4,131.9,313.3,132.5z M317.3,139.2c0.5-0.6,1-1.2,1.5-1.8c0.4-0.6,0.8-1.3,1.1-2
		c0.3-0.7,0.6-1.5,0.7-2.2c0.2-0.8,0.3-1.6,0.3-2.5c0-0.6,0-1.1-0.1-1.6c-0.1-0.5-0.2-1-0.3-1.4c-0.1-0.4-0.3-0.9-0.5-1.3h0.9
		c0.2,0.4,0.4,0.8,0.6,1.3c0.2,0.4,0.3,0.9,0.3,1.4c0.1,0.5,0.1,1,0.1,1.5c0,0.9-0.1,1.7-0.2,2.5s-0.4,1.5-0.7,2.2
		c-0.3,0.7-0.7,1.4-1.1,2c-0.4,0.6-0.9,1.2-1.5,1.8H317.3z"/>
	<path class="st4" d="M118.9,174.1h224v41.6h-224L118.9,174.1z"/>
	<path class="st2" d="M211,191.6c1,0,1.8,0.1,2.4,0.4c0.6,0.2,1.1,0.6,1.4,1.1c0.3,0.5,0.5,1.1,0.5,1.9c0,0.6-0.1,1-0.3,1.4
		c-0.2,0.4-0.5,0.7-0.8,1c-0.3,0.3-0.7,0.5-1.1,0.6l3.2,5.1h-2.1l-2.8-4.6h-1.8v4.6h-1.9v-11.4H211z M210.8,193.2h-1.2v3.7h1.3
		c0.9,0,1.5-0.2,1.9-0.5c0.4-0.3,0.6-0.8,0.6-1.4c0-0.7-0.2-1.1-0.6-1.4C212.4,193.3,211.7,193.2,210.8,193.2z M228.1,197.3
		c0,0.9-0.1,1.7-0.3,2.4s-0.6,1.3-1,1.9c-0.4,0.5-1,0.9-1.7,1.2s-1.4,0.4-2.3,0.4c-0.9,0-1.7-0.1-2.4-0.4s-1.2-0.7-1.7-1.2
		c-0.4-0.5-0.8-1.1-1-1.9c-0.2-0.7-0.3-1.5-0.3-2.4c0-1.2,0.2-2.2,0.6-3.1c0.4-0.9,1-1.6,1.8-2c0.8-0.5,1.8-0.7,3-0.7
		c1.2,0,2.2,0.2,3,0.7c0.8,0.5,1.4,1.2,1.8,2C227.9,195.1,228.1,196.1,228.1,197.3z M219.4,197.3c0,0.9,0.1,1.7,0.4,2.3
		c0.2,0.6,0.6,1.1,1.1,1.5c0.5,0.3,1.1,0.5,1.9,0.5s1.4-0.2,1.9-0.5c0.5-0.4,0.9-0.8,1.1-1.5c0.2-0.6,0.4-1.4,0.4-2.3
		c0-1.3-0.3-2.4-0.8-3.1c-0.5-0.8-1.4-1.1-2.5-1.1c-0.8,0-1.4,0.2-1.9,0.5c-0.5,0.3-0.9,0.8-1.1,1.5
		C219.5,195.7,219.4,196.4,219.4,197.3z M230.6,203.1v-11.4h1.9v9.8h4.9v1.6H230.6z M245.7,203.1h-6.5v-11.4h6.5v1.6h-4.6v3.1h4.3
		v1.6h-4.3v3.6h4.6V203.1z M254.8,199.9c0,0.7-0.2,1.3-0.5,1.8c-0.3,0.5-0.8,0.9-1.4,1.1c-0.6,0.3-1.3,0.4-2.2,0.4
		c-0.4,0-0.8,0-1.2-0.1c-0.4,0-0.7-0.1-1.1-0.2s-0.6-0.2-0.9-0.3v-1.8c0.5,0.2,1,0.4,1.6,0.5c0.6,0.2,1.2,0.2,1.8,0.2
		c0.5,0,0.9-0.1,1.2-0.2c0.3-0.1,0.6-0.3,0.7-0.5c0.2-0.2,0.2-0.5,0.2-0.8c0-0.3-0.1-0.6-0.3-0.8c-0.2-0.2-0.5-0.5-0.8-0.7
		c-0.4-0.2-0.8-0.4-1.4-0.6c-0.4-0.2-0.7-0.3-1.1-0.5c-0.3-0.2-0.6-0.4-0.9-0.7c-0.3-0.3-0.5-0.6-0.6-0.9c-0.2-0.4-0.2-0.8-0.2-1.3
		c0-0.6,0.2-1.2,0.5-1.7c0.3-0.5,0.8-0.8,1.3-1c0.6-0.2,1.2-0.4,2-0.4c0.6,0,1.2,0.1,1.7,0.2s1.1,0.3,1.6,0.5l-0.6,1.5
		c-0.5-0.2-0.9-0.4-1.4-0.5c-0.4-0.1-0.9-0.2-1.3-0.2c-0.4,0-0.7,0.1-1,0.2c-0.3,0.1-0.5,0.3-0.6,0.5c-0.1,0.2-0.2,0.5-0.2,0.8
		c0,0.3,0.1,0.6,0.2,0.8c0.2,0.2,0.4,0.4,0.8,0.6c0.4,0.2,0.8,0.4,1.3,0.6c0.6,0.3,1.2,0.5,1.6,0.8c0.4,0.3,0.8,0.6,1,1
		C254.7,198.8,254.8,199.3,254.8,199.9z"/>
	<path class="st5" d="M126.3,241.4h80.8v41.3h-80.8V241.4z"/>
	<path class="st6" d="M126.3,241.4h80.8v41.3h-80.8V241.4z"/>
	<path class="st7" d="M150.9,253.4c0.9,0,1.5,0.2,1.9,0.5c0.4,0.3,0.6,0.8,0.6,1.4c0,0.3,0,0.6-0.1,0.8c-0.1,0.2-0.2,0.5-0.5,0.7
		c-0.2,0.2-0.5,0.3-0.8,0.5c-0.3,0.1-0.7,0.2-1.2,0.2H150v2.6h-0.8v-6.7H150.9z M150.8,254H150v2.7h0.7c0.4,0,0.8,0,1.1-0.1
		c0.3-0.1,0.5-0.2,0.6-0.4c0.1-0.2,0.2-0.5,0.2-0.8c0-0.4-0.1-0.8-0.4-1S151.5,254,150.8,254z M156.9,254.9c0.1,0,0.2,0,0.3,0
		c0.1,0,0.2,0,0.3,0l-0.1,0.7c-0.1,0-0.2,0-0.3,0c-0.1,0-0.2,0-0.3,0c-0.2,0-0.4,0-0.6,0.1c-0.2,0.1-0.3,0.2-0.5,0.3
		c-0.1,0.1-0.2,0.3-0.3,0.5c-0.1,0.2-0.1,0.4-0.1,0.7v2.7h-0.8v-5h0.6l0.1,0.9h0c0.1-0.2,0.2-0.3,0.4-0.5c0.1-0.2,0.3-0.3,0.5-0.4
		C156.5,255,156.7,254.9,156.9,254.9z M162.8,257.5c0,0.4-0.1,0.8-0.2,1.1s-0.3,0.6-0.5,0.8s-0.4,0.4-0.7,0.5
		c-0.3,0.1-0.6,0.2-1,0.2c-0.3,0-0.6-0.1-0.9-0.2c-0.3-0.1-0.5-0.3-0.7-0.5s-0.4-0.5-0.5-0.8s-0.2-0.7-0.2-1.1c0-0.6,0.1-1,0.3-1.4
		c0.2-0.4,0.5-0.7,0.8-0.9c0.3-0.2,0.8-0.3,1.2-0.3c0.4,0,0.8,0.1,1.2,0.3c0.3,0.2,0.6,0.5,0.8,0.9
		C162.7,256.5,162.8,257,162.8,257.5z M159,257.5c0,0.4,0.1,0.7,0.2,1c0.1,0.3,0.3,0.5,0.5,0.7c0.2,0.2,0.5,0.2,0.9,0.2
		c0.3,0,0.6-0.1,0.8-0.2c0.2-0.2,0.4-0.4,0.5-0.7c0.1-0.3,0.2-0.7,0.2-1c0-0.4-0.1-0.8-0.2-1c-0.1-0.3-0.3-0.5-0.5-0.7
		c-0.2-0.2-0.5-0.2-0.8-0.2c-0.5,0-0.9,0.2-1.2,0.5C159.1,256.4,159,256.9,159,257.5z M165.2,260l-1.9-5h0.8l1.1,3
		c0.1,0.2,0.2,0.4,0.2,0.7c0.1,0.2,0.1,0.4,0.2,0.6h0c0-0.2,0.1-0.4,0.2-0.6s0.2-0.5,0.2-0.7l1.1-3h0.8l-1.9,5H165.2z M169.5,255v5
		h-0.8v-5H169.5z M169.2,253.2c0.1,0,0.2,0,0.3,0.1c0.1,0.1,0.1,0.2,0.1,0.4c0,0.2,0,0.3-0.1,0.4c-0.1,0.1-0.2,0.1-0.3,0.1
		c-0.1,0-0.2,0-0.3-0.1c-0.1-0.1-0.1-0.2-0.1-0.4c0-0.2,0-0.3,0.1-0.4C168.9,253.2,169,253.2,169.2,253.2z M172.9,260.1
		c-0.6,0-1.1-0.2-1.5-0.6c-0.4-0.4-0.5-1.1-0.5-1.9s0.2-1.5,0.6-1.9c0.4-0.4,0.9-0.7,1.5-0.7c0.3,0,0.5,0,0.7,0.1
		c0.2,0.1,0.4,0.2,0.5,0.3c0.1,0.1,0.3,0.2,0.4,0.4h0c0-0.1,0-0.2,0-0.4c0-0.2,0-0.3,0-0.4v-2h0.8v7.1h-0.6l-0.1-0.7h0
		c-0.1,0.1-0.2,0.3-0.4,0.4c-0.1,0.1-0.3,0.2-0.5,0.3C173.4,260.1,173.2,260.1,172.9,260.1z M173,259.5c0.5,0,0.9-0.2,1.1-0.5
		c0.2-0.3,0.3-0.8,0.3-1.4v-0.1c0-0.6-0.1-1.1-0.3-1.5c-0.2-0.3-0.6-0.5-1.2-0.5c-0.5,0-0.8,0.2-1,0.5c-0.2,0.4-0.3,0.8-0.3,1.5
		c0,0.6,0.1,1.1,0.3,1.4C172.2,259.3,172.5,259.5,173,259.5z M178.7,254.9c0.4,0,0.8,0.1,1.1,0.3s0.5,0.5,0.7,0.8
		c0.2,0.3,0.2,0.7,0.2,1.2v0.5h-3.5c0,0.6,0.2,1,0.4,1.3s0.7,0.5,1.2,0.5c0.3,0,0.6,0,0.8-0.1c0.2-0.1,0.5-0.1,0.8-0.2v0.7
		c-0.2,0.1-0.5,0.2-0.8,0.2s-0.5,0.1-0.9,0.1c-0.5,0-0.9-0.1-1.3-0.3c-0.4-0.2-0.6-0.5-0.8-0.9c-0.2-0.4-0.3-0.8-0.3-1.4
		s0.1-1,0.3-1.4c0.2-0.4,0.4-0.7,0.8-0.9C177.9,255.1,178.3,254.9,178.7,254.9z M178.7,255.6c-0.4,0-0.7,0.1-1,0.4
		c-0.2,0.3-0.4,0.6-0.4,1.1h2.6c0-0.3,0-0.6-0.1-0.8c-0.1-0.2-0.2-0.4-0.4-0.5C179.3,255.6,179,255.6,178.7,255.6z M184.3,254.9
		c0.1,0,0.2,0,0.3,0c0.1,0,0.2,0,0.3,0l-0.1,0.7c-0.1,0-0.2,0-0.3,0c-0.1,0-0.2,0-0.3,0c-0.2,0-0.4,0-0.6,0.1
		c-0.2,0.1-0.3,0.2-0.5,0.3c-0.1,0.1-0.2,0.3-0.3,0.5c-0.1,0.2-0.1,0.4-0.1,0.7v2.7h-0.8v-5h0.6l0.1,0.9h0c0.1-0.2,0.2-0.3,0.4-0.5
		c0.1-0.2,0.3-0.3,0.5-0.4C183.9,255,184.1,254.9,184.3,254.9z"/>
	<path class="st7" d="M141.7,271l-0.8-2.1h-2.7l-0.8,2.1h-0.8l2.6-6.7h0.7l2.6,6.7H141.7z M140.6,268.2l-0.8-2.1
		c0-0.1,0-0.1-0.1-0.3s-0.1-0.2-0.1-0.4c0-0.1-0.1-0.2-0.1-0.3c0,0.1-0.1,0.2-0.1,0.4c0,0.1-0.1,0.2-0.1,0.3s-0.1,0.2-0.1,0.3
		l-0.8,2.1H140.6z M145.1,271.1c-0.6,0-1.1-0.2-1.5-0.6c-0.4-0.4-0.5-1.1-0.5-1.9s0.2-1.5,0.6-1.9c0.4-0.4,0.9-0.7,1.5-0.7
		c0.3,0,0.5,0,0.7,0.1c0.2,0.1,0.4,0.2,0.5,0.3c0.1,0.1,0.3,0.2,0.4,0.4h0c0-0.1,0-0.2,0-0.4s0-0.3,0-0.4v-2h0.8v7.1h-0.6l-0.1-0.7
		h0c-0.1,0.1-0.2,0.3-0.4,0.4c-0.1,0.1-0.3,0.2-0.5,0.3S145.3,271.1,145.1,271.1z M145.2,270.5c0.5,0,0.9-0.2,1.1-0.5
		c0.2-0.3,0.3-0.8,0.3-1.4v-0.1c0-0.6-0.1-1.1-0.3-1.5c-0.2-0.3-0.6-0.5-1.2-0.5c-0.5,0-0.8,0.2-1,0.5c-0.2,0.4-0.3,0.8-0.3,1.5
		c0,0.6,0.1,1.1,0.3,1.4C144.3,270.3,144.7,270.5,145.2,270.5z M154.4,265.9c0.6,0,1,0.1,1.2,0.4c0.3,0.3,0.4,0.7,0.4,1.4v3.3h-0.8
		v-3.2c0-0.4-0.1-0.7-0.3-0.9c-0.2-0.2-0.4-0.3-0.8-0.3c-0.5,0-0.8,0.1-1,0.4s-0.3,0.7-0.3,1.2v2.8h-0.8v-3.2c0-0.3,0-0.5-0.1-0.7
		c-0.1-0.2-0.2-0.3-0.3-0.4s-0.3-0.1-0.6-0.1c-0.3,0-0.6,0.1-0.8,0.2c-0.2,0.1-0.3,0.3-0.4,0.6c-0.1,0.3-0.1,0.6-0.1,1v2.6H149v-5
		h0.6l0.1,0.7h0c0.1-0.2,0.2-0.3,0.4-0.4c0.2-0.1,0.3-0.2,0.5-0.3c0.2-0.1,0.4-0.1,0.6-0.1c0.4,0,0.7,0.1,1,0.2
		c0.3,0.1,0.4,0.3,0.6,0.6h0c0.2-0.3,0.4-0.5,0.7-0.6C153.7,266,154.1,265.9,154.4,265.9z M158.4,266v5h-0.8v-5H158.4z M158,264.2
		c0.1,0,0.2,0,0.3,0.1c0.1,0.1,0.1,0.2,0.1,0.4c0,0.2,0,0.3-0.1,0.4c-0.1,0.1-0.2,0.1-0.3,0.1c-0.1,0-0.2,0-0.3-0.1
		c-0.1-0.1-0.1-0.2-0.1-0.4c0-0.2,0-0.3,0.1-0.4C157.8,264.2,157.9,264.2,158,264.2z M162.3,265.9c0.6,0,1,0.1,1.3,0.4
		c0.3,0.3,0.5,0.7,0.5,1.4v3.2h-0.7v-3.2c0-0.4-0.1-0.7-0.3-0.9c-0.2-0.2-0.5-0.3-0.9-0.3c-0.6,0-0.9,0.2-1.2,0.5
		c-0.2,0.3-0.3,0.8-0.3,1.4v2.6H160v-5h0.6l0.1,0.7h0c0.1-0.2,0.2-0.3,0.4-0.4c0.2-0.1,0.3-0.2,0.5-0.3
		C161.9,266,162.1,265.9,162.3,265.9z M166.4,266v5h-0.8v-5H166.4z M166.1,264.2c0.1,0,0.2,0,0.3,0.1c0.1,0.1,0.1,0.2,0.1,0.4
		c0,0.2,0,0.3-0.1,0.4c-0.1,0.1-0.2,0.1-0.3,0.1c-0.1,0-0.2,0-0.3-0.1s-0.1-0.2-0.1-0.4c0-0.2,0-0.3,0.1-0.4
		C165.8,264.2,165.9,264.2,166.1,264.2z M171.3,269.7c0,0.3-0.1,0.6-0.2,0.8c-0.2,0.2-0.4,0.4-0.7,0.5c-0.3,0.1-0.6,0.2-1,0.2
		c-0.4,0-0.7,0-0.9-0.1c-0.2-0.1-0.5-0.1-0.7-0.2v-0.7c0.2,0.1,0.5,0.2,0.7,0.3c0.3,0.1,0.6,0.1,0.9,0.1c0.4,0,0.7-0.1,0.9-0.2
		c0.2-0.1,0.3-0.3,0.3-0.6c0-0.1,0-0.3-0.1-0.4c-0.1-0.1-0.2-0.2-0.4-0.3c-0.2-0.1-0.4-0.2-0.8-0.3c-0.3-0.1-0.6-0.2-0.8-0.4
		c-0.2-0.1-0.4-0.3-0.5-0.4c-0.1-0.2-0.2-0.4-0.2-0.7c0-0.4,0.2-0.8,0.5-1c0.3-0.2,0.8-0.3,1.4-0.3c0.3,0,0.6,0,0.8,0.1
		c0.3,0.1,0.5,0.1,0.8,0.2l-0.3,0.6c-0.2-0.1-0.4-0.2-0.7-0.2c-0.2-0.1-0.5-0.1-0.7-0.1c-0.3,0-0.6,0.1-0.8,0.2s-0.3,0.3-0.3,0.5
		c0,0.2,0,0.3,0.1,0.4c0.1,0.1,0.2,0.2,0.4,0.3c0.2,0.1,0.4,0.2,0.8,0.3s0.6,0.2,0.8,0.4c0.2,0.1,0.4,0.3,0.5,0.5
		C171.2,269.2,171.3,269.4,171.3,269.7z M174.1,270.5c0.1,0,0.2,0,0.4,0c0.1,0,0.2,0,0.3-0.1v0.6c-0.1,0-0.2,0.1-0.4,0.1
		c-0.2,0-0.3,0-0.5,0c-0.3,0-0.5,0-0.7-0.1c-0.2-0.1-0.4-0.2-0.5-0.5c-0.1-0.2-0.2-0.5-0.2-0.9v-3h-0.7v-0.4l0.7-0.3l0.3-1.1h0.5
		v1.2h1.5v0.6h-1.5v2.9c0,0.3,0.1,0.5,0.2,0.7C173.7,270.4,173.9,270.5,174.1,270.5z M178.1,265.9c0.1,0,0.2,0,0.3,0
		c0.1,0,0.2,0,0.3,0l-0.1,0.7c-0.1,0-0.2,0-0.3,0c-0.1,0-0.2,0-0.3,0c-0.2,0-0.4,0-0.6,0.1c-0.2,0.1-0.3,0.2-0.5,0.3
		c-0.1,0.1-0.2,0.3-0.3,0.5c-0.1,0.2-0.1,0.4-0.1,0.7v2.7h-0.8v-5h0.6l0.1,0.9h0c0.1-0.2,0.2-0.3,0.4-0.5s0.3-0.3,0.5-0.4
		C177.6,266,177.8,265.9,178.1,265.9z M181.5,265.9c0.6,0,1,0.1,1.3,0.4c0.3,0.3,0.4,0.7,0.4,1.3v3.4h-0.5l-0.2-0.7h0
		c-0.1,0.2-0.3,0.3-0.4,0.5c-0.1,0.1-0.3,0.2-0.5,0.3c-0.2,0.1-0.4,0.1-0.7,0.1c-0.3,0-0.6-0.1-0.8-0.2c-0.2-0.1-0.4-0.3-0.6-0.5
		c-0.1-0.2-0.2-0.5-0.2-0.8c0-0.5,0.2-0.9,0.6-1.1c0.4-0.3,1-0.4,1.8-0.4l0.9,0v-0.3c0-0.4-0.1-0.7-0.3-0.9s-0.4-0.3-0.8-0.3
		c-0.3,0-0.5,0-0.8,0.1c-0.2,0.1-0.5,0.2-0.7,0.3l-0.2-0.6c0.2-0.1,0.5-0.2,0.8-0.3C180.9,266,181.2,265.9,181.5,265.9z
		 M182.5,268.6l-0.8,0c-0.6,0-1.1,0.1-1.3,0.3c-0.2,0.2-0.4,0.4-0.4,0.8c0,0.3,0.1,0.5,0.2,0.6c0.2,0.1,0.4,0.2,0.7,0.2
		c0.4,0,0.8-0.1,1.1-0.4c0.3-0.2,0.4-0.6,0.4-1.1V268.6z M186.4,270.5c0.1,0,0.2,0,0.4,0c0.1,0,0.2,0,0.3-0.1v0.6
		c-0.1,0-0.2,0.1-0.4,0.1c-0.2,0-0.3,0-0.5,0c-0.3,0-0.5,0-0.7-0.1c-0.2-0.1-0.4-0.2-0.5-0.5c-0.1-0.2-0.2-0.5-0.2-0.9v-3h-0.7v-0.4
		l0.7-0.3l0.3-1.1h0.5v1.2h1.5v0.6h-1.5v2.9c0,0.3,0.1,0.5,0.2,0.7C186,270.4,186.2,270.5,186.4,270.5z M192.4,268.5
		c0,0.4-0.1,0.8-0.2,1.1c-0.1,0.3-0.3,0.6-0.5,0.8c-0.2,0.2-0.4,0.4-0.7,0.5c-0.3,0.1-0.6,0.2-1,0.2c-0.3,0-0.6-0.1-0.9-0.2
		c-0.3-0.1-0.5-0.3-0.7-0.5c-0.2-0.2-0.4-0.5-0.5-0.8c-0.1-0.3-0.2-0.7-0.2-1.1c0-0.6,0.1-1,0.3-1.4s0.5-0.7,0.8-0.9
		s0.8-0.3,1.2-0.3c0.4,0,0.8,0.1,1.2,0.3c0.3,0.2,0.6,0.5,0.8,0.9C192.3,267.5,192.4,268,192.4,268.5z M188.6,268.5
		c0,0.4,0.1,0.7,0.2,1c0.1,0.3,0.3,0.5,0.5,0.7c0.2,0.2,0.5,0.2,0.9,0.2c0.3,0,0.6-0.1,0.8-0.2c0.2-0.2,0.4-0.4,0.5-0.7
		c0.1-0.3,0.2-0.7,0.2-1c0-0.4-0.1-0.8-0.2-1c-0.1-0.3-0.3-0.5-0.5-0.7c-0.2-0.2-0.5-0.2-0.8-0.2c-0.5,0-0.9,0.2-1.2,0.5
		C188.8,267.4,188.6,267.9,188.6,268.5z M196,265.9c0.1,0,0.2,0,0.3,0c0.1,0,0.2,0,0.3,0l-0.1,0.7c-0.1,0-0.2,0-0.3,0
		c-0.1,0-0.2,0-0.3,0c-0.2,0-0.4,0-0.6,0.1c-0.2,0.1-0.3,0.2-0.5,0.3c-0.1,0.1-0.2,0.3-0.3,0.5c-0.1,0.2-0.1,0.4-0.1,0.7v2.7h-0.8
		v-5h0.6l0.1,0.9h0c0.1-0.2,0.2-0.3,0.4-0.5c0.1-0.2,0.3-0.3,0.5-0.4C195.6,266,195.8,265.9,196,265.9z"/>
	<path class="st8" d="M142.3,343.1h80.8v41.3h-80.8V343.1z"/>
	<path class="st6" d="M142.3,343.1h80.8v41.3h-80.8V343.1z"/>
	<path class="st7" d="M161.4,352.9c0,0.5-0.1,1-0.2,1.4c-0.1,0.4-0.3,0.8-0.6,1.1c-0.2,0.3-0.6,0.5-1,0.7c-0.4,0.2-0.8,0.2-1.3,0.2
		c-0.5,0-1-0.1-1.4-0.2c-0.4-0.2-0.7-0.4-1-0.7c-0.2-0.3-0.4-0.7-0.6-1.1c-0.1-0.4-0.2-0.9-0.2-1.4c0-0.7,0.1-1.3,0.3-1.8
		c0.2-0.5,0.6-0.9,1-1.2c0.5-0.3,1-0.4,1.7-0.4c0.7,0,1.2,0.1,1.7,0.4c0.4,0.3,0.8,0.7,1,1.2C161.3,351.6,161.4,352.2,161.4,352.9z
		 M156.1,352.9c0,0.6,0.1,1.1,0.2,1.5c0.2,0.4,0.4,0.7,0.7,1c0.3,0.2,0.8,0.3,1.3,0.3c0.5,0,0.9-0.1,1.2-0.3c0.3-0.2,0.6-0.5,0.7-1
		c0.2-0.4,0.2-0.9,0.2-1.5c0-0.9-0.2-1.5-0.5-2c-0.4-0.5-0.9-0.7-1.7-0.7c-0.5,0-0.9,0.1-1.3,0.3c-0.3,0.2-0.6,0.5-0.8,1
		C156.2,351.9,156.1,352.4,156.1,352.9z M165,351.2c0.1,0,0.2,0,0.3,0c0.1,0,0.2,0,0.3,0l-0.1,0.7c-0.1,0-0.2,0-0.3,0
		c-0.1,0-0.2,0-0.3,0c-0.2,0-0.4,0-0.6,0.1c-0.2,0.1-0.3,0.2-0.5,0.3c-0.1,0.1-0.2,0.3-0.3,0.5c-0.1,0.2-0.1,0.4-0.1,0.7v2.7h-0.8
		v-5h0.6l0.1,0.9h0c0.1-0.2,0.2-0.3,0.4-0.5s0.3-0.3,0.5-0.4C164.6,351.2,164.8,351.2,165,351.2z M167.9,358.5
		c-0.7,0-1.2-0.1-1.5-0.4c-0.4-0.2-0.5-0.6-0.5-1c0-0.3,0.1-0.6,0.3-0.8c0.2-0.2,0.5-0.4,0.8-0.4c-0.1-0.1-0.2-0.2-0.3-0.3
		s-0.1-0.3-0.1-0.4c0-0.2,0-0.3,0.1-0.5c0.1-0.1,0.3-0.3,0.5-0.4c-0.3-0.1-0.5-0.3-0.6-0.5c-0.2-0.3-0.2-0.6-0.2-0.9
		c0-0.4,0.1-0.7,0.2-0.9c0.2-0.2,0.4-0.4,0.7-0.6c0.3-0.1,0.6-0.2,1-0.2c0.1,0,0.2,0,0.3,0c0.1,0,0.2,0,0.3,0c0.1,0,0.2,0,0.2,0h1.7
		v0.5l-0.9,0.1c0.1,0.1,0.2,0.3,0.2,0.4c0.1,0.2,0.1,0.3,0.1,0.5c0,0.5-0.2,0.9-0.5,1.2c-0.3,0.3-0.8,0.4-1.4,0.4
		c-0.1,0-0.3,0-0.4,0c-0.1,0.1-0.3,0.2-0.3,0.3c-0.1,0.1-0.1,0.2-0.1,0.3c0,0.1,0,0.2,0.1,0.2c0.1,0.1,0.2,0.1,0.3,0.1
		c0.1,0,0.2,0,0.4,0h0.9c0.5,0,1,0.1,1.2,0.3c0.3,0.2,0.4,0.6,0.4,1c0,0.6-0.2,1-0.7,1.3C169.5,358.4,168.8,358.5,167.9,358.5z
		 M168,357.9c0.4,0,0.7,0,1-0.1c0.3-0.1,0.5-0.2,0.6-0.4c0.1-0.2,0.2-0.3,0.2-0.5c0-0.2,0-0.3-0.1-0.5c-0.1-0.1-0.2-0.2-0.4-0.2
		c-0.2,0-0.4-0.1-0.6-0.1h-0.9c-0.2,0-0.4,0-0.6,0.1c-0.2,0.1-0.3,0.2-0.4,0.3c-0.1,0.1-0.1,0.3-0.1,0.5c0,0.3,0.1,0.5,0.3,0.6
		C167.2,357.8,167.6,357.9,168,357.9z M168.2,353.9c0.4,0,0.6-0.1,0.8-0.3c0.2-0.2,0.3-0.5,0.3-0.8c0-0.4-0.1-0.7-0.3-0.8
		s-0.5-0.3-0.8-0.3c-0.4,0-0.6,0.1-0.8,0.3c-0.2,0.2-0.3,0.5-0.3,0.8c0,0.3,0.1,0.6,0.3,0.8C167.6,353.8,167.8,353.9,168.2,353.9z
		 M173.5,351.2c0.6,0,1,0.1,1.3,0.4c0.3,0.3,0.4,0.7,0.4,1.3v3.4h-0.5l-0.2-0.7h0c-0.1,0.2-0.3,0.3-0.4,0.5
		c-0.1,0.1-0.3,0.2-0.5,0.3c-0.2,0.1-0.4,0.1-0.7,0.1c-0.3,0-0.6-0.1-0.8-0.2c-0.2-0.1-0.4-0.3-0.6-0.5c-0.1-0.2-0.2-0.5-0.2-0.8
		c0-0.5,0.2-0.9,0.6-1.1c0.4-0.3,1-0.4,1.8-0.4l0.9,0V353c0-0.4-0.1-0.7-0.3-0.9c-0.2-0.2-0.4-0.3-0.8-0.3c-0.3,0-0.5,0-0.8,0.1
		c-0.2,0.1-0.5,0.2-0.7,0.3l-0.2-0.6c0.2-0.1,0.5-0.2,0.8-0.3C172.9,351.2,173.2,351.2,173.5,351.2z M174.5,353.8l-0.8,0
		c-0.6,0-1.1,0.1-1.3,0.3c-0.2,0.2-0.4,0.4-0.4,0.8c0,0.3,0.1,0.5,0.2,0.6c0.2,0.1,0.4,0.2,0.7,0.2c0.4,0,0.8-0.1,1.1-0.4
		c0.3-0.2,0.4-0.6,0.4-1.1V353.8z M179.2,351.2c0.6,0,1,0.1,1.3,0.4c0.3,0.3,0.5,0.7,0.5,1.4v3.2h-0.7v-3.2c0-0.4-0.1-0.7-0.3-0.9
		c-0.2-0.2-0.5-0.3-0.9-0.3c-0.6,0-0.9,0.2-1.2,0.5c-0.2,0.3-0.3,0.8-0.3,1.4v2.6h-0.8v-5h0.6l0.1,0.7h0c0.1-0.2,0.2-0.3,0.4-0.4
		c0.2-0.1,0.3-0.2,0.5-0.3C178.7,351.2,178.9,351.2,179.2,351.2z M183.3,351.3v5h-0.8v-5H183.3z M182.9,349.4c0.1,0,0.2,0,0.3,0.1
		c0.1,0.1,0.1,0.2,0.1,0.4c0,0.2,0,0.3-0.1,0.4c-0.1,0.1-0.2,0.1-0.3,0.1c-0.1,0-0.2,0-0.3-0.1c-0.1-0.1-0.1-0.2-0.1-0.4
		c0-0.2,0-0.3,0.1-0.4C182.7,349.4,182.8,349.4,182.9,349.4z M188.1,356.3h-3.6v-0.5l2.8-3.9h-2.6v-0.6h3.4v0.5l-2.7,3.8h2.8V356.3z
		 M191.1,351.2c0.6,0,1,0.1,1.3,0.4c0.3,0.3,0.4,0.7,0.4,1.3v3.4h-0.5l-0.2-0.7h0c-0.1,0.2-0.3,0.3-0.4,0.5
		c-0.1,0.1-0.3,0.2-0.5,0.3c-0.2,0.1-0.4,0.1-0.7,0.1c-0.3,0-0.6-0.1-0.8-0.2c-0.2-0.1-0.4-0.3-0.6-0.5c-0.1-0.2-0.2-0.5-0.2-0.8
		c0-0.5,0.2-0.9,0.6-1.1c0.4-0.3,1-0.4,1.8-0.4l0.9,0V353c0-0.4-0.1-0.7-0.3-0.9c-0.2-0.2-0.4-0.3-0.8-0.3c-0.3,0-0.5,0-0.8,0.1
		c-0.2,0.1-0.5,0.2-0.7,0.3l-0.2-0.6c0.2-0.1,0.5-0.2,0.8-0.3C190.5,351.2,190.8,351.2,191.1,351.2z M192.1,353.8l-0.8,0
		c-0.6,0-1.1,0.1-1.3,0.3c-0.2,0.2-0.4,0.4-0.4,0.8c0,0.3,0.1,0.5,0.2,0.6c0.2,0.1,0.4,0.2,0.7,0.2c0.4,0,0.8-0.1,1.1-0.4
		c0.3-0.2,0.4-0.6,0.4-1.1V353.8z M196,355.7c0.1,0,0.3,0,0.4,0c0.1,0,0.2,0,0.3-0.1v0.6c-0.1,0-0.2,0.1-0.4,0.1c-0.2,0-0.3,0-0.5,0
		c-0.3,0-0.5,0-0.7-0.1c-0.2-0.1-0.4-0.2-0.5-0.5c-0.1-0.2-0.2-0.5-0.2-0.9v-3h-0.7v-0.4l0.7-0.3l0.3-1.1h0.5v1.2h1.5v0.6h-1.5v2.9
		c0,0.3,0.1,0.5,0.2,0.7C195.6,355.7,195.8,355.7,196,355.7z M198.5,351.3v5h-0.8v-5H198.5z M198.2,349.4c0.1,0,0.2,0,0.3,0.1
		c0.1,0.1,0.1,0.2,0.1,0.4c0,0.2,0,0.3-0.1,0.4c-0.1,0.1-0.2,0.1-0.3,0.1c-0.1,0-0.2,0-0.3-0.1c-0.1-0.1-0.1-0.2-0.1-0.4
		c0-0.2,0-0.3,0.1-0.4C197.9,349.4,198,349.4,198.2,349.4z M204.4,353.8c0,0.4-0.1,0.8-0.2,1.1c-0.1,0.3-0.3,0.6-0.5,0.8
		s-0.4,0.4-0.7,0.5c-0.3,0.1-0.6,0.2-1,0.2c-0.3,0-0.6-0.1-0.9-0.2c-0.3-0.1-0.5-0.3-0.7-0.5s-0.4-0.5-0.5-0.8
		c-0.1-0.3-0.2-0.7-0.2-1.1c0-0.6,0.1-1,0.3-1.4c0.2-0.4,0.5-0.7,0.8-0.9c0.3-0.2,0.8-0.3,1.2-0.3c0.4,0,0.8,0.1,1.2,0.3
		c0.3,0.2,0.6,0.5,0.8,0.9C204.3,352.7,204.4,353.2,204.4,353.8z M200.6,353.8c0,0.4,0.1,0.7,0.2,1c0.1,0.3,0.3,0.5,0.5,0.7
		c0.2,0.2,0.5,0.2,0.9,0.2c0.3,0,0.6-0.1,0.8-0.2c0.2-0.2,0.4-0.4,0.5-0.7c0.1-0.3,0.2-0.7,0.2-1c0-0.4-0.1-0.8-0.2-1
		c-0.1-0.3-0.3-0.5-0.5-0.7c-0.2-0.2-0.5-0.2-0.8-0.2c-0.5,0-0.9,0.2-1.2,0.5C200.7,352.7,200.6,353.1,200.6,353.8z M208.1,351.2
		c0.6,0,1,0.1,1.3,0.4c0.3,0.3,0.5,0.7,0.5,1.4v3.2h-0.7v-3.2c0-0.4-0.1-0.7-0.3-0.9c-0.2-0.2-0.5-0.3-0.9-0.3
		c-0.6,0-0.9,0.2-1.2,0.5c-0.2,0.3-0.3,0.8-0.3,1.4v2.6h-0.8v-5h0.6l0.1,0.7h0c0.1-0.2,0.2-0.3,0.4-0.4c0.2-0.1,0.3-0.2,0.5-0.3
		C207.7,351.2,207.9,351.2,208.1,351.2z"/>
	<path class="st7" d="M170.5,360.6h1.9c0.8,0,1.5,0.1,1.9,0.4c0.4,0.2,0.6,0.7,0.6,1.3c0,0.3-0.1,0.5-0.2,0.7
		c-0.1,0.2-0.2,0.4-0.4,0.5c-0.2,0.1-0.4,0.2-0.7,0.3v0c0.3,0,0.5,0.1,0.8,0.2c0.2,0.1,0.4,0.3,0.5,0.5s0.2,0.5,0.2,0.8
		c0,0.4-0.1,0.8-0.3,1s-0.5,0.5-0.8,0.6c-0.3,0.1-0.8,0.2-1.2,0.2h-2.3V360.6z M171.2,363.5h1.3c0.6,0,1-0.1,1.2-0.3
		c0.2-0.2,0.3-0.5,0.3-0.8c0-0.4-0.1-0.7-0.4-0.8c-0.3-0.2-0.7-0.2-1.3-0.2h-1.1V363.5z M171.2,364.1v2.5h1.4c0.6,0,1-0.1,1.3-0.3
		c0.2-0.2,0.4-0.6,0.4-1c0-0.2-0.1-0.5-0.2-0.6c-0.1-0.2-0.3-0.3-0.5-0.4c-0.2-0.1-0.6-0.2-1-0.2H171.2z M177.1,362.3v5h-0.8v-5
		H177.1z M176.8,360.4c0.1,0,0.2,0,0.3,0.1c0.1,0.1,0.1,0.2,0.1,0.4c0,0.2,0,0.3-0.1,0.4c-0.1,0.1-0.2,0.1-0.3,0.1
		c-0.1,0-0.2,0-0.3-0.1c-0.1-0.1-0.1-0.2-0.1-0.4c0-0.2,0-0.3,0.1-0.4C176.5,360.4,176.6,360.4,176.8,360.4z M179.5,367.3h-0.8v-7.1
		h0.8V367.3z M181.9,367.3h-0.8v-7.1h0.8V367.3z M184.2,362.3v5h-0.8v-5H184.2z M183.8,360.4c0.1,0,0.2,0,0.3,0.1
		c0.1,0.1,0.1,0.2,0.1,0.4c0,0.2,0,0.3-0.1,0.4c-0.1,0.1-0.2,0.1-0.3,0.1c-0.1,0-0.2,0-0.3-0.1c-0.1-0.1-0.1-0.2-0.1-0.4
		c0-0.2,0-0.3,0.1-0.4C183.6,360.4,183.7,360.4,183.8,360.4z M188.2,362.2c0.6,0,1,0.1,1.3,0.4c0.3,0.3,0.5,0.7,0.5,1.4v3.2h-0.7
		v-3.2c0-0.4-0.1-0.7-0.3-0.9c-0.2-0.2-0.5-0.3-0.9-0.3c-0.6,0-0.9,0.2-1.2,0.5c-0.2,0.3-0.3,0.8-0.3,1.4v2.6h-0.8v-5h0.6l0.1,0.7h0
		c0.1-0.2,0.2-0.3,0.4-0.4c0.2-0.1,0.3-0.2,0.5-0.3C187.7,362.2,187.9,362.2,188.2,362.2z M192.9,369.5c-0.7,0-1.2-0.1-1.5-0.4
		c-0.4-0.2-0.5-0.6-0.5-1c0-0.3,0.1-0.6,0.3-0.8c0.2-0.2,0.5-0.4,0.8-0.4c-0.1-0.1-0.2-0.2-0.3-0.3s-0.1-0.3-0.1-0.4
		c0-0.2,0-0.3,0.1-0.5c0.1-0.1,0.3-0.3,0.5-0.4c-0.3-0.1-0.5-0.3-0.6-0.5c-0.2-0.3-0.2-0.6-0.2-0.9c0-0.4,0.1-0.7,0.2-0.9
		c0.2-0.2,0.4-0.4,0.7-0.6c0.3-0.1,0.6-0.2,1-0.2c0.1,0,0.2,0,0.3,0c0.1,0,0.2,0,0.3,0c0.1,0,0.2,0,0.2,0h1.7v0.5l-0.9,0.1
		c0.1,0.1,0.2,0.3,0.2,0.4c0.1,0.2,0.1,0.3,0.1,0.5c0,0.5-0.2,0.9-0.5,1.2c-0.3,0.3-0.8,0.4-1.4,0.4c-0.1,0-0.3,0-0.4,0
		c-0.1,0.1-0.3,0.2-0.3,0.3c-0.1,0.1-0.1,0.2-0.1,0.3c0,0.1,0,0.2,0.1,0.2c0.1,0.1,0.2,0.1,0.3,0.1c0.1,0,0.2,0,0.4,0h0.9
		c0.5,0,1,0.1,1.2,0.3c0.3,0.2,0.4,0.6,0.4,1c0,0.6-0.2,1-0.7,1.3C194.4,369.4,193.8,369.5,192.9,369.5z M192.9,368.9
		c0.4,0,0.7,0,1-0.1c0.3-0.1,0.5-0.2,0.6-0.4c0.1-0.2,0.2-0.3,0.2-0.5c0-0.2,0-0.3-0.1-0.5c-0.1-0.1-0.2-0.2-0.4-0.2
		c-0.2,0-0.4-0.1-0.6-0.1h-0.9c-0.2,0-0.4,0-0.6,0.1c-0.2,0.1-0.3,0.2-0.4,0.3c-0.1,0.1-0.1,0.3-0.1,0.5c0,0.3,0.1,0.5,0.3,0.6
		C192.2,368.8,192.5,368.9,192.9,368.9z M193.1,364.9c0.4,0,0.6-0.1,0.8-0.3c0.2-0.2,0.3-0.5,0.3-0.8c0-0.4-0.1-0.7-0.3-0.8
		s-0.5-0.3-0.8-0.3c-0.4,0-0.6,0.1-0.8,0.3c-0.2,0.2-0.3,0.5-0.3,0.8c0,0.3,0.1,0.6,0.3,0.8C192.5,364.8,192.8,364.9,193.1,364.9z"
		/>
	<path class="st7" d="M167.2,378.3l-2.2-5.9h0c0,0.1,0,0.3,0,0.5c0,0.2,0,0.4,0,0.6c0,0.2,0,0.4,0,0.6v4.2h-0.7v-6.7h1.2l2.1,5.5h0
		l2.1-5.5h1.1v6.7h-0.8V374c0-0.2,0-0.4,0-0.6c0-0.2,0-0.4,0-0.6c0-0.2,0-0.3,0-0.5h0l-2.3,5.9H167.2z M174.4,373.2
		c0.6,0,1,0.1,1.3,0.4c0.3,0.3,0.4,0.7,0.4,1.3v3.4h-0.5l-0.2-0.7h0c-0.1,0.2-0.3,0.3-0.4,0.5c-0.1,0.1-0.3,0.2-0.5,0.3
		c-0.2,0.1-0.4,0.1-0.7,0.1c-0.3,0-0.6-0.1-0.8-0.2c-0.2-0.1-0.4-0.3-0.6-0.5c-0.1-0.2-0.2-0.5-0.2-0.8c0-0.5,0.2-0.9,0.6-1.1
		c0.4-0.3,1-0.4,1.8-0.4l0.9,0V375c0-0.4-0.1-0.7-0.3-0.9c-0.2-0.2-0.4-0.3-0.8-0.3c-0.3,0-0.5,0-0.8,0.1c-0.2,0.1-0.5,0.2-0.7,0.3
		l-0.2-0.6c0.2-0.1,0.5-0.2,0.8-0.3C173.8,373.2,174.1,373.2,174.4,373.2z M175.4,375.8l-0.8,0c-0.6,0-1.1,0.1-1.3,0.3
		c-0.2,0.2-0.4,0.4-0.4,0.8c0,0.3,0.1,0.5,0.2,0.6c0.2,0.1,0.4,0.2,0.7,0.2c0.4,0,0.8-0.1,1.1-0.4c0.3-0.2,0.4-0.6,0.4-1.1V375.8z
		 M180.1,373.2c0.6,0,1,0.1,1.3,0.4c0.3,0.3,0.5,0.7,0.5,1.4v3.2h-0.7v-3.2c0-0.4-0.1-0.7-0.3-0.9c-0.2-0.2-0.5-0.3-0.9-0.3
		c-0.6,0-0.9,0.2-1.2,0.5c-0.2,0.3-0.3,0.8-0.3,1.4v2.6h-0.8v-5h0.6l0.1,0.7h0c0.1-0.2,0.2-0.3,0.4-0.4c0.2-0.1,0.3-0.2,0.5-0.3
		C179.7,373.2,179.9,373.2,180.1,373.2z M185.3,373.2c0.6,0,1,0.1,1.3,0.4c0.3,0.3,0.4,0.7,0.4,1.3v3.4h-0.5l-0.2-0.7h0
		c-0.1,0.2-0.3,0.3-0.4,0.5c-0.1,0.1-0.3,0.2-0.5,0.3c-0.2,0.1-0.4,0.1-0.7,0.1c-0.3,0-0.6-0.1-0.8-0.2c-0.2-0.1-0.4-0.3-0.6-0.5
		c-0.1-0.2-0.2-0.5-0.2-0.8c0-0.5,0.2-0.9,0.6-1.1c0.4-0.3,1-0.4,1.8-0.4l0.9,0V375c0-0.4-0.1-0.7-0.3-0.9c-0.2-0.2-0.4-0.3-0.8-0.3
		c-0.3,0-0.5,0-0.8,0.1c-0.2,0.1-0.5,0.2-0.7,0.3l-0.2-0.6c0.2-0.1,0.5-0.2,0.8-0.3C184.7,373.2,185,373.2,185.3,373.2z
		 M186.3,375.8l-0.8,0c-0.6,0-1.1,0.1-1.3,0.3c-0.2,0.2-0.4,0.4-0.4,0.8c0,0.3,0.1,0.5,0.2,0.6c0.2,0.1,0.4,0.2,0.7,0.2
		c0.4,0,0.8-0.1,1.1-0.4c0.3-0.2,0.4-0.6,0.4-1.1V375.8z M190,380.5c-0.7,0-1.2-0.1-1.5-0.4c-0.4-0.2-0.5-0.6-0.5-1
		c0-0.3,0.1-0.6,0.3-0.8c0.2-0.2,0.5-0.4,0.8-0.4c-0.1-0.1-0.2-0.2-0.3-0.3s-0.1-0.3-0.1-0.4c0-0.2,0-0.3,0.1-0.5
		c0.1-0.1,0.3-0.3,0.5-0.4c-0.3-0.1-0.5-0.3-0.6-0.5c-0.2-0.3-0.2-0.6-0.2-0.9c0-0.4,0.1-0.7,0.2-0.9c0.2-0.2,0.4-0.4,0.7-0.6
		c0.3-0.1,0.6-0.2,1-0.2c0.1,0,0.2,0,0.3,0c0.1,0,0.2,0,0.3,0c0.1,0,0.2,0,0.2,0h1.7v0.5l-0.9,0.1c0.1,0.1,0.2,0.3,0.2,0.4
		c0.1,0.2,0.1,0.3,0.1,0.5c0,0.5-0.2,0.9-0.5,1.2c-0.3,0.3-0.8,0.4-1.4,0.4c-0.1,0-0.3,0-0.4,0c-0.1,0.1-0.3,0.2-0.3,0.3
		c-0.1,0.1-0.1,0.2-0.1,0.3c0,0.1,0,0.2,0.1,0.2c0.1,0.1,0.2,0.1,0.3,0.1c0.1,0,0.2,0,0.4,0h0.9c0.5,0,1,0.1,1.2,0.3
		c0.3,0.2,0.4,0.6,0.4,1c0,0.6-0.2,1-0.7,1.3C191.5,380.4,190.9,380.5,190,380.5z M190.1,379.9c0.4,0,0.7,0,1-0.1
		c0.3-0.1,0.5-0.2,0.6-0.4c0.1-0.2,0.2-0.3,0.2-0.5c0-0.2,0-0.3-0.1-0.5c-0.1-0.1-0.2-0.2-0.4-0.2c-0.2,0-0.4-0.1-0.6-0.1h-0.9
		c-0.2,0-0.4,0-0.6,0.1c-0.2,0.1-0.3,0.2-0.4,0.3c-0.1,0.1-0.1,0.3-0.1,0.5c0,0.3,0.1,0.5,0.3,0.6
		C189.3,379.8,189.6,379.9,190.1,379.9z M190.3,375.9c0.4,0,0.6-0.1,0.8-0.3c0.2-0.2,0.3-0.5,0.3-0.8c0-0.4-0.1-0.7-0.3-0.8
		s-0.5-0.3-0.8-0.3c-0.4,0-0.6,0.1-0.8,0.3c-0.2,0.2-0.3,0.5-0.3,0.8c0,0.3,0.1,0.6,0.3,0.8C189.7,375.8,189.9,375.9,190.3,375.9z
		 M195.6,373.2c0.4,0,0.8,0.1,1.1,0.3c0.3,0.2,0.5,0.5,0.7,0.8c0.2,0.3,0.2,0.7,0.2,1.2v0.5h-3.5c0,0.6,0.2,1,0.4,1.3
		c0.3,0.3,0.7,0.5,1.2,0.5c0.3,0,0.6,0,0.8-0.1c0.2-0.1,0.5-0.1,0.8-0.2v0.7c-0.2,0.1-0.5,0.2-0.8,0.2c-0.2,0.1-0.5,0.1-0.9,0.1
		c-0.5,0-0.9-0.1-1.3-0.3c-0.4-0.2-0.6-0.5-0.8-0.9c-0.2-0.4-0.3-0.8-0.3-1.4c0-0.5,0.1-1,0.3-1.4c0.2-0.4,0.4-0.7,0.8-0.9
		C194.8,373.3,195.2,373.2,195.6,373.2z M195.6,373.8c-0.4,0-0.7,0.1-1,0.4c-0.2,0.3-0.4,0.6-0.4,1.1h2.6c0-0.3,0-0.6-0.1-0.8
		c-0.1-0.2-0.2-0.4-0.4-0.5C196.1,373.9,195.9,373.8,195.6,373.8z M201.2,373.2c0.1,0,0.2,0,0.3,0c0.1,0,0.2,0,0.3,0l-0.1,0.7
		c-0.1,0-0.2,0-0.3,0c-0.1,0-0.2,0-0.3,0c-0.2,0-0.4,0-0.6,0.1c-0.2,0.1-0.3,0.2-0.5,0.3c-0.1,0.1-0.2,0.3-0.3,0.5
		c-0.1,0.2-0.1,0.4-0.1,0.7v2.7H199v-5h0.6l0.1,0.9h0c0.1-0.2,0.2-0.3,0.4-0.5s0.3-0.3,0.5-0.4C200.8,373.2,201,373.2,201.2,373.2z"
		/>
	<path class="st8" d="M150.3,444.9h80.8v41.3h-80.8V444.9z"/>
	<path class="st6" d="M150.3,444.9h80.8v41.3h-80.8V444.9z"/>
	<path class="st7" d="M181.5,463.5h-0.8v-6h-2.1v-0.7h5v0.7h-2.1V463.5z M186.4,458.4c0.4,0,0.8,0.1,1.1,0.3
		c0.3,0.2,0.5,0.5,0.7,0.8c0.2,0.3,0.2,0.7,0.2,1.2v0.5H185c0,0.6,0.2,1,0.4,1.3c0.3,0.3,0.7,0.5,1.2,0.5c0.3,0,0.6,0,0.8-0.1
		c0.2-0.1,0.5-0.1,0.8-0.2v0.7c-0.2,0.1-0.5,0.2-0.8,0.2c-0.2,0.1-0.5,0.1-0.9,0.1c-0.5,0-0.9-0.1-1.3-0.3c-0.4-0.2-0.6-0.5-0.8-0.9
		c-0.2-0.4-0.3-0.8-0.3-1.4c0-0.5,0.1-1,0.3-1.4c0.2-0.4,0.4-0.7,0.8-0.9C185.6,458.5,186,458.4,186.4,458.4z M186.4,459
		c-0.4,0-0.7,0.1-1,0.4c-0.2,0.3-0.4,0.6-0.4,1.1h2.6c0-0.3,0-0.6-0.1-0.8c-0.1-0.2-0.2-0.4-0.4-0.5
		C186.9,459.1,186.7,459,186.4,459z M191.6,458.4c0.6,0,1,0.1,1.3,0.4c0.3,0.3,0.4,0.7,0.4,1.3v3.4h-0.5l-0.2-0.7h0
		c-0.1,0.2-0.3,0.3-0.4,0.5c-0.1,0.1-0.3,0.2-0.5,0.3c-0.2,0.1-0.4,0.1-0.7,0.1c-0.3,0-0.6-0.1-0.8-0.2c-0.2-0.1-0.4-0.3-0.6-0.5
		c-0.1-0.2-0.2-0.5-0.2-0.8c0-0.5,0.2-0.9,0.6-1.1c0.4-0.3,1-0.4,1.8-0.4l0.9,0v-0.3c0-0.4-0.1-0.7-0.3-0.9
		c-0.2-0.2-0.4-0.3-0.8-0.3c-0.3,0-0.5,0-0.8,0.1c-0.2,0.1-0.5,0.2-0.7,0.3l-0.2-0.6c0.2-0.1,0.5-0.2,0.8-0.3
		C191,458.5,191.3,458.4,191.6,458.4z M192.6,461l-0.8,0c-0.6,0-1.1,0.1-1.3,0.3c-0.2,0.2-0.4,0.4-0.4,0.8c0,0.3,0.1,0.5,0.2,0.6
		c0.2,0.1,0.4,0.2,0.7,0.2c0.4,0,0.8-0.1,1.1-0.4c0.3-0.2,0.4-0.6,0.4-1.1V461z M200.4,458.4c0.6,0,1,0.1,1.2,0.4
		c0.3,0.3,0.4,0.7,0.4,1.4v3.3h-0.8v-3.2c0-0.4-0.1-0.7-0.3-0.9c-0.2-0.2-0.4-0.3-0.8-0.3c-0.5,0-0.8,0.1-1,0.4
		c-0.2,0.3-0.3,0.7-0.3,1.2v2.8h-0.8v-3.2c0-0.3,0-0.5-0.1-0.7c-0.1-0.2-0.2-0.3-0.3-0.4c-0.2-0.1-0.3-0.1-0.6-0.1
		c-0.3,0-0.6,0.1-0.8,0.2c-0.2,0.1-0.3,0.3-0.4,0.6c-0.1,0.3-0.1,0.6-0.1,1v2.6h-0.8v-5h0.6l0.1,0.7h0c0.1-0.2,0.2-0.3,0.4-0.4
		c0.2-0.1,0.3-0.2,0.5-0.3c0.2-0.1,0.4-0.1,0.6-0.1c0.4,0,0.7,0.1,1,0.2c0.3,0.1,0.4,0.3,0.6,0.6h0c0.2-0.3,0.4-0.5,0.7-0.6
		C199.7,458.5,200,458.4,200.4,458.4z"/>
	<path class="st7" d="M175.2,474.5l-2.2-5.9h0c0,0.1,0,0.3,0,0.5c0,0.2,0,0.4,0,0.6c0,0.2,0,0.4,0,0.6v4.2h-0.7v-6.7h1.2l2.1,5.5h0
		l2.1-5.5h1.1v6.7h-0.8v-4.3c0-0.2,0-0.4,0-0.6c0-0.2,0-0.4,0-0.6c0-0.2,0-0.3,0-0.5h0l-2.3,5.9H175.2z M182.4,469.4
		c0.6,0,1,0.1,1.3,0.4c0.3,0.3,0.4,0.7,0.4,1.3v3.4h-0.5l-0.2-0.7h0c-0.1,0.2-0.3,0.3-0.4,0.5c-0.1,0.1-0.3,0.2-0.5,0.3
		c-0.2,0.1-0.4,0.1-0.7,0.1c-0.3,0-0.6-0.1-0.8-0.2c-0.2-0.1-0.4-0.3-0.6-0.5c-0.1-0.2-0.2-0.5-0.2-0.8c0-0.5,0.2-0.9,0.6-1.1
		c0.4-0.3,1-0.4,1.8-0.4l0.9,0v-0.3c0-0.4-0.1-0.7-0.3-0.9c-0.2-0.2-0.4-0.3-0.8-0.3c-0.3,0-0.5,0-0.8,0.1c-0.2,0.1-0.5,0.2-0.7,0.3
		l-0.2-0.6c0.2-0.1,0.5-0.2,0.8-0.3C181.8,469.5,182.1,469.4,182.4,469.4z M183.4,472l-0.8,0c-0.6,0-1.1,0.1-1.3,0.3
		c-0.2,0.2-0.4,0.4-0.4,0.8c0,0.3,0.1,0.5,0.2,0.6c0.2,0.1,0.4,0.2,0.7,0.2c0.4,0,0.8-0.1,1.1-0.4c0.3-0.2,0.4-0.6,0.4-1.1V472z
		 M188.1,469.4c0.6,0,1,0.1,1.3,0.4c0.3,0.3,0.5,0.7,0.5,1.4v3.2h-0.7v-3.2c0-0.4-0.1-0.7-0.3-0.9c-0.2-0.2-0.5-0.3-0.9-0.3
		c-0.6,0-0.9,0.2-1.2,0.5c-0.2,0.3-0.3,0.8-0.3,1.4v2.6h-0.8v-5h0.6l0.1,0.7h0c0.1-0.2,0.2-0.3,0.4-0.4c0.2-0.1,0.3-0.2,0.5-0.3
		C187.7,469.5,187.9,469.4,188.1,469.4z M193.3,469.4c0.6,0,1,0.1,1.3,0.4c0.3,0.3,0.4,0.7,0.4,1.3v3.4h-0.5l-0.2-0.7h0
		c-0.1,0.2-0.3,0.3-0.4,0.5c-0.1,0.1-0.3,0.2-0.5,0.3c-0.2,0.1-0.4,0.1-0.7,0.1c-0.3,0-0.6-0.1-0.8-0.2c-0.2-0.1-0.4-0.3-0.6-0.5
		c-0.1-0.2-0.2-0.5-0.2-0.8c0-0.5,0.2-0.9,0.6-1.1c0.4-0.3,1-0.4,1.8-0.4l0.9,0v-0.3c0-0.4-0.1-0.7-0.3-0.9
		c-0.2-0.2-0.4-0.3-0.8-0.3c-0.3,0-0.5,0-0.8,0.1c-0.2,0.1-0.5,0.2-0.7,0.3l-0.2-0.6c0.2-0.1,0.5-0.2,0.8-0.3
		C192.7,469.5,193,469.4,193.3,469.4z M194.3,472l-0.8,0c-0.6,0-1.1,0.1-1.3,0.3c-0.2,0.2-0.4,0.4-0.4,0.8c0,0.3,0.1,0.5,0.2,0.6
		c0.2,0.1,0.4,0.2,0.7,0.2c0.4,0,0.8-0.1,1.1-0.4c0.3-0.2,0.4-0.6,0.4-1.1V472z M198,476.7c-0.7,0-1.2-0.1-1.5-0.4
		c-0.4-0.2-0.5-0.6-0.5-1c0-0.3,0.1-0.6,0.3-0.8c0.2-0.2,0.5-0.4,0.8-0.4c-0.1-0.1-0.2-0.2-0.3-0.3c-0.1-0.1-0.1-0.3-0.1-0.4
		c0-0.2,0-0.3,0.1-0.5c0.1-0.1,0.3-0.3,0.5-0.4c-0.3-0.1-0.5-0.3-0.6-0.5c-0.2-0.3-0.2-0.6-0.2-0.9c0-0.4,0.1-0.7,0.2-0.9
		c0.2-0.2,0.4-0.4,0.7-0.6c0.3-0.1,0.6-0.2,1-0.2c0.1,0,0.2,0,0.3,0c0.1,0,0.2,0,0.3,0c0.1,0,0.2,0,0.2,0h1.7v0.5l-0.9,0.1
		c0.1,0.1,0.2,0.3,0.2,0.4c0.1,0.2,0.1,0.3,0.1,0.5c0,0.5-0.2,0.9-0.5,1.2c-0.3,0.3-0.8,0.4-1.4,0.4c-0.1,0-0.3,0-0.4,0
		c-0.1,0.1-0.3,0.2-0.3,0.3c-0.1,0.1-0.1,0.2-0.1,0.3c0,0.1,0,0.2,0.1,0.2c0.1,0.1,0.2,0.1,0.3,0.1c0.1,0,0.2,0,0.4,0h0.9
		c0.5,0,1,0.1,1.2,0.3c0.3,0.2,0.4,0.6,0.4,1c0,0.6-0.2,1-0.7,1.3C199.5,476.6,198.9,476.7,198,476.7z M198.1,476.2
		c0.4,0,0.7,0,1-0.1c0.3-0.1,0.5-0.2,0.6-0.4c0.1-0.2,0.2-0.3,0.2-0.5c0-0.2,0-0.3-0.1-0.5c-0.1-0.1-0.2-0.2-0.4-0.2
		c-0.2,0-0.4-0.1-0.6-0.1h-0.9c-0.2,0-0.4,0-0.6,0.1c-0.2,0.1-0.3,0.2-0.4,0.3c-0.1,0.1-0.1,0.3-0.1,0.5c0,0.3,0.1,0.5,0.3,0.6
		C197.3,476.1,197.6,476.2,198.1,476.2z M198.3,472.2c0.4,0,0.6-0.1,0.8-0.3c0.2-0.2,0.3-0.5,0.3-0.8c0-0.4-0.1-0.7-0.3-0.8
		c-0.2-0.2-0.5-0.3-0.8-0.3c-0.4,0-0.6,0.1-0.8,0.3c-0.2,0.2-0.3,0.5-0.3,0.8c0,0.3,0.1,0.6,0.3,0.8
		C197.7,472.1,197.9,472.2,198.3,472.2z M203.6,469.4c0.4,0,0.8,0.1,1.1,0.3c0.3,0.2,0.5,0.5,0.7,0.8c0.2,0.3,0.2,0.7,0.2,1.2v0.5
		h-3.5c0,0.6,0.2,1,0.4,1.3c0.3,0.3,0.7,0.5,1.2,0.5c0.3,0,0.6,0,0.8-0.1c0.2-0.1,0.5-0.1,0.8-0.2v0.7c-0.2,0.1-0.5,0.2-0.8,0.2
		c-0.2,0.1-0.5,0.1-0.9,0.1c-0.5,0-0.9-0.1-1.3-0.3c-0.4-0.2-0.6-0.5-0.8-0.9c-0.2-0.4-0.3-0.8-0.3-1.4c0-0.5,0.1-1,0.3-1.4
		c0.2-0.4,0.4-0.7,0.8-0.9C202.8,469.5,203.2,469.4,203.6,469.4z M203.6,470c-0.4,0-0.7,0.1-1,0.4c-0.2,0.3-0.4,0.6-0.4,1.1h2.6
		c0-0.3,0-0.6-0.1-0.8c-0.1-0.2-0.2-0.4-0.4-0.5C204.1,470.1,203.9,470,203.6,470z M209.2,469.4c0.1,0,0.2,0,0.3,0
		c0.1,0,0.2,0,0.3,0l-0.1,0.7c-0.1,0-0.2,0-0.3,0c-0.1,0-0.2,0-0.3,0c-0.2,0-0.4,0-0.6,0.1c-0.2,0.1-0.3,0.2-0.5,0.3
		c-0.1,0.1-0.2,0.3-0.3,0.5c-0.1,0.2-0.1,0.4-0.1,0.7v2.7H207v-5h0.6l0.1,0.9h0c0.1-0.2,0.2-0.3,0.4-0.5c0.1-0.2,0.3-0.3,0.5-0.4
		C208.8,469.5,209,469.4,209.2,469.4z"/>
	<path class="st1" d="M126.3,262.1h-25V313h41"/>
	<path class="st6" d="M126.3,262.1h-25V313h41"/>
	<path class="st1" d="M142.3,313h-25v50.8h25.1"/>
	<path class="st6" d="M142.3,313h-25v50.8h25.1"/>
	<path class="st1" d="M142.3,363.8h-25v50.9h33"/>
	<path class="st6" d="M142.3,363.8h-25v50.9h33"/>
	<path class="st1" d="M150.3,414.7h-25v50.9h25.1"/>
	<path class="st6" d="M150.3,414.7h-25v50.9h25.1"/>
	<path class="st8" d="M142.3,292.3h80.8v41.3h-80.8V292.3z"/>
	<path class="st6" d="M142.3,292.3h80.8v41.3h-80.8V292.3z"/>
	<path class="st7" d="M161.4,307.6c0,0.5-0.1,1-0.2,1.4c-0.1,0.4-0.3,0.8-0.6,1.1c-0.2,0.3-0.6,0.5-1,0.7c-0.4,0.2-0.8,0.2-1.3,0.2
		c-0.5,0-1-0.1-1.4-0.2c-0.4-0.2-0.7-0.4-1-0.7c-0.2-0.3-0.4-0.7-0.6-1.1c-0.1-0.4-0.2-0.9-0.2-1.4c0-0.7,0.1-1.3,0.3-1.8
		c0.2-0.5,0.6-0.9,1-1.2c0.5-0.3,1-0.4,1.7-0.4c0.7,0,1.2,0.1,1.7,0.4c0.4,0.3,0.8,0.7,1,1.2C161.3,306.3,161.4,306.9,161.4,307.6z
		 M156.1,307.6c0,0.6,0.1,1.1,0.2,1.5c0.2,0.4,0.4,0.7,0.7,1c0.3,0.2,0.8,0.3,1.3,0.3c0.5,0,0.9-0.1,1.2-0.3c0.3-0.2,0.6-0.5,0.7-1
		c0.2-0.4,0.2-0.9,0.2-1.5c0-0.9-0.2-1.5-0.5-2c-0.4-0.5-0.9-0.7-1.7-0.7c-0.5,0-0.9,0.1-1.3,0.3c-0.3,0.2-0.6,0.5-0.8,1
		C156.2,306.5,156.1,307,156.1,307.6z M165,305.8c0.1,0,0.2,0,0.3,0c0.1,0,0.2,0,0.3,0l-0.1,0.7c-0.1,0-0.2,0-0.3,0
		c-0.1,0-0.2,0-0.3,0c-0.2,0-0.4,0-0.6,0.1c-0.2,0.1-0.3,0.2-0.5,0.3c-0.1,0.1-0.2,0.3-0.3,0.5c-0.1,0.2-0.1,0.4-0.1,0.7v2.7h-0.8
		v-5h0.6l0.1,0.9h0c0.1-0.2,0.2-0.3,0.4-0.5s0.3-0.3,0.5-0.4C164.6,305.9,164.8,305.8,165,305.8z M167.9,313.2
		c-0.7,0-1.2-0.1-1.5-0.4c-0.4-0.2-0.5-0.6-0.5-1c0-0.3,0.1-0.6,0.3-0.8c0.2-0.2,0.5-0.4,0.8-0.4c-0.1-0.1-0.2-0.2-0.3-0.3
		s-0.1-0.3-0.1-0.4c0-0.2,0-0.3,0.1-0.5c0.1-0.1,0.3-0.3,0.5-0.4c-0.3-0.1-0.5-0.3-0.6-0.5c-0.2-0.3-0.2-0.6-0.2-0.9
		c0-0.4,0.1-0.7,0.2-0.9c0.2-0.2,0.4-0.4,0.7-0.6c0.3-0.1,0.6-0.2,1-0.2c0.1,0,0.2,0,0.3,0c0.1,0,0.2,0,0.3,0c0.1,0,0.2,0,0.2,0h1.7
		v0.5l-0.9,0.1c0.1,0.1,0.2,0.3,0.2,0.4c0.1,0.2,0.1,0.3,0.1,0.5c0,0.5-0.2,0.9-0.5,1.2c-0.3,0.3-0.8,0.4-1.4,0.4
		c-0.1,0-0.3,0-0.4,0c-0.1,0.1-0.3,0.2-0.3,0.3c-0.1,0.1-0.1,0.2-0.1,0.3c0,0.1,0,0.2,0.1,0.2c0.1,0.1,0.2,0.1,0.3,0.1
		c0.1,0,0.2,0,0.4,0h0.9c0.5,0,1,0.1,1.2,0.3c0.3,0.2,0.4,0.6,0.4,1c0,0.6-0.2,1-0.7,1.3C169.5,313,168.8,313.2,167.9,313.2z
		 M168,312.6c0.4,0,0.7,0,1-0.1c0.3-0.1,0.5-0.2,0.6-0.4c0.1-0.2,0.2-0.3,0.2-0.5c0-0.2,0-0.3-0.1-0.5c-0.1-0.1-0.2-0.2-0.4-0.2
		c-0.2,0-0.4-0.1-0.6-0.1h-0.9c-0.2,0-0.4,0-0.6,0.1c-0.2,0.1-0.3,0.2-0.4,0.3c-0.1,0.1-0.1,0.3-0.1,0.5c0,0.3,0.1,0.5,0.3,0.6
		C167.2,312.5,167.6,312.6,168,312.6z M168.2,308.6c0.4,0,0.6-0.1,0.8-0.3c0.2-0.2,0.3-0.5,0.3-0.8c0-0.4-0.1-0.7-0.3-0.8
		s-0.5-0.3-0.8-0.3c-0.4,0-0.6,0.1-0.8,0.3c-0.2,0.2-0.3,0.5-0.3,0.8c0,0.3,0.1,0.6,0.3,0.8C167.6,308.5,167.8,308.6,168.2,308.6z
		 M173.5,305.8c0.6,0,1,0.1,1.3,0.4c0.3,0.3,0.4,0.7,0.4,1.3v3.4h-0.5l-0.2-0.7h0c-0.1,0.2-0.3,0.3-0.4,0.5
		c-0.1,0.1-0.3,0.2-0.5,0.3c-0.2,0.1-0.4,0.1-0.7,0.1c-0.3,0-0.6-0.1-0.8-0.2c-0.2-0.1-0.4-0.3-0.6-0.5c-0.1-0.2-0.2-0.5-0.2-0.8
		c0-0.5,0.2-0.9,0.6-1.1c0.4-0.3,1-0.4,1.8-0.4l0.9,0v-0.3c0-0.4-0.1-0.7-0.3-0.9c-0.2-0.2-0.4-0.3-0.8-0.3c-0.3,0-0.5,0-0.8,0.1
		c-0.2,0.1-0.5,0.2-0.7,0.3l-0.2-0.6c0.2-0.1,0.5-0.2,0.8-0.3C172.9,305.9,173.2,305.8,173.5,305.8z M174.5,308.5l-0.8,0
		c-0.6,0-1.1,0.1-1.3,0.3c-0.2,0.2-0.4,0.4-0.4,0.8c0,0.3,0.1,0.5,0.2,0.6c0.2,0.1,0.4,0.2,0.7,0.2c0.4,0,0.8-0.1,1.1-0.4
		c0.3-0.2,0.4-0.6,0.4-1.1V308.5z M179.2,305.8c0.6,0,1,0.1,1.3,0.4c0.3,0.3,0.5,0.7,0.5,1.4v3.2h-0.7v-3.2c0-0.4-0.1-0.7-0.3-0.9
		c-0.2-0.2-0.5-0.3-0.9-0.3c-0.6,0-0.9,0.2-1.2,0.5c-0.2,0.3-0.3,0.8-0.3,1.4v2.6h-0.8v-5h0.6l0.1,0.7h0c0.1-0.2,0.2-0.3,0.4-0.4
		c0.2-0.1,0.3-0.2,0.5-0.3C178.7,305.9,178.9,305.8,179.2,305.8z M183.3,305.9v5h-0.8v-5H183.3z M182.9,304.1c0.1,0,0.2,0,0.3,0.1
		c0.1,0.1,0.1,0.2,0.1,0.4c0,0.2,0,0.3-0.1,0.4c-0.1,0.1-0.2,0.1-0.3,0.1c-0.1,0-0.2,0-0.3-0.1c-0.1-0.1-0.1-0.2-0.1-0.4
		c0-0.2,0-0.3,0.1-0.4C182.7,304.1,182.8,304.1,182.9,304.1z M188.1,310.9h-3.6v-0.5l2.8-3.9h-2.6v-0.6h3.4v0.5l-2.7,3.8h2.8V310.9z
		 M191.1,305.8c0.6,0,1,0.1,1.3,0.4c0.3,0.3,0.4,0.7,0.4,1.3v3.4h-0.5l-0.2-0.7h0c-0.1,0.2-0.3,0.3-0.4,0.5
		c-0.1,0.1-0.3,0.2-0.5,0.3c-0.2,0.1-0.4,0.1-0.7,0.1c-0.3,0-0.6-0.1-0.8-0.2c-0.2-0.1-0.4-0.3-0.6-0.5c-0.1-0.2-0.2-0.5-0.2-0.8
		c0-0.5,0.2-0.9,0.6-1.1c0.4-0.3,1-0.4,1.8-0.4l0.9,0v-0.3c0-0.4-0.1-0.7-0.3-0.9c-0.2-0.2-0.4-0.3-0.8-0.3c-0.3,0-0.5,0-0.8,0.1
		c-0.2,0.1-0.5,0.2-0.7,0.3l-0.2-0.6c0.2-0.1,0.5-0.2,0.8-0.3C190.5,305.9,190.8,305.8,191.1,305.8z M192.1,308.5l-0.8,0
		c-0.6,0-1.1,0.1-1.3,0.3c-0.2,0.2-0.4,0.4-0.4,0.8c0,0.3,0.1,0.5,0.2,0.6c0.2,0.1,0.4,0.2,0.7,0.2c0.4,0,0.8-0.1,1.1-0.4
		c0.3-0.2,0.4-0.6,0.4-1.1V308.5z M196,310.4c0.1,0,0.3,0,0.4,0c0.1,0,0.2,0,0.3-0.1v0.6c-0.1,0-0.2,0.1-0.4,0.1c-0.2,0-0.3,0-0.5,0
		c-0.3,0-0.5,0-0.7-0.1c-0.2-0.1-0.4-0.2-0.5-0.5c-0.1-0.2-0.2-0.5-0.2-0.9v-3h-0.7v-0.4l0.7-0.3l0.3-1.1h0.5v1.2h1.5v0.6h-1.5v2.9
		c0,0.3,0.1,0.5,0.2,0.7C195.6,310.3,195.8,310.4,196,310.4z M198.5,305.9v5h-0.8v-5H198.5z M198.2,304.1c0.1,0,0.2,0,0.3,0.1
		c0.1,0.1,0.1,0.2,0.1,0.4c0,0.2,0,0.3-0.1,0.4c-0.1,0.1-0.2,0.1-0.3,0.1c-0.1,0-0.2,0-0.3-0.1c-0.1-0.1-0.1-0.2-0.1-0.4
		c0-0.2,0-0.3,0.1-0.4C197.9,304.1,198,304.1,198.2,304.1z M204.4,308.4c0,0.4-0.1,0.8-0.2,1.1c-0.1,0.3-0.3,0.6-0.5,0.8
		s-0.4,0.4-0.7,0.5c-0.3,0.1-0.6,0.2-1,0.2c-0.3,0-0.6-0.1-0.9-0.2c-0.3-0.1-0.5-0.3-0.7-0.5s-0.4-0.5-0.5-0.8
		c-0.1-0.3-0.2-0.7-0.2-1.1c0-0.6,0.1-1,0.3-1.4c0.2-0.4,0.5-0.7,0.8-0.9c0.3-0.2,0.8-0.3,1.2-0.3c0.4,0,0.8,0.1,1.2,0.3
		c0.3,0.2,0.6,0.5,0.8,0.9C204.3,307.4,204.4,307.9,204.4,308.4z M200.6,308.4c0,0.4,0.1,0.7,0.2,1c0.1,0.3,0.3,0.5,0.5,0.7
		c0.2,0.2,0.5,0.2,0.9,0.2c0.3,0,0.6-0.1,0.8-0.2c0.2-0.2,0.4-0.4,0.5-0.7c0.1-0.3,0.2-0.7,0.2-1c0-0.4-0.1-0.8-0.2-1
		c-0.1-0.3-0.3-0.5-0.5-0.7c-0.2-0.2-0.5-0.2-0.8-0.2c-0.5,0-0.9,0.2-1.2,0.5C200.7,307.3,200.6,307.8,200.6,308.4z M208.1,305.8
		c0.6,0,1,0.1,1.3,0.4c0.3,0.3,0.5,0.7,0.5,1.4v3.2h-0.7v-3.2c0-0.4-0.1-0.7-0.3-0.9c-0.2-0.2-0.5-0.3-0.9-0.3
		c-0.6,0-0.9,0.2-1.2,0.5c-0.2,0.3-0.3,0.8-0.3,1.4v2.6h-0.8v-5h0.6l0.1,0.7h0c0.1-0.2,0.2-0.3,0.4-0.4c0.2-0.1,0.3-0.2,0.5-0.3
		C207.7,305.9,207.9,305.8,208.1,305.8z"/>
	<path class="st7" d="M157.7,321.9l-0.8-2.1h-2.7l-0.8,2.1h-0.8l2.6-6.7h0.7l2.6,6.7H157.7z M156.6,319.1l-0.8-2.1
		c0-0.1,0-0.1-0.1-0.3s-0.1-0.2-0.1-0.4c0-0.1-0.1-0.2-0.1-0.3c0,0.1-0.1,0.2-0.1,0.4c0,0.1-0.1,0.2-0.1,0.3c0,0.1-0.1,0.2-0.1,0.3
		l-0.8,2.1H156.6z M161.1,322c-0.6,0-1.1-0.2-1.5-0.6c-0.4-0.4-0.5-1.1-0.5-1.9c0-0.9,0.2-1.5,0.6-1.9c0.4-0.4,0.9-0.7,1.5-0.7
		c0.3,0,0.5,0,0.7,0.1c0.2,0.1,0.4,0.2,0.5,0.3c0.1,0.1,0.3,0.2,0.4,0.4h0c0-0.1,0-0.2,0-0.4c0-0.2,0-0.3,0-0.4v-2h0.8v7.1h-0.6
		l-0.1-0.7h0c-0.1,0.1-0.2,0.3-0.4,0.4c-0.1,0.1-0.3,0.2-0.5,0.3C161.6,322,161.3,322,161.1,322z M161.2,321.4
		c0.5,0,0.9-0.2,1.1-0.5c0.2-0.3,0.3-0.8,0.3-1.4v-0.1c0-0.6-0.1-1.1-0.3-1.5c-0.2-0.3-0.6-0.5-1.2-0.5c-0.5,0-0.8,0.2-1,0.5
		c-0.2,0.4-0.3,0.8-0.3,1.5c0,0.6,0.1,1.1,0.3,1.4C160.3,321.2,160.7,321.4,161.2,321.4z M170.4,316.8c0.6,0,1,0.1,1.2,0.4
		c0.3,0.3,0.4,0.7,0.4,1.4v3.3h-0.8v-3.2c0-0.4-0.1-0.7-0.3-0.9c-0.2-0.2-0.4-0.3-0.8-0.3c-0.5,0-0.8,0.1-1,0.4s-0.3,0.7-0.3,1.2
		v2.8h-0.8v-3.2c0-0.3,0-0.5-0.1-0.7c-0.1-0.2-0.2-0.3-0.3-0.4s-0.3-0.1-0.6-0.1c-0.3,0-0.6,0.1-0.8,0.2c-0.2,0.1-0.3,0.3-0.4,0.6
		c-0.1,0.3-0.1,0.6-0.1,1v2.6H165v-5h0.6l0.1,0.7h0c0.1-0.2,0.2-0.3,0.4-0.4c0.2-0.1,0.3-0.2,0.5-0.3c0.2-0.1,0.4-0.1,0.6-0.1
		c0.4,0,0.7,0.1,1,0.2c0.3,0.1,0.4,0.3,0.6,0.6h0c0.2-0.3,0.4-0.5,0.7-0.6C169.7,316.9,170.1,316.8,170.4,316.8z M174.4,316.9v5
		h-0.8v-5H174.4z M174,315.1c0.1,0,0.2,0,0.3,0.1c0.1,0.1,0.1,0.2,0.1,0.4c0,0.2,0,0.3-0.1,0.4c-0.1,0.1-0.2,0.1-0.3,0.1
		c-0.1,0-0.2,0-0.3-0.1c-0.1-0.1-0.1-0.2-0.1-0.4c0-0.2,0-0.3,0.1-0.4C173.8,315.1,173.9,315.1,174,315.1z M178.3,316.8
		c0.6,0,1,0.1,1.3,0.4c0.3,0.3,0.5,0.7,0.5,1.4v3.2h-0.7v-3.2c0-0.4-0.1-0.7-0.3-0.9c-0.2-0.2-0.5-0.3-0.9-0.3
		c-0.6,0-0.9,0.2-1.2,0.5c-0.2,0.3-0.3,0.8-0.3,1.4v2.6H176v-5h0.6l0.1,0.7h0c0.1-0.2,0.2-0.3,0.4-0.4c0.2-0.1,0.3-0.2,0.5-0.3
		C177.9,316.9,178.1,316.8,178.3,316.8z M182.4,316.9v5h-0.8v-5H182.4z M182.1,315.1c0.1,0,0.2,0,0.3,0.1c0.1,0.1,0.1,0.2,0.1,0.4
		c0,0.2,0,0.3-0.1,0.4c-0.1,0.1-0.2,0.1-0.3,0.1c-0.1,0-0.2,0-0.3-0.1c-0.1-0.1-0.1-0.2-0.1-0.4c0-0.2,0-0.3,0.1-0.4
		C181.8,315.1,181.9,315.1,182.1,315.1z M187.3,320.6c0,0.3-0.1,0.6-0.2,0.8c-0.2,0.2-0.4,0.4-0.7,0.5c-0.3,0.1-0.6,0.2-1,0.2
		c-0.4,0-0.7,0-0.9-0.1c-0.2-0.1-0.5-0.1-0.7-0.2V321c0.2,0.1,0.5,0.2,0.7,0.3c0.3,0.1,0.6,0.1,0.9,0.1c0.4,0,0.7-0.1,0.9-0.2
		c0.2-0.1,0.3-0.3,0.3-0.6c0-0.1,0-0.3-0.1-0.4c-0.1-0.1-0.2-0.2-0.4-0.3c-0.2-0.1-0.4-0.2-0.8-0.3c-0.3-0.1-0.6-0.2-0.8-0.4
		c-0.2-0.1-0.4-0.3-0.5-0.4c-0.1-0.2-0.2-0.4-0.2-0.7c0-0.4,0.2-0.8,0.5-1c0.3-0.2,0.8-0.3,1.4-0.3c0.3,0,0.6,0,0.8,0.1
		c0.3,0.1,0.5,0.1,0.8,0.2l-0.3,0.6c-0.2-0.1-0.4-0.2-0.7-0.2c-0.2-0.1-0.5-0.1-0.7-0.1c-0.3,0-0.6,0.1-0.8,0.2
		c-0.2,0.1-0.3,0.3-0.3,0.5c0,0.2,0,0.3,0.1,0.4c0.1,0.1,0.2,0.2,0.4,0.3c0.2,0.1,0.4,0.2,0.8,0.3c0.3,0.1,0.6,0.2,0.8,0.4
		c0.2,0.1,0.4,0.3,0.5,0.5C187.2,320.1,187.3,320.3,187.3,320.6z M190.1,321.4c0.1,0,0.2,0,0.4,0c0.1,0,0.2,0,0.3-0.1v0.6
		c-0.1,0-0.2,0.1-0.4,0.1c-0.2,0-0.3,0-0.5,0c-0.3,0-0.5,0-0.7-0.1c-0.2-0.1-0.4-0.2-0.5-0.5c-0.1-0.2-0.2-0.5-0.2-0.9v-3h-0.7v-0.4
		l0.7-0.3l0.3-1.1h0.5v1.2h1.5v0.6h-1.5v2.9c0,0.3,0.1,0.5,0.2,0.7C189.7,321.3,189.9,321.4,190.1,321.4z M194.1,316.8
		c0.1,0,0.2,0,0.3,0c0.1,0,0.2,0,0.3,0l-0.1,0.7c-0.1,0-0.2,0-0.3,0c-0.1,0-0.2,0-0.3,0c-0.2,0-0.4,0-0.6,0.1
		c-0.2,0.1-0.3,0.2-0.5,0.3c-0.1,0.1-0.2,0.3-0.3,0.5c-0.1,0.2-0.1,0.4-0.1,0.7v2.7h-0.8v-5h0.6l0.1,0.9h0c0.1-0.2,0.2-0.3,0.4-0.5
		s0.3-0.3,0.5-0.4C193.6,316.9,193.8,316.8,194.1,316.8z M197.5,316.8c0.6,0,1,0.1,1.3,0.4c0.3,0.3,0.4,0.7,0.4,1.3v3.4h-0.5
		l-0.2-0.7h0c-0.1,0.2-0.3,0.3-0.4,0.5c-0.1,0.1-0.3,0.2-0.5,0.3c-0.2,0.1-0.4,0.1-0.7,0.1c-0.3,0-0.6-0.1-0.8-0.2
		c-0.2-0.1-0.4-0.3-0.6-0.5c-0.1-0.2-0.2-0.5-0.2-0.8c0-0.5,0.2-0.9,0.6-1.1c0.4-0.3,1-0.4,1.8-0.4l0.9,0v-0.3
		c0-0.4-0.1-0.7-0.3-0.9c-0.2-0.2-0.4-0.3-0.8-0.3c-0.3,0-0.5,0-0.8,0.1c-0.2,0.1-0.5,0.2-0.7,0.3l-0.2-0.6c0.2-0.1,0.5-0.2,0.8-0.3
		C196.9,316.9,197.2,316.8,197.5,316.8z M198.5,319.5l-0.8,0c-0.6,0-1.1,0.1-1.3,0.3c-0.2,0.2-0.4,0.4-0.4,0.8
		c0,0.3,0.1,0.5,0.2,0.6c0.2,0.1,0.4,0.2,0.7,0.2c0.4,0,0.8-0.1,1.1-0.4c0.3-0.2,0.4-0.6,0.4-1.1V319.5z M202.4,321.4
		c0.1,0,0.2,0,0.4,0c0.1,0,0.2,0,0.3-0.1v0.6c-0.1,0-0.2,0.1-0.4,0.1c-0.2,0-0.3,0-0.5,0c-0.3,0-0.5,0-0.7-0.1
		c-0.2-0.1-0.4-0.2-0.5-0.5c-0.1-0.2-0.2-0.5-0.2-0.9v-3h-0.7v-0.4l0.7-0.3l0.3-1.1h0.5v1.2h1.5v0.6h-1.5v2.9c0,0.3,0.1,0.5,0.2,0.7
		C202,321.3,202.2,321.4,202.4,321.4z M208.4,319.4c0,0.4-0.1,0.8-0.2,1.1c-0.1,0.3-0.3,0.6-0.5,0.8c-0.2,0.2-0.4,0.4-0.7,0.5
		c-0.3,0.1-0.6,0.2-1,0.2c-0.3,0-0.6-0.1-0.9-0.2c-0.3-0.1-0.5-0.3-0.7-0.5c-0.2-0.2-0.4-0.5-0.5-0.8c-0.1-0.3-0.2-0.7-0.2-1.1
		c0-0.6,0.1-1,0.3-1.4c0.2-0.4,0.5-0.7,0.8-0.9c0.3-0.2,0.8-0.3,1.2-0.3c0.4,0,0.8,0.1,1.2,0.3c0.3,0.2,0.6,0.5,0.8,0.9
		C208.3,318.4,208.4,318.9,208.4,319.4z M204.6,319.4c0,0.4,0.1,0.7,0.2,1c0.1,0.3,0.3,0.5,0.5,0.7c0.2,0.2,0.5,0.2,0.9,0.2
		c0.3,0,0.6-0.1,0.8-0.2c0.2-0.2,0.4-0.4,0.5-0.7c0.1-0.3,0.2-0.7,0.2-1c0-0.4-0.1-0.8-0.2-1c-0.1-0.3-0.3-0.5-0.5-0.7
		c-0.2-0.2-0.5-0.2-0.8-0.2c-0.5,0-0.9,0.2-1.2,0.5C204.8,318.3,204.6,318.8,204.6,319.4z M212,316.8c0.1,0,0.2,0,0.3,0
		c0.1,0,0.2,0,0.3,0l-0.1,0.7c-0.1,0-0.2,0-0.3,0c-0.1,0-0.2,0-0.3,0c-0.2,0-0.4,0-0.6,0.1c-0.2,0.1-0.3,0.2-0.5,0.3
		c-0.1,0.1-0.2,0.3-0.3,0.5c-0.1,0.2-0.1,0.4-0.1,0.7v2.7h-0.8v-5h0.6l0.1,0.9h0c0.1-0.2,0.2-0.3,0.4-0.5c0.1-0.2,0.3-0.3,0.5-0.4
		C211.6,316.9,211.8,316.8,212,316.8z"/>
	<path class="st9" d="M128.7,333.4v-40.9h15.9v40.9H128.7z"/>
	<path class="st6" d="M128.7,333.4v-40.9h15.9v40.9H128.7z"/>
	<path class="st7" d="M136.4,321.7c0.4,0,0.8,0.1,1.2,0.2c0.4,0.1,0.7,0.3,0.9,0.5c0.3,0.2,0.5,0.5,0.6,0.8c0.1,0.3,0.2,0.7,0.2,1.1
		c0,0.4-0.1,0.8-0.2,1.2c-0.1,0.3-0.3,0.6-0.6,0.8c-0.3,0.2-0.6,0.4-0.9,0.5c-0.4,0.1-0.8,0.2-1.2,0.2c-0.6,0-1.1-0.1-1.5-0.3
		c-0.4-0.2-0.8-0.5-1-0.9c-0.2-0.4-0.4-0.9-0.4-1.5c0-0.6,0.1-1.1,0.4-1.4c0.2-0.4,0.6-0.7,1-0.9
		C135.3,321.8,135.8,321.7,136.4,321.7z M136.4,326.2c0.5,0,0.9-0.1,1.2-0.2c0.4-0.1,0.6-0.4,0.8-0.6c0.2-0.3,0.3-0.6,0.3-1.1
		c0-0.4-0.1-0.8-0.3-1.1c-0.2-0.3-0.5-0.5-0.8-0.6c-0.4-0.1-0.8-0.2-1.2-0.2c-0.7,0-1.3,0.2-1.7,0.5c-0.4,0.3-0.6,0.8-0.6,1.4
		c0,0.4,0.1,0.8,0.3,1.1c0.2,0.3,0.5,0.5,0.8,0.6C135.5,326.2,135.9,326.2,136.4,326.2z M139.3,317l-2.5,0.8c-0.1,0-0.2,0.1-0.3,0.1
		c-0.1,0-0.2,0.1-0.3,0.1c-0.1,0-0.2,0-0.3,0.1c-0.1,0-0.2,0-0.2,0v0c0.1,0,0.1,0,0.2,0c0.1,0,0.2,0,0.3,0.1c0.1,0,0.2,0,0.3,0.1
		c0.1,0,0.2,0.1,0.3,0.1l2.5,0.8v0.7l-4.3,1.2v-0.7l2.4-0.6c0.2,0,0.3-0.1,0.5-0.1c0.1,0,0.3-0.1,0.4-0.1c0.1,0,0.2-0.1,0.3-0.1v0
		c-0.1,0-0.1,0-0.2-0.1c-0.1,0-0.2,0-0.3-0.1c-0.1,0-0.2,0-0.3-0.1c-0.1,0-0.2-0.1-0.3-0.1l-2.5-0.8v-0.7l2.5-0.8
		c0.1,0,0.3-0.1,0.4-0.1c0.1,0,0.3-0.1,0.4-0.1s0.2-0.1,0.3-0.1v0c-0.1,0-0.2,0-0.3,0c-0.1,0-0.3-0.1-0.4-0.1
		c-0.2,0-0.3-0.1-0.5-0.1l-2.4-0.6v-0.7l4.3,1.2V317z M134.9,312.3c0-0.5,0.1-0.9,0.4-1.1c0.2-0.3,0.6-0.4,1.2-0.4h2.8v0.6h-2.8
		c-0.4,0-0.6,0.1-0.8,0.2c-0.2,0.2-0.3,0.4-0.3,0.7c0,0.5,0.1,0.8,0.4,1c0.3,0.2,0.6,0.3,1.2,0.3h2.2v0.6H135v-0.5l0.6-0.1v0
		c-0.1-0.1-0.3-0.2-0.4-0.3c-0.1-0.1-0.2-0.3-0.2-0.5C135,312.7,134.9,312.5,134.9,312.3z M134.9,307.8c0-0.4,0.1-0.7,0.2-0.9
		c0.2-0.3,0.4-0.5,0.7-0.6c0.3-0.1,0.6-0.2,1-0.2h0.4v3c0.5,0,0.9-0.1,1.1-0.4c0.3-0.2,0.4-0.6,0.4-1c0-0.3,0-0.5-0.1-0.7
		c-0.1-0.2-0.1-0.4-0.2-0.7h0.6c0.1,0.2,0.2,0.4,0.2,0.7c0.1,0.2,0.1,0.5,0.1,0.8c0,0.4-0.1,0.8-0.2,1.1c-0.2,0.3-0.4,0.5-0.7,0.7
		c-0.3,0.2-0.7,0.2-1.2,0.2c-0.5,0-0.9-0.1-1.2-0.2c-0.3-0.2-0.6-0.4-0.8-0.7C135,308.5,134.9,308.1,134.9,307.8z M135.5,307.8
		c0,0.3,0.1,0.6,0.3,0.8c0.2,0.2,0.5,0.3,0.9,0.4v-2.3c-0.2,0-0.5,0-0.7,0.1c-0.2,0.1-0.3,0.2-0.5,0.3
		C135.5,307.3,135.5,307.5,135.5,307.8z M134.9,303c0-0.1,0-0.2,0-0.3c0-0.1,0-0.2,0-0.2l0.6,0.1c0,0.1,0,0.1,0,0.2
		c0,0.1,0,0.2,0,0.2c0,0.2,0,0.3,0.1,0.5c0.1,0.1,0.2,0.3,0.3,0.4c0.1,0.1,0.3,0.2,0.5,0.3c0.2,0.1,0.4,0.1,0.6,0.1h2.3v0.7H135
		v-0.5l0.8-0.1v0c-0.2-0.1-0.3-0.2-0.4-0.3c-0.1-0.1-0.2-0.3-0.3-0.4C135,303.4,134.9,303.2,134.9,303z M138.1,298.9
		c0.3,0,0.5,0.1,0.7,0.2c0.2,0.1,0.3,0.3,0.4,0.6c0.1,0.2,0.1,0.6,0.1,0.9c0,0.3,0,0.5-0.1,0.8c0,0.2-0.1,0.4-0.2,0.6h-0.6
		c0.1-0.2,0.2-0.4,0.2-0.6c0.1-0.2,0.1-0.5,0.1-0.7c0-0.4-0.1-0.6-0.2-0.8c-0.1-0.2-0.3-0.2-0.5-0.2c-0.1,0-0.2,0-0.3,0.1
		c-0.1,0.1-0.2,0.2-0.3,0.3c-0.1,0.2-0.2,0.4-0.3,0.6c-0.1,0.3-0.2,0.5-0.3,0.7c-0.1,0.2-0.2,0.4-0.4,0.5c-0.1,0.1-0.3,0.2-0.6,0.2
		c-0.4,0-0.6-0.1-0.8-0.4c-0.2-0.3-0.3-0.7-0.3-1.2c0-0.3,0-0.5,0.1-0.7c0.1-0.2,0.1-0.4,0.2-0.6l0.5,0.2c-0.1,0.2-0.1,0.4-0.2,0.6
		c-0.1,0.2-0.1,0.4-0.1,0.6c0,0.3,0.1,0.5,0.2,0.7c0.1,0.2,0.2,0.2,0.4,0.2c0.1,0,0.2,0,0.3-0.1c0.1-0.1,0.2-0.2,0.2-0.4
		c0.1-0.2,0.2-0.4,0.3-0.7c0.1-0.3,0.2-0.5,0.3-0.7c0.1-0.2,0.2-0.3,0.4-0.5C137.7,298.9,137.9,298.9,138.1,298.9z"/>
	<path class="st8" d="M150.3,394h80.8v41.3h-80.8V394z"/>
	<path class="st6" d="M150.3,394h80.8v41.3h-80.8V394z"/>
	<path class="st7" d="M181.5,412.6h-0.8v-6h-2.1V406h5v0.7h-2.1V412.6z M186.4,407.6c0.4,0,0.8,0.1,1.1,0.3c0.3,0.2,0.5,0.5,0.7,0.8
		c0.2,0.3,0.2,0.7,0.2,1.2v0.5H185c0,0.6,0.2,1,0.4,1.3c0.3,0.3,0.7,0.5,1.2,0.5c0.3,0,0.6,0,0.8-0.1c0.2-0.1,0.5-0.1,0.8-0.2v0.7
		c-0.2,0.1-0.5,0.2-0.8,0.2c-0.2,0.1-0.5,0.1-0.9,0.1c-0.5,0-0.9-0.1-1.3-0.3c-0.4-0.2-0.6-0.5-0.8-0.9c-0.2-0.4-0.3-0.8-0.3-1.4
		c0-0.5,0.1-1,0.3-1.4c0.2-0.4,0.4-0.7,0.8-0.9C185.6,407.7,186,407.6,186.4,407.6z M186.4,408.2c-0.4,0-0.7,0.1-1,0.4
		c-0.2,0.3-0.4,0.6-0.4,1.1h2.6c0-0.3,0-0.6-0.1-0.8c-0.1-0.2-0.2-0.4-0.4-0.5C186.9,408.2,186.7,408.2,186.4,408.2z M191.6,407.6
		c0.6,0,1,0.1,1.3,0.4c0.3,0.3,0.4,0.7,0.4,1.3v3.4h-0.5l-0.2-0.7h0c-0.1,0.2-0.3,0.3-0.4,0.5c-0.1,0.1-0.3,0.2-0.5,0.3
		c-0.2,0.1-0.4,0.1-0.7,0.1c-0.3,0-0.6-0.1-0.8-0.2c-0.2-0.1-0.4-0.3-0.6-0.5c-0.1-0.2-0.2-0.5-0.2-0.8c0-0.5,0.2-0.9,0.6-1.1
		c0.4-0.3,1-0.4,1.8-0.4l0.9,0v-0.3c0-0.4-0.1-0.7-0.3-0.9c-0.2-0.2-0.4-0.3-0.8-0.3c-0.3,0-0.5,0-0.8,0.1c-0.2,0.1-0.5,0.2-0.7,0.3
		l-0.2-0.6c0.2-0.1,0.5-0.2,0.8-0.3C191,407.6,191.3,407.6,191.6,407.6z M192.6,410.2l-0.8,0c-0.6,0-1.1,0.1-1.3,0.3
		c-0.2,0.2-0.4,0.4-0.4,0.8c0,0.3,0.1,0.5,0.2,0.6c0.2,0.1,0.4,0.2,0.7,0.2c0.4,0,0.8-0.1,1.1-0.4c0.3-0.2,0.4-0.6,0.4-1.1V410.2z
		 M200.4,407.6c0.6,0,1,0.1,1.2,0.4c0.3,0.3,0.4,0.7,0.4,1.4v3.3h-0.8v-3.2c0-0.4-0.1-0.7-0.3-0.9c-0.2-0.2-0.4-0.3-0.8-0.3
		c-0.5,0-0.8,0.1-1,0.4s-0.3,0.7-0.3,1.2v2.8h-0.8v-3.2c0-0.3,0-0.5-0.1-0.7c-0.1-0.2-0.2-0.3-0.3-0.4s-0.3-0.1-0.6-0.1
		c-0.3,0-0.6,0.1-0.8,0.2c-0.2,0.1-0.3,0.3-0.4,0.6c-0.1,0.3-0.1,0.6-0.1,1v2.6h-0.8v-5h0.6l0.1,0.7h0c0.1-0.2,0.2-0.3,0.4-0.4
		c0.2-0.1,0.3-0.2,0.5-0.3c0.2-0.1,0.4-0.1,0.6-0.1c0.4,0,0.7,0.1,1,0.2c0.3,0.1,0.4,0.3,0.6,0.6h0c0.2-0.3,0.4-0.5,0.7-0.6
		C199.7,407.6,200,407.6,200.4,407.6z"/>
	<path class="st7" d="M165.7,423.6l-0.8-2.1h-2.7l-0.8,2.1h-0.8l2.6-6.7h0.7l2.6,6.7H165.7z M164.6,420.8l-0.8-2.1
		c0-0.1,0-0.1-0.1-0.3s-0.1-0.2-0.1-0.4c0-0.1-0.1-0.2-0.1-0.3c0,0.1-0.1,0.2-0.1,0.4c0,0.1-0.1,0.2-0.1,0.3c0,0.1-0.1,0.2-0.1,0.3
		l-0.8,2.1H164.6z M169.1,423.7c-0.6,0-1.1-0.2-1.5-0.6c-0.4-0.4-0.5-1.1-0.5-1.9c0-0.9,0.2-1.5,0.6-1.9c0.4-0.4,0.9-0.7,1.5-0.7
		c0.3,0,0.5,0,0.7,0.1c0.2,0.1,0.4,0.2,0.5,0.3c0.1,0.1,0.3,0.2,0.4,0.4h0c0-0.1,0-0.2,0-0.4c0-0.2,0-0.3,0-0.4v-2h0.8v7.1h-0.6
		l-0.1-0.7h0c-0.1,0.1-0.2,0.3-0.4,0.4c-0.1,0.1-0.3,0.2-0.5,0.3C169.6,423.7,169.3,423.7,169.1,423.7z M169.2,423.1
		c0.5,0,0.9-0.2,1.1-0.5c0.2-0.3,0.3-0.8,0.3-1.4v-0.1c0-0.6-0.1-1.1-0.3-1.5c-0.2-0.3-0.6-0.5-1.2-0.5c-0.5,0-0.8,0.2-1,0.5
		c-0.2,0.4-0.3,0.8-0.3,1.5c0,0.6,0.1,1.1,0.3,1.4C168.3,422.9,168.7,423.1,169.2,423.1z M178.4,418.6c0.6,0,1,0.1,1.2,0.4
		c0.3,0.3,0.4,0.7,0.4,1.4v3.3h-0.8v-3.2c0-0.4-0.1-0.7-0.3-0.9c-0.2-0.2-0.4-0.3-0.8-0.3c-0.5,0-0.8,0.1-1,0.4s-0.3,0.7-0.3,1.2
		v2.8h-0.8v-3.2c0-0.3,0-0.5-0.1-0.7c-0.1-0.2-0.2-0.3-0.3-0.4s-0.3-0.1-0.6-0.1c-0.3,0-0.6,0.1-0.8,0.2c-0.2,0.1-0.3,0.3-0.4,0.6
		c-0.1,0.3-0.1,0.6-0.1,1v2.6H173v-5h0.6l0.1,0.7h0c0.1-0.2,0.2-0.3,0.4-0.4c0.2-0.1,0.3-0.2,0.5-0.3c0.2-0.1,0.4-0.1,0.6-0.1
		c0.4,0,0.7,0.1,1,0.2c0.3,0.1,0.4,0.3,0.6,0.6h0c0.2-0.3,0.4-0.5,0.7-0.6C177.7,418.6,178.1,418.6,178.4,418.6z M182.4,418.6v5
		h-0.8v-5H182.4z M182,416.8c0.1,0,0.2,0,0.3,0.1c0.1,0.1,0.1,0.2,0.1,0.4c0,0.2,0,0.3-0.1,0.4c-0.1,0.1-0.2,0.1-0.3,0.1
		c-0.1,0-0.2,0-0.3-0.1c-0.1-0.1-0.1-0.2-0.1-0.4c0-0.2,0-0.3,0.1-0.4C181.8,416.8,181.9,416.8,182,416.8z M186.3,418.6
		c0.6,0,1,0.1,1.3,0.4c0.3,0.3,0.5,0.7,0.5,1.4v3.2h-0.7v-3.2c0-0.4-0.1-0.7-0.3-0.9c-0.2-0.2-0.5-0.3-0.9-0.3
		c-0.6,0-0.9,0.2-1.2,0.5c-0.2,0.3-0.3,0.8-0.3,1.4v2.6H184v-5h0.6l0.1,0.7h0c0.1-0.2,0.2-0.3,0.4-0.4c0.2-0.1,0.3-0.2,0.5-0.3
		C185.9,418.6,186.1,418.6,186.3,418.6z M190.4,418.6v5h-0.8v-5H190.4z M190.1,416.8c0.1,0,0.2,0,0.3,0.1c0.1,0.1,0.1,0.2,0.1,0.4
		c0,0.2,0,0.3-0.1,0.4c-0.1,0.1-0.2,0.1-0.3,0.1c-0.1,0-0.2,0-0.3-0.1c-0.1-0.1-0.1-0.2-0.1-0.4c0-0.2,0-0.3,0.1-0.4
		C189.8,416.8,189.9,416.8,190.1,416.8z M195.3,422.3c0,0.3-0.1,0.6-0.2,0.8c-0.2,0.2-0.4,0.4-0.7,0.5c-0.3,0.1-0.6,0.2-1,0.2
		c-0.4,0-0.7,0-0.9-0.1c-0.2-0.1-0.5-0.1-0.7-0.2v-0.7c0.2,0.1,0.5,0.2,0.7,0.3c0.3,0.1,0.6,0.1,0.9,0.1c0.4,0,0.7-0.1,0.9-0.2
		c0.2-0.1,0.3-0.3,0.3-0.6c0-0.1,0-0.3-0.1-0.4c-0.1-0.1-0.2-0.2-0.4-0.3c-0.2-0.1-0.4-0.2-0.8-0.3c-0.3-0.1-0.6-0.2-0.8-0.4
		c-0.2-0.1-0.4-0.3-0.5-0.4c-0.1-0.2-0.2-0.4-0.2-0.7c0-0.4,0.2-0.8,0.5-1c0.3-0.2,0.8-0.3,1.4-0.3c0.3,0,0.6,0,0.8,0.1
		c0.3,0.1,0.5,0.1,0.8,0.2l-0.3,0.6c-0.2-0.1-0.4-0.2-0.7-0.2c-0.2-0.1-0.5-0.1-0.7-0.1c-0.3,0-0.6,0.1-0.8,0.2
		c-0.2,0.1-0.3,0.3-0.3,0.5c0,0.2,0,0.3,0.1,0.4c0.1,0.1,0.2,0.2,0.4,0.3c0.2,0.1,0.4,0.2,0.8,0.3c0.3,0.1,0.6,0.2,0.8,0.4
		c0.2,0.1,0.4,0.3,0.5,0.5C195.2,421.8,195.3,422,195.3,422.3z M198.1,423.1c0.1,0,0.2,0,0.4,0c0.1,0,0.2,0,0.3-0.1v0.6
		c-0.1,0-0.2,0.1-0.4,0.1c-0.2,0-0.3,0-0.5,0c-0.3,0-0.5,0-0.7-0.1c-0.2-0.1-0.4-0.2-0.5-0.5c-0.1-0.2-0.2-0.5-0.2-0.9v-3h-0.7v-0.4
		l0.7-0.3l0.3-1.1h0.5v1.2h1.5v0.6h-1.5v2.9c0,0.3,0.1,0.5,0.2,0.7C197.7,423,197.9,423.1,198.1,423.1z M202.1,418.6
		c0.1,0,0.2,0,0.3,0c0.1,0,0.2,0,0.3,0l-0.1,0.7c-0.1,0-0.2,0-0.3,0c-0.1,0-0.2,0-0.3,0c-0.2,0-0.4,0-0.6,0.1
		c-0.2,0.1-0.3,0.2-0.5,0.3c-0.1,0.1-0.2,0.3-0.3,0.5c-0.1,0.2-0.1,0.4-0.1,0.7v2.7h-0.8v-5h0.6l0.1,0.9h0c0.1-0.2,0.2-0.3,0.4-0.5
		s0.3-0.3,0.5-0.4C201.6,418.6,201.8,418.6,202.1,418.6z M205.5,418.6c0.6,0,1,0.1,1.3,0.4c0.3,0.3,0.4,0.7,0.4,1.3v3.4h-0.5
		l-0.2-0.7h0c-0.1,0.2-0.3,0.3-0.4,0.5c-0.1,0.1-0.3,0.2-0.5,0.3c-0.2,0.1-0.4,0.1-0.7,0.1c-0.3,0-0.6-0.1-0.8-0.2
		c-0.2-0.1-0.4-0.3-0.6-0.5c-0.1-0.2-0.2-0.5-0.2-0.8c0-0.5,0.2-0.9,0.6-1.1c0.4-0.3,1-0.4,1.8-0.4l0.9,0v-0.3
		c0-0.4-0.1-0.7-0.3-0.9c-0.2-0.2-0.4-0.3-0.8-0.3c-0.3,0-0.5,0-0.8,0.1c-0.2,0.1-0.5,0.2-0.7,0.3l-0.2-0.6c0.2-0.1,0.5-0.2,0.8-0.3
		C204.9,418.6,205.2,418.6,205.5,418.6z M206.5,421.2l-0.8,0c-0.6,0-1.1,0.1-1.3,0.3c-0.2,0.2-0.4,0.4-0.4,0.8
		c0,0.3,0.1,0.5,0.2,0.6c0.2,0.1,0.4,0.2,0.7,0.2c0.4,0,0.8-0.1,1.1-0.4c0.3-0.2,0.4-0.6,0.4-1.1V421.2z M210.4,423.1
		c0.1,0,0.2,0,0.4,0c0.1,0,0.2,0,0.3-0.1v0.6c-0.1,0-0.2,0.1-0.4,0.1c-0.2,0-0.3,0-0.5,0c-0.3,0-0.5,0-0.7-0.1
		c-0.2-0.1-0.4-0.2-0.5-0.5c-0.1-0.2-0.2-0.5-0.2-0.9v-3h-0.7v-0.4l0.7-0.3l0.3-1.1h0.5v1.2h1.5v0.6h-1.5v2.9c0,0.3,0.1,0.5,0.2,0.7
		C210,423,210.2,423.1,210.4,423.1z M216.4,421.1c0,0.4-0.1,0.8-0.2,1.1c-0.1,0.3-0.3,0.6-0.5,0.8c-0.2,0.2-0.4,0.4-0.7,0.5
		c-0.3,0.1-0.6,0.2-1,0.2c-0.3,0-0.6-0.1-0.9-0.2c-0.3-0.1-0.5-0.3-0.7-0.5c-0.2-0.2-0.4-0.5-0.5-0.8c-0.1-0.3-0.2-0.7-0.2-1.1
		c0-0.6,0.1-1,0.3-1.4c0.2-0.4,0.5-0.7,0.8-0.9c0.3-0.2,0.8-0.3,1.2-0.3c0.4,0,0.8,0.1,1.2,0.3c0.3,0.2,0.6,0.5,0.8,0.9
		C216.3,420.1,216.4,420.6,216.4,421.1z M212.6,421.1c0,0.4,0.1,0.7,0.2,1c0.1,0.3,0.3,0.5,0.5,0.7c0.2,0.2,0.5,0.2,0.9,0.2
		c0.3,0,0.6-0.1,0.8-0.2c0.2-0.2,0.4-0.4,0.5-0.7c0.1-0.3,0.2-0.7,0.2-1c0-0.4-0.1-0.8-0.2-1c-0.1-0.3-0.3-0.5-0.5-0.7
		c-0.2-0.2-0.5-0.2-0.8-0.2c-0.5,0-0.9,0.2-1.2,0.5C212.8,420,212.6,420.5,212.6,421.1z M220,418.6c0.1,0,0.2,0,0.3,0
		c0.1,0,0.2,0,0.3,0l-0.1,0.7c-0.1,0-0.2,0-0.3,0c-0.1,0-0.2,0-0.3,0c-0.2,0-0.4,0-0.6,0.1c-0.2,0.1-0.3,0.2-0.5,0.3
		c-0.1,0.1-0.2,0.3-0.3,0.5c-0.1,0.2-0.1,0.4-0.1,0.7v2.7h-0.8v-5h0.6l0.1,0.9h0c0.1-0.2,0.2-0.3,0.4-0.5c0.1-0.2,0.3-0.3,0.5-0.4
		C219.6,418.6,219.8,418.6,220,418.6z"/>
	<path class="st9" d="M134.4,435.1v-40.9h15.9v40.9H134.4z"/>
	<path class="st6" d="M134.4,435.1v-40.9h15.9v40.9H134.4z"/>
	<path class="st7" d="M142.1,423.4c0.4,0,0.8,0.1,1.2,0.2c0.4,0.1,0.7,0.3,0.9,0.5c0.3,0.2,0.5,0.5,0.6,0.8c0.1,0.3,0.2,0.7,0.2,1.1
		c0,0.4-0.1,0.8-0.2,1.2c-0.1,0.3-0.3,0.6-0.6,0.8c-0.3,0.2-0.6,0.4-0.9,0.5c-0.4,0.1-0.8,0.2-1.2,0.2c-0.6,0-1.1-0.1-1.5-0.3
		c-0.4-0.2-0.8-0.5-1-0.9c-0.2-0.4-0.4-0.9-0.4-1.5c0-0.6,0.1-1.1,0.4-1.4c0.2-0.4,0.6-0.7,1-0.9C141,423.5,141.5,423.4,142.1,423.4
		z M142.1,427.9c0.5,0,0.9-0.1,1.2-0.2c0.4-0.1,0.6-0.4,0.8-0.6c0.2-0.3,0.3-0.6,0.3-1.1c0-0.4-0.1-0.8-0.3-1.1
		c-0.2-0.3-0.5-0.5-0.8-0.6c-0.4-0.1-0.8-0.2-1.2-0.2c-0.7,0-1.3,0.2-1.7,0.5c-0.4,0.3-0.6,0.8-0.6,1.4c0,0.4,0.1,0.8,0.3,1.1
		c0.2,0.3,0.5,0.5,0.8,0.6C141.2,427.9,141.6,427.9,142.1,427.9z M145,418.7l-2.5,0.8c-0.1,0-0.2,0.1-0.3,0.1
		c-0.1,0-0.2,0.1-0.3,0.1c-0.1,0-0.2,0-0.3,0.1c-0.1,0-0.2,0-0.2,0v0c0.1,0,0.1,0,0.2,0c0.1,0,0.2,0,0.3,0.1c0.1,0,0.2,0,0.3,0.1
		c0.1,0,0.2,0.1,0.3,0.1l2.5,0.8v0.7l-4.3,1.2v-0.7l2.4-0.6c0.2,0,0.3-0.1,0.5-0.1c0.1,0,0.3-0.1,0.4-0.1c0.1,0,0.2-0.1,0.3-0.1v0
		c-0.1,0-0.1,0-0.2-0.1c-0.1,0-0.2,0-0.3-0.1c-0.1,0-0.2,0-0.3-0.1c-0.1,0-0.2-0.1-0.3-0.1l-2.5-0.8v-0.7l2.5-0.8
		c0.1,0,0.3-0.1,0.4-0.1c0.1,0,0.3-0.1,0.4-0.1c0.1,0,0.2-0.1,0.3-0.1v0c-0.1,0-0.2,0-0.3,0c-0.1,0-0.3-0.1-0.4-0.1
		c-0.2,0-0.3-0.1-0.5-0.1l-2.4-0.6v-0.7l4.3,1.2V418.7z M140.6,414c0-0.5,0.1-0.9,0.4-1.1c0.2-0.3,0.6-0.4,1.2-0.4h2.8v0.6h-2.8
		c-0.4,0-0.6,0.1-0.8,0.2c-0.2,0.2-0.3,0.4-0.3,0.7c0,0.5,0.1,0.8,0.4,1c0.3,0.2,0.6,0.3,1.2,0.3h2.2v0.6h-4.3v-0.5l0.6-0.1v0
		c-0.1-0.1-0.3-0.2-0.4-0.3c-0.1-0.1-0.2-0.3-0.2-0.5C140.7,414.4,140.6,414.2,140.6,414z M140.6,409.5c0-0.4,0.1-0.7,0.2-0.9
		c0.2-0.3,0.4-0.5,0.7-0.6c0.3-0.1,0.6-0.2,1-0.2h0.4v3c0.5,0,0.9-0.1,1.1-0.4c0.3-0.2,0.4-0.6,0.4-1c0-0.3,0-0.5-0.1-0.7
		c-0.1-0.2-0.1-0.4-0.2-0.7h0.6c0.1,0.2,0.2,0.4,0.2,0.7c0.1,0.2,0.1,0.5,0.1,0.8c0,0.4-0.1,0.8-0.2,1.1c-0.2,0.3-0.4,0.5-0.7,0.7
		c-0.3,0.2-0.7,0.3-1.2,0.2c-0.5,0-0.9-0.1-1.2-0.2c-0.3-0.2-0.6-0.4-0.8-0.7C140.7,410.2,140.6,409.8,140.6,409.5z M141.2,409.5
		c0,0.3,0.1,0.6,0.3,0.8c0.2,0.2,0.5,0.3,0.9,0.4v-2.3c-0.2,0-0.5,0-0.7,0.1c-0.2,0.1-0.3,0.2-0.5,0.3
		C141.2,409,141.2,409.2,141.2,409.5z M140.6,404.7c0-0.1,0-0.2,0-0.3c0-0.1,0-0.2,0-0.2l0.6,0.1c0,0.1,0,0.1,0,0.2
		c0,0.1,0,0.2,0,0.2c0,0.2,0,0.3,0.1,0.5c0.1,0.1,0.2,0.3,0.3,0.4c0.1,0.1,0.3,0.2,0.5,0.3c0.2,0.1,0.4,0.1,0.6,0.1h2.3v0.7h-4.3
		v-0.5l0.8-0.1v0c-0.2-0.1-0.3-0.2-0.4-0.3c-0.1-0.1-0.2-0.3-0.3-0.4C140.7,405.1,140.6,404.9,140.6,404.7z M143.8,400.6
		c0.3,0,0.5,0.1,0.7,0.2c0.2,0.1,0.3,0.3,0.4,0.6c0.1,0.3,0.1,0.6,0.1,0.9c0,0.3,0,0.5-0.1,0.8c0,0.2-0.1,0.4-0.2,0.6h-0.6
		c0.1-0.2,0.2-0.4,0.2-0.6c0.1-0.2,0.1-0.5,0.1-0.7c0-0.4-0.1-0.6-0.2-0.8c-0.1-0.2-0.3-0.2-0.5-0.2c-0.1,0-0.2,0-0.3,0.1
		c-0.1,0.1-0.2,0.2-0.3,0.3c-0.1,0.2-0.2,0.4-0.3,0.6c-0.1,0.3-0.2,0.5-0.3,0.7c-0.1,0.2-0.2,0.4-0.4,0.5c-0.1,0.1-0.3,0.2-0.6,0.2
		c-0.4,0-0.6-0.1-0.8-0.4c-0.2-0.3-0.3-0.7-0.3-1.2c0-0.3,0-0.5,0.1-0.7c0.1-0.2,0.1-0.4,0.2-0.6l0.5,0.2c-0.1,0.2-0.1,0.4-0.2,0.6
		c-0.1,0.2-0.1,0.4-0.1,0.6c0,0.3,0.1,0.5,0.2,0.7c0.1,0.2,0.2,0.2,0.4,0.2c0.1,0,0.2,0,0.3-0.1c0.1-0.1,0.2-0.2,0.2-0.4
		c0.1-0.2,0.2-0.4,0.3-0.7c0.1-0.3,0.2-0.5,0.3-0.7c0.1-0.2,0.2-0.3,0.4-0.5C143.4,400.6,143.6,400.6,143.8,400.6z"/>
	<path class="st4" d="M250.4,343.7h80.8V385h-80.8V343.7z"/>
	<path class="st6" d="M250.4,343.7h80.8V385h-80.8V343.7z"/>
	<path class="st7" d="M275.3,355.7l-1.8,6.7h-0.8l-1.3-4.5c0-0.1-0.1-0.2-0.1-0.4c0-0.1-0.1-0.3-0.1-0.4s-0.1-0.2-0.1-0.3
		c0-0.1,0-0.2,0-0.2c0,0,0,0.1,0,0.2c0,0.1,0,0.2-0.1,0.3c0,0.1,0,0.2-0.1,0.4c0,0.1-0.1,0.2-0.1,0.4l-1.3,4.5h-0.8l-1.8-6.7h0.8
		l1.1,4.2c0,0.1,0.1,0.3,0.1,0.4c0,0.1,0.1,0.3,0.1,0.4c0,0.1,0.1,0.2,0.1,0.4c0,0.1,0.1,0.2,0.1,0.3c0-0.1,0-0.2,0.1-0.4
		c0-0.1,0-0.3,0.1-0.4c0-0.1,0.1-0.3,0.1-0.4c0-0.1,0.1-0.3,0.1-0.4l1.2-4.1h0.8l1.2,4.2c0,0.1,0.1,0.3,0.1,0.4
		c0,0.1,0.1,0.3,0.1,0.4c0,0.1,0.1,0.2,0.1,0.4c0,0.1,0,0.2,0.1,0.3c0-0.1,0-0.3,0.1-0.5c0-0.2,0.1-0.3,0.1-0.5
		c0-0.2,0.1-0.4,0.1-0.6l1.1-4.2H275.3z M280.5,359.8c0,0.4-0.1,0.8-0.2,1.1c-0.1,0.3-0.3,0.6-0.5,0.8c-0.2,0.2-0.4,0.4-0.7,0.5
		c-0.3,0.1-0.6,0.2-1,0.2c-0.3,0-0.6-0.1-0.9-0.2c-0.3-0.1-0.5-0.3-0.7-0.5c-0.2-0.2-0.4-0.5-0.5-0.8c-0.1-0.3-0.2-0.7-0.2-1.1
		c0-0.6,0.1-1,0.3-1.4s0.5-0.7,0.8-0.9s0.8-0.3,1.2-0.3c0.4,0,0.8,0.1,1.2,0.3c0.3,0.2,0.6,0.5,0.8,0.9
		C280.4,358.8,280.5,359.3,280.5,359.8z M276.7,359.8c0,0.4,0.1,0.7,0.2,1c0.1,0.3,0.3,0.5,0.5,0.7c0.2,0.2,0.5,0.2,0.9,0.2
		c0.3,0,0.6-0.1,0.8-0.2c0.2-0.2,0.4-0.4,0.5-0.7c0.1-0.3,0.2-0.7,0.2-1c0-0.4-0.1-0.8-0.2-1c-0.1-0.3-0.3-0.5-0.5-0.7
		c-0.2-0.2-0.5-0.2-0.8-0.2c-0.5,0-0.9,0.2-1.2,0.5C276.8,358.7,276.7,359.2,276.7,359.8z M284.1,357.2c0.1,0,0.2,0,0.3,0
		c0.1,0,0.2,0,0.3,0l-0.1,0.7c-0.1,0-0.2,0-0.3,0c-0.1,0-0.2,0-0.3,0c-0.2,0-0.4,0-0.6,0.1c-0.2,0.1-0.3,0.2-0.5,0.3
		c-0.1,0.1-0.2,0.3-0.3,0.5c-0.1,0.2-0.1,0.4-0.1,0.7v2.7h-0.8v-5h0.6l0.1,0.9h0c0.1-0.2,0.2-0.3,0.4-0.5c0.1-0.2,0.3-0.3,0.5-0.4
		C283.6,357.3,283.8,357.2,284.1,357.2z M286.4,355.2v3.7c0,0.1,0,0.3,0,0.5c0,0.2,0,0.3,0,0.5h0c0.1-0.1,0.2-0.2,0.3-0.3
		c0.1-0.2,0.2-0.3,0.3-0.4l1.7-1.8h0.9l-2,2.1l2.2,2.9h-0.9L287,360l-0.6,0.5v1.8h-0.8v-7.1H286.4z M293.8,361
		c0,0.3-0.1,0.6-0.2,0.8c-0.2,0.2-0.4,0.4-0.7,0.5c-0.3,0.1-0.6,0.2-1,0.2c-0.4,0-0.7,0-0.9-0.1c-0.2-0.1-0.5-0.1-0.7-0.2v-0.7
		c0.2,0.1,0.5,0.2,0.7,0.3c0.3,0.1,0.6,0.1,0.9,0.1c0.4,0,0.7-0.1,0.9-0.2s0.3-0.3,0.3-0.6c0-0.1,0-0.3-0.1-0.4
		c-0.1-0.1-0.2-0.2-0.4-0.3c-0.2-0.1-0.4-0.2-0.8-0.3c-0.3-0.1-0.6-0.2-0.8-0.4c-0.2-0.1-0.4-0.3-0.5-0.4c-0.1-0.2-0.2-0.4-0.2-0.7
		c0-0.4,0.2-0.8,0.5-1c0.3-0.2,0.8-0.3,1.4-0.3c0.3,0,0.6,0,0.8,0.1c0.3,0.1,0.5,0.1,0.8,0.2l-0.3,0.6c-0.2-0.1-0.4-0.2-0.7-0.2
		c-0.2-0.1-0.5-0.1-0.7-0.1c-0.3,0-0.6,0.1-0.8,0.2s-0.3,0.3-0.3,0.5c0,0.2,0,0.3,0.1,0.4c0.1,0.1,0.2,0.2,0.4,0.3
		c0.2,0.1,0.4,0.2,0.8,0.3s0.6,0.2,0.8,0.4s0.4,0.3,0.5,0.5C293.7,360.5,293.8,360.7,293.8,361z M297.3,357.2c0.6,0,1.1,0.2,1.5,0.6
		c0.4,0.4,0.6,1.1,0.6,1.9c0,0.6-0.1,1.1-0.3,1.4c-0.2,0.4-0.4,0.7-0.7,0.9c-0.3,0.2-0.7,0.3-1.1,0.3c-0.3,0-0.5,0-0.7-0.1
		c-0.2-0.1-0.4-0.2-0.5-0.3c-0.1-0.1-0.2-0.2-0.3-0.4h-0.1c0,0.1,0,0.3,0,0.4c0,0.2,0,0.3,0,0.4v2H295v-7.2h0.6l0.1,0.7h0
		c0.1-0.2,0.2-0.3,0.3-0.4c0.1-0.1,0.3-0.2,0.5-0.3C296.8,357.3,297.1,357.2,297.3,357.2z M297.2,357.9c-0.4,0-0.6,0.1-0.8,0.2
		s-0.4,0.3-0.5,0.6c-0.1,0.3-0.1,0.6-0.1,1v0.1c0,0.4,0,0.8,0.1,1.1c0.1,0.3,0.2,0.5,0.5,0.7s0.5,0.2,0.9,0.2c0.3,0,0.6-0.1,0.8-0.2
		s0.4-0.4,0.5-0.7c0.1-0.3,0.2-0.6,0.2-1c0-0.6-0.1-1.1-0.3-1.4C298,358,297.7,357.9,297.2,357.9z M302.6,357.2c0.6,0,1,0.1,1.3,0.4
		c0.3,0.3,0.4,0.7,0.4,1.3v3.4h-0.5l-0.2-0.7h0c-0.1,0.2-0.3,0.3-0.4,0.5c-0.1,0.1-0.3,0.2-0.5,0.3c-0.2,0.1-0.4,0.1-0.7,0.1
		c-0.3,0-0.6-0.1-0.8-0.2c-0.2-0.1-0.4-0.3-0.6-0.5c-0.1-0.2-0.2-0.5-0.2-0.8c0-0.5,0.2-0.9,0.6-1.1c0.4-0.3,1-0.4,1.8-0.4l0.9,0
		V359c0-0.4-0.1-0.7-0.3-0.9s-0.4-0.3-0.8-0.3c-0.3,0-0.5,0-0.8,0.1c-0.2,0.1-0.5,0.2-0.7,0.3l-0.2-0.6c0.2-0.1,0.5-0.2,0.8-0.3
		C301.9,357.3,302.2,357.2,302.6,357.2z M303.6,359.9l-0.8,0c-0.6,0-1.1,0.1-1.3,0.3c-0.2,0.2-0.4,0.4-0.4,0.8
		c0,0.3,0.1,0.5,0.2,0.6c0.2,0.1,0.4,0.2,0.7,0.2c0.4,0,0.8-0.1,1.1-0.4c0.3-0.2,0.4-0.6,0.4-1.1V359.9z M307.9,362.4
		c-0.4,0-0.8-0.1-1.2-0.3s-0.6-0.5-0.8-0.8c-0.2-0.4-0.3-0.9-0.3-1.4c0-0.6,0.1-1.1,0.3-1.5c0.2-0.4,0.5-0.7,0.8-0.8
		c0.4-0.2,0.8-0.3,1.2-0.3c0.2,0,0.5,0,0.7,0.1c0.2,0,0.4,0.1,0.6,0.2l-0.2,0.6c-0.2-0.1-0.3-0.1-0.5-0.2c-0.2-0.1-0.4-0.1-0.6-0.1
		c-0.3,0-0.6,0.1-0.9,0.2c-0.2,0.1-0.4,0.4-0.5,0.7c-0.1,0.3-0.2,0.6-0.2,1c0,0.4,0.1,0.8,0.2,1c0.1,0.3,0.3,0.5,0.5,0.7
		c0.2,0.1,0.5,0.2,0.8,0.2c0.3,0,0.5,0,0.7-0.1c0.2-0.1,0.4-0.1,0.6-0.2v0.7c-0.2,0.1-0.4,0.1-0.6,0.2
		C308.4,362.4,308.2,362.4,307.9,362.4z M312.3,357.2c0.4,0,0.8,0.1,1.1,0.3s0.5,0.5,0.7,0.8c0.2,0.3,0.2,0.7,0.2,1.2v0.5h-3.5
		c0,0.6,0.2,1,0.4,1.3s0.7,0.5,1.2,0.5c0.3,0,0.6,0,0.8-0.1c0.2-0.1,0.5-0.1,0.8-0.2v0.7c-0.2,0.1-0.5,0.2-0.8,0.2s-0.5,0.1-0.9,0.1
		c-0.5,0-0.9-0.1-1.3-0.3c-0.4-0.2-0.6-0.5-0.8-0.9c-0.2-0.4-0.3-0.8-0.3-1.4s0.1-1,0.3-1.4c0.2-0.4,0.4-0.7,0.8-0.9
		C311.4,357.4,311.8,357.2,312.3,357.2z M312.2,357.9c-0.4,0-0.7,0.1-1,0.4c-0.2,0.3-0.4,0.6-0.4,1.1h2.6c0-0.3,0-0.6-0.1-0.8
		c-0.1-0.2-0.2-0.4-0.4-0.5C312.8,357.9,312.5,357.9,312.2,357.9z"/>
	<path class="st7" d="M275.3,373.3l-2.2-5.9h0c0,0.1,0,0.3,0,0.5c0,0.2,0,0.4,0,0.6c0,0.2,0,0.4,0,0.6v4.2h-0.7v-6.7h1.2l2.1,5.5h0
		l2.1-5.5h1.1v6.7h-0.8v-4.3c0-0.2,0-0.4,0-0.6c0-0.2,0-0.4,0-0.6c0-0.2,0-0.3,0-0.5h0l-2.3,5.9H275.3z M282.6,368.2
		c0.6,0,1,0.1,1.3,0.4c0.3,0.3,0.4,0.7,0.4,1.3v3.4h-0.5l-0.2-0.7h0c-0.1,0.2-0.3,0.3-0.4,0.5c-0.1,0.1-0.3,0.2-0.5,0.3
		c-0.2,0.1-0.4,0.1-0.7,0.1c-0.3,0-0.6-0.1-0.8-0.2c-0.2-0.1-0.4-0.3-0.6-0.5c-0.1-0.2-0.2-0.5-0.2-0.8c0-0.5,0.2-0.9,0.6-1.1
		c0.4-0.3,1-0.4,1.8-0.4l0.9,0V370c0-0.4-0.1-0.7-0.3-0.9s-0.4-0.3-0.8-0.3c-0.3,0-0.5,0-0.8,0.1c-0.2,0.1-0.5,0.2-0.7,0.3l-0.2-0.6
		c0.2-0.1,0.5-0.2,0.8-0.3S282.2,368.2,282.6,368.2z M283.6,370.9l-0.8,0c-0.6,0-1.1,0.1-1.3,0.3c-0.2,0.2-0.4,0.4-0.4,0.8
		c0,0.3,0.1,0.5,0.2,0.6c0.2,0.1,0.4,0.2,0.7,0.2c0.4,0,0.8-0.1,1.1-0.4c0.3-0.2,0.4-0.6,0.4-1.1V370.9z M288.2,368.2
		c0.6,0,1,0.1,1.3,0.4c0.3,0.3,0.5,0.7,0.5,1.4v3.2h-0.7v-3.2c0-0.4-0.1-0.7-0.3-0.9c-0.2-0.2-0.5-0.3-0.9-0.3
		c-0.6,0-0.9,0.2-1.2,0.5c-0.2,0.3-0.3,0.8-0.3,1.4v2.6h-0.8v-5h0.6l0.1,0.7h0c0.1-0.2,0.2-0.3,0.4-0.4c0.2-0.1,0.3-0.2,0.5-0.3
		C287.8,368.3,288,368.2,288.2,368.2z M293.5,368.2c0.6,0,1,0.1,1.3,0.4c0.3,0.3,0.4,0.7,0.4,1.3v3.4h-0.5l-0.2-0.7h0
		c-0.1,0.2-0.3,0.3-0.4,0.5c-0.1,0.1-0.3,0.2-0.5,0.3c-0.2,0.1-0.4,0.1-0.7,0.1c-0.3,0-0.6-0.1-0.8-0.2c-0.2-0.1-0.4-0.3-0.6-0.5
		c-0.1-0.2-0.2-0.5-0.2-0.8c0-0.5,0.2-0.9,0.6-1.1c0.4-0.3,1-0.4,1.8-0.4l0.9,0V370c0-0.4-0.1-0.7-0.3-0.9s-0.4-0.3-0.8-0.3
		c-0.3,0-0.5,0-0.8,0.1c-0.2,0.1-0.5,0.2-0.7,0.3l-0.2-0.6c0.2-0.1,0.5-0.2,0.8-0.3S293.1,368.2,293.5,368.2z M294.5,370.9l-0.8,0
		c-0.6,0-1.1,0.1-1.3,0.3c-0.2,0.2-0.4,0.4-0.4,0.8c0,0.3,0.1,0.5,0.2,0.6c0.2,0.1,0.4,0.2,0.7,0.2c0.4,0,0.8-0.1,1.1-0.4
		c0.3-0.2,0.4-0.6,0.4-1.1V370.9z M298.2,375.6c-0.7,0-1.2-0.1-1.5-0.4c-0.4-0.2-0.5-0.6-0.5-1c0-0.3,0.1-0.6,0.3-0.8
		c0.2-0.2,0.5-0.4,0.8-0.4c-0.1-0.1-0.2-0.2-0.3-0.3s-0.1-0.3-0.1-0.4c0-0.2,0-0.3,0.1-0.5c0.1-0.1,0.3-0.3,0.5-0.4
		c-0.3-0.1-0.5-0.3-0.6-0.5c-0.2-0.3-0.2-0.6-0.2-0.9c0-0.4,0.1-0.7,0.2-0.9c0.2-0.2,0.4-0.4,0.7-0.6s0.6-0.2,1-0.2
		c0.1,0,0.2,0,0.3,0c0.1,0,0.2,0,0.3,0c0.1,0,0.2,0,0.2,0h1.7v0.5l-0.9,0.1c0.1,0.1,0.2,0.3,0.2,0.4s0.1,0.3,0.1,0.5
		c0,0.5-0.2,0.9-0.5,1.2c-0.3,0.3-0.8,0.4-1.4,0.4c-0.1,0-0.3,0-0.4,0c-0.1,0.1-0.3,0.2-0.3,0.3c-0.1,0.1-0.1,0.2-0.1,0.3
		c0,0.1,0,0.2,0.1,0.2c0.1,0.1,0.2,0.1,0.3,0.1c0.1,0,0.2,0,0.4,0h0.9c0.5,0,1,0.1,1.2,0.3c0.3,0.2,0.4,0.6,0.4,1
		c0,0.6-0.2,1-0.7,1.3C299.7,375.4,299,375.6,298.2,375.6z M298.2,375c0.4,0,0.7,0,1-0.1c0.3-0.1,0.5-0.2,0.6-0.4
		c0.1-0.2,0.2-0.3,0.2-0.5c0-0.2,0-0.3-0.1-0.5c-0.1-0.1-0.2-0.2-0.4-0.2c-0.2,0-0.4-0.1-0.6-0.1H298c-0.2,0-0.4,0-0.6,0.1
		c-0.2,0.1-0.3,0.2-0.4,0.3s-0.1,0.3-0.1,0.5c0,0.3,0.1,0.5,0.3,0.6C297.4,374.9,297.8,375,298.2,375z M298.4,371
		c0.4,0,0.6-0.1,0.8-0.3c0.2-0.2,0.3-0.5,0.3-0.8c0-0.4-0.1-0.7-0.3-0.8s-0.5-0.3-0.8-0.3c-0.4,0-0.6,0.1-0.8,0.3
		c-0.2,0.2-0.3,0.5-0.3,0.8c0,0.3,0.1,0.6,0.3,0.8C297.8,370.9,298,371,298.4,371z M303.8,368.2c0.4,0,0.8,0.1,1.1,0.3
		c0.3,0.2,0.5,0.5,0.7,0.8c0.2,0.3,0.2,0.7,0.2,1.2v0.5h-3.5c0,0.6,0.2,1,0.4,1.3s0.7,0.5,1.2,0.5c0.3,0,0.6,0,0.8-0.1
		c0.2-0.1,0.5-0.1,0.8-0.2v0.7c-0.2,0.1-0.5,0.2-0.8,0.2s-0.5,0.1-0.9,0.1c-0.5,0-0.9-0.1-1.3-0.3c-0.4-0.2-0.6-0.5-0.8-0.9
		c-0.2-0.4-0.3-0.8-0.3-1.4s0.1-1,0.3-1.4c0.2-0.4,0.4-0.7,0.8-0.9C302.9,368.4,303.3,368.2,303.8,368.2z M303.7,368.9
		c-0.4,0-0.7,0.1-1,0.4c-0.2,0.3-0.4,0.6-0.4,1.1h2.6c0-0.3,0-0.6-0.1-0.8c-0.1-0.2-0.2-0.4-0.4-0.5
		C304.3,368.9,304,368.9,303.7,368.9z M309.3,368.2c0.1,0,0.2,0,0.3,0c0.1,0,0.2,0,0.3,0l-0.1,0.7c-0.1,0-0.2,0-0.3,0
		c-0.1,0-0.2,0-0.3,0c-0.2,0-0.4,0-0.6,0.1c-0.2,0.1-0.3,0.2-0.5,0.3c-0.1,0.1-0.2,0.3-0.3,0.5c-0.1,0.2-0.1,0.4-0.1,0.7v2.7h-0.8
		v-5h0.6l0.1,0.9h0c0.1-0.2,0.2-0.3,0.4-0.5s0.3-0.3,0.5-0.4C308.9,368.3,309.1,368.2,309.3,368.2z"/>
	<path class="st1" d="M250.4,313.5h-20.7v50.9h20.8"/>
	<path class="st6" d="M250.4,313.5h-20.7v50.9h20.8"/>
	<path class="st4" d="M250.4,292.8h80.8v41.3h-80.8V292.8z"/>
	<path class="st6" d="M250.4,292.8h80.8v41.3h-80.8V292.8z"/>
	<path class="st7" d="M275.3,304.8l-1.8,6.7h-0.8l-1.3-4.5c0-0.1-0.1-0.2-0.1-0.4c0-0.1-0.1-0.3-0.1-0.4s-0.1-0.2-0.1-0.3
		c0-0.1,0-0.2,0-0.2c0,0,0,0.1,0,0.2c0,0.1,0,0.2-0.1,0.3c0,0.1,0,0.2-0.1,0.4c0,0.1-0.1,0.2-0.1,0.4l-1.3,4.5h-0.8l-1.8-6.7h0.8
		l1.1,4.2c0,0.1,0.1,0.3,0.1,0.4c0,0.1,0.1,0.3,0.1,0.4c0,0.1,0.1,0.2,0.1,0.4c0,0.1,0.1,0.2,0.1,0.3c0-0.1,0-0.2,0.1-0.4
		c0-0.1,0-0.3,0.1-0.4c0-0.1,0.1-0.3,0.1-0.4c0-0.1,0.1-0.3,0.1-0.4l1.2-4.1h0.8l1.2,4.2c0,0.1,0.1,0.3,0.1,0.4
		c0,0.1,0.1,0.3,0.1,0.4c0,0.1,0.1,0.2,0.1,0.4c0,0.1,0,0.2,0.1,0.3c0-0.1,0-0.3,0.1-0.5c0-0.2,0.1-0.3,0.1-0.5
		c0-0.2,0.1-0.4,0.1-0.6l1.1-4.2H275.3z M280.5,309c0,0.4-0.1,0.8-0.2,1.1c-0.1,0.3-0.3,0.6-0.5,0.8c-0.2,0.2-0.4,0.4-0.7,0.5
		c-0.3,0.1-0.6,0.2-1,0.2c-0.3,0-0.6-0.1-0.9-0.2c-0.3-0.1-0.5-0.3-0.7-0.5c-0.2-0.2-0.4-0.5-0.5-0.8c-0.1-0.3-0.2-0.7-0.2-1.1
		c0-0.6,0.1-1,0.3-1.4s0.5-0.7,0.8-0.9s0.8-0.3,1.2-0.3c0.4,0,0.8,0.1,1.2,0.3c0.3,0.2,0.6,0.5,0.8,0.9
		C280.4,307.9,280.5,308.4,280.5,309z M276.7,309c0,0.4,0.1,0.7,0.2,1c0.1,0.3,0.3,0.5,0.5,0.7c0.2,0.2,0.5,0.2,0.9,0.2
		c0.3,0,0.6-0.1,0.8-0.2c0.2-0.2,0.4-0.4,0.5-0.7c0.1-0.3,0.2-0.7,0.2-1c0-0.4-0.1-0.8-0.2-1c-0.1-0.3-0.3-0.5-0.5-0.7
		c-0.2-0.2-0.5-0.2-0.8-0.2c-0.5,0-0.9,0.2-1.2,0.5C276.8,307.9,276.7,308.3,276.7,309z M284.1,306.4c0.1,0,0.2,0,0.3,0
		c0.1,0,0.2,0,0.3,0l-0.1,0.7c-0.1,0-0.2,0-0.3,0c-0.1,0-0.2,0-0.3,0c-0.2,0-0.4,0-0.6,0.1c-0.2,0.1-0.3,0.2-0.5,0.3
		c-0.1,0.1-0.2,0.3-0.3,0.5c-0.1,0.2-0.1,0.4-0.1,0.7v2.7h-0.8v-5h0.6l0.1,0.9h0c0.1-0.2,0.2-0.3,0.4-0.5c0.1-0.2,0.3-0.3,0.5-0.4
		C283.6,306.4,283.8,306.4,284.1,306.4z M286.4,304.4v3.7c0,0.1,0,0.3,0,0.5c0,0.2,0,0.3,0,0.5h0c0.1-0.1,0.2-0.2,0.3-0.3
		c0.1-0.2,0.2-0.3,0.3-0.4l1.7-1.8h0.9l-2,2.1l2.2,2.9h-0.9l-1.8-2.4l-0.6,0.5v1.8h-0.8v-7.1H286.4z M293.8,310.1
		c0,0.3-0.1,0.6-0.2,0.8c-0.2,0.2-0.4,0.4-0.7,0.5c-0.3,0.1-0.6,0.2-1,0.2c-0.4,0-0.7,0-0.9-0.1c-0.2-0.1-0.5-0.1-0.7-0.2v-0.7
		c0.2,0.1,0.5,0.2,0.7,0.3c0.3,0.1,0.6,0.1,0.9,0.1c0.4,0,0.7-0.1,0.9-0.2s0.3-0.3,0.3-0.6c0-0.1,0-0.3-0.1-0.4
		c-0.1-0.1-0.2-0.2-0.4-0.3c-0.2-0.1-0.4-0.2-0.8-0.3c-0.3-0.1-0.6-0.2-0.8-0.4c-0.2-0.1-0.4-0.3-0.5-0.4c-0.1-0.2-0.2-0.4-0.2-0.7
		c0-0.4,0.2-0.8,0.5-1c0.3-0.2,0.8-0.3,1.4-0.3c0.3,0,0.6,0,0.8,0.1c0.3,0.1,0.5,0.1,0.8,0.2l-0.3,0.6c-0.2-0.1-0.4-0.2-0.7-0.2
		c-0.2-0.1-0.5-0.1-0.7-0.1c-0.3,0-0.6,0.1-0.8,0.2s-0.3,0.3-0.3,0.5c0,0.2,0,0.3,0.1,0.4c0.1,0.1,0.2,0.2,0.4,0.3
		c0.2,0.1,0.4,0.2,0.8,0.3s0.6,0.2,0.8,0.4s0.4,0.3,0.5,0.5C293.7,309.6,293.8,309.8,293.8,310.1z M297.3,306.4
		c0.6,0,1.1,0.2,1.5,0.6c0.4,0.4,0.6,1.1,0.6,1.9c0,0.6-0.1,1.1-0.3,1.4c-0.2,0.4-0.4,0.7-0.7,0.9c-0.3,0.2-0.7,0.3-1.1,0.3
		c-0.3,0-0.5,0-0.7-0.1c-0.2-0.1-0.4-0.2-0.5-0.3c-0.1-0.1-0.2-0.2-0.3-0.4h-0.1c0,0.1,0,0.3,0,0.4c0,0.2,0,0.3,0,0.4v2H295v-7.2
		h0.6l0.1,0.7h0c0.1-0.2,0.2-0.3,0.3-0.4c0.1-0.1,0.3-0.2,0.5-0.3C296.8,306.4,297.1,306.4,297.3,306.4z M297.2,307
		c-0.4,0-0.6,0.1-0.8,0.2s-0.4,0.3-0.5,0.6c-0.1,0.3-0.1,0.6-0.1,1v0.1c0,0.4,0,0.8,0.1,1.1c0.1,0.3,0.2,0.5,0.5,0.7
		s0.5,0.2,0.9,0.2c0.3,0,0.6-0.1,0.8-0.2s0.4-0.4,0.5-0.7c0.1-0.3,0.2-0.6,0.2-1c0-0.6-0.1-1.1-0.3-1.4
		C298,307.2,297.7,307,297.2,307z M302.6,306.4c0.6,0,1,0.1,1.3,0.4c0.3,0.3,0.4,0.7,0.4,1.3v3.4h-0.5l-0.2-0.7h0
		c-0.1,0.2-0.3,0.3-0.4,0.5c-0.1,0.1-0.3,0.2-0.5,0.3c-0.2,0.1-0.4,0.1-0.7,0.1c-0.3,0-0.6-0.1-0.8-0.2c-0.2-0.1-0.4-0.3-0.6-0.5
		c-0.1-0.2-0.2-0.5-0.2-0.8c0-0.5,0.2-0.9,0.6-1.1c0.4-0.3,1-0.4,1.8-0.4l0.9,0v-0.3c0-0.4-0.1-0.7-0.3-0.9s-0.4-0.3-0.8-0.3
		c-0.3,0-0.5,0-0.8,0.1c-0.2,0.1-0.5,0.2-0.7,0.3l-0.2-0.6c0.2-0.1,0.5-0.2,0.8-0.3C301.9,306.4,302.2,306.4,302.6,306.4z
		 M303.6,309l-0.8,0c-0.6,0-1.1,0.1-1.3,0.3c-0.2,0.2-0.4,0.4-0.4,0.8c0,0.3,0.1,0.5,0.2,0.6c0.2,0.1,0.4,0.2,0.7,0.2
		c0.4,0,0.8-0.1,1.1-0.4c0.3-0.2,0.4-0.6,0.4-1.1V309z M307.9,311.6c-0.4,0-0.8-0.1-1.2-0.3s-0.6-0.5-0.8-0.8
		c-0.2-0.4-0.3-0.9-0.3-1.4c0-0.6,0.1-1.1,0.3-1.5c0.2-0.4,0.5-0.7,0.8-0.8c0.4-0.2,0.8-0.3,1.2-0.3c0.2,0,0.5,0,0.7,0.1
		c0.2,0,0.4,0.1,0.6,0.2l-0.2,0.6c-0.2-0.1-0.3-0.1-0.5-0.2c-0.2-0.1-0.4-0.1-0.6-0.1c-0.3,0-0.6,0.1-0.9,0.2
		c-0.2,0.1-0.4,0.4-0.5,0.7c-0.1,0.3-0.2,0.6-0.2,1c0,0.4,0.1,0.8,0.2,1c0.1,0.3,0.3,0.5,0.5,0.7c0.2,0.1,0.5,0.2,0.8,0.2
		c0.3,0,0.5,0,0.7-0.1c0.2-0.1,0.4-0.1,0.6-0.2v0.7c-0.2,0.1-0.4,0.1-0.6,0.2C308.4,311.5,308.2,311.6,307.9,311.6z M312.3,306.4
		c0.4,0,0.8,0.1,1.1,0.3s0.5,0.5,0.7,0.8c0.2,0.3,0.2,0.7,0.2,1.2v0.5h-3.5c0,0.6,0.2,1,0.4,1.3s0.7,0.5,1.2,0.5
		c0.3,0,0.6,0,0.8-0.1c0.2-0.1,0.5-0.1,0.8-0.2v0.7c-0.2,0.1-0.5,0.2-0.8,0.2s-0.5,0.1-0.9,0.1c-0.5,0-0.9-0.1-1.3-0.3
		c-0.4-0.2-0.6-0.5-0.8-0.9c-0.2-0.4-0.3-0.8-0.3-1.4s0.1-1,0.3-1.4c0.2-0.4,0.4-0.7,0.8-0.9C311.4,306.5,311.8,306.4,312.3,306.4z
		 M312.2,307c-0.4,0-0.7,0.1-1,0.4c-0.2,0.3-0.4,0.6-0.4,1.1h2.6c0-0.3,0-0.6-0.1-0.8c-0.1-0.2-0.2-0.4-0.4-0.5
		C312.8,307.1,312.5,307,312.2,307z"/>
	<path class="st7" d="M265.8,322.5l-0.8-2.1h-2.7l-0.8,2.1h-0.8l2.6-6.7h0.7l2.6,6.7H265.8z M264.7,319.7l-0.8-2.1
		c0-0.1,0-0.1-0.1-0.3c0-0.1-0.1-0.2-0.1-0.4c0-0.1-0.1-0.2-0.1-0.3c0,0.1-0.1,0.2-0.1,0.4c0,0.1-0.1,0.2-0.1,0.3s-0.1,0.2-0.1,0.3
		l-0.8,2.1H264.7z M269.2,322.6c-0.6,0-1.1-0.2-1.5-0.6c-0.4-0.4-0.5-1.1-0.5-1.9s0.2-1.5,0.6-1.9c0.4-0.4,0.9-0.7,1.5-0.7
		c0.3,0,0.5,0,0.7,0.1c0.2,0.1,0.4,0.2,0.5,0.3c0.1,0.1,0.3,0.2,0.4,0.4h0c0-0.1,0-0.2,0-0.4s0-0.3,0-0.4v-2h0.8v7.1h-0.6l-0.1-0.7
		h0c-0.1,0.1-0.2,0.3-0.4,0.4c-0.1,0.1-0.3,0.2-0.5,0.3S269.4,322.6,269.2,322.6z M269.3,321.9c0.5,0,0.9-0.2,1.1-0.5
		c0.2-0.3,0.3-0.8,0.3-1.4V320c0-0.6-0.1-1.1-0.3-1.5c-0.2-0.3-0.6-0.5-1.2-0.5c-0.5,0-0.8,0.2-1,0.5c-0.2,0.4-0.3,0.8-0.3,1.5
		c0,0.6,0.1,1.1,0.3,1.4C268.5,321.8,268.8,321.9,269.3,321.9z M278.5,317.4c0.6,0,1,0.1,1.2,0.4c0.3,0.3,0.4,0.7,0.4,1.4v3.3h-0.8
		v-3.2c0-0.4-0.1-0.7-0.3-0.9c-0.2-0.2-0.4-0.3-0.8-0.3c-0.5,0-0.8,0.1-1,0.4s-0.3,0.7-0.3,1.2v2.8h-0.8v-3.2c0-0.3,0-0.5-0.1-0.7
		c-0.1-0.2-0.2-0.3-0.3-0.4s-0.3-0.1-0.6-0.1c-0.3,0-0.6,0.1-0.8,0.2c-0.2,0.1-0.3,0.3-0.4,0.6c-0.1,0.3-0.1,0.6-0.1,1v2.6h-0.8v-5
		h0.6l0.1,0.7h0c0.1-0.2,0.2-0.3,0.4-0.4c0.2-0.1,0.3-0.2,0.5-0.3c0.2-0.1,0.4-0.1,0.6-0.1c0.4,0,0.7,0.1,1,0.2
		c0.3,0.1,0.4,0.3,0.6,0.6h0c0.2-0.3,0.4-0.5,0.7-0.6C277.9,317.5,278.2,317.4,278.5,317.4z M282.5,317.5v5h-0.8v-5H282.5z
		 M282.1,315.6c0.1,0,0.2,0,0.3,0.1c0.1,0.1,0.1,0.2,0.1,0.4c0,0.2,0,0.3-0.1,0.4c-0.1,0.1-0.2,0.1-0.3,0.1c-0.1,0-0.2,0-0.3-0.1
		c-0.1-0.1-0.1-0.2-0.1-0.4c0-0.2,0-0.3,0.1-0.4C281.9,315.6,282,315.6,282.1,315.6z M286.4,317.4c0.6,0,1,0.1,1.3,0.4
		c0.3,0.3,0.5,0.7,0.5,1.4v3.2h-0.7v-3.2c0-0.4-0.1-0.7-0.3-0.9c-0.2-0.2-0.5-0.3-0.9-0.3c-0.6,0-0.9,0.2-1.2,0.5
		c-0.2,0.3-0.3,0.8-0.3,1.4v2.6h-0.8v-5h0.6l0.1,0.7h0c0.1-0.2,0.2-0.3,0.4-0.4c0.2-0.1,0.3-0.2,0.5-0.3
		C286,317.4,286.2,317.4,286.4,317.4z M290.6,317.5v5h-0.8v-5H290.6z M290.2,315.6c0.1,0,0.2,0,0.3,0.1c0.1,0.1,0.1,0.2,0.1,0.4
		c0,0.2,0,0.3-0.1,0.4c-0.1,0.1-0.2,0.1-0.3,0.1c-0.1,0-0.2,0-0.3-0.1c-0.1-0.1-0.1-0.2-0.1-0.4c0-0.2,0-0.3,0.1-0.4
		C290,315.6,290.1,315.6,290.2,315.6z M295.4,321.1c0,0.3-0.1,0.6-0.2,0.8c-0.2,0.2-0.4,0.4-0.7,0.5c-0.3,0.1-0.6,0.2-1,0.2
		c-0.4,0-0.7,0-0.9-0.1c-0.2-0.1-0.5-0.1-0.7-0.2v-0.7c0.2,0.1,0.5,0.2,0.7,0.3c0.3,0.1,0.6,0.1,0.9,0.1c0.4,0,0.7-0.1,0.9-0.2
		s0.3-0.3,0.3-0.6c0-0.1,0-0.3-0.1-0.4c-0.1-0.1-0.2-0.2-0.4-0.3c-0.2-0.1-0.4-0.2-0.8-0.3c-0.3-0.1-0.6-0.2-0.8-0.4
		c-0.2-0.1-0.4-0.3-0.5-0.4c-0.1-0.2-0.2-0.4-0.2-0.7c0-0.4,0.2-0.8,0.5-1c0.3-0.2,0.8-0.3,1.4-0.3c0.3,0,0.6,0,0.8,0.1
		c0.3,0.1,0.5,0.1,0.8,0.2l-0.3,0.6c-0.2-0.1-0.4-0.2-0.7-0.2c-0.2-0.1-0.5-0.1-0.7-0.1c-0.3,0-0.6,0.1-0.8,0.2s-0.3,0.3-0.3,0.5
		c0,0.2,0,0.3,0.1,0.4c0.1,0.1,0.2,0.2,0.4,0.3c0.2,0.1,0.4,0.2,0.8,0.3s0.6,0.2,0.8,0.4s0.4,0.3,0.5,0.5
		C295.3,320.6,295.4,320.8,295.4,321.1z M298.2,321.9c0.1,0,0.2,0,0.4,0c0.1,0,0.2,0,0.3-0.1v0.6c-0.1,0-0.2,0.1-0.4,0.1
		c-0.2,0-0.3,0-0.5,0c-0.3,0-0.5,0-0.7-0.1c-0.2-0.1-0.4-0.2-0.5-0.5c-0.1-0.2-0.2-0.5-0.2-0.9v-3H296v-0.4l0.7-0.3l0.3-1.1h0.5v1.2
		h1.5v0.6h-1.5v2.9c0,0.3,0.1,0.5,0.2,0.7S298,321.9,298.2,321.9z M302.2,317.4c0.1,0,0.2,0,0.3,0c0.1,0,0.2,0,0.3,0l-0.1,0.7
		c-0.1,0-0.2,0-0.3,0c-0.1,0-0.2,0-0.3,0c-0.2,0-0.4,0-0.6,0.1c-0.2,0.1-0.3,0.2-0.5,0.3c-0.1,0.1-0.2,0.3-0.3,0.5
		c-0.1,0.2-0.1,0.4-0.1,0.7v2.7h-0.8v-5h0.6l0.1,0.9h0c0.1-0.2,0.2-0.3,0.4-0.5s0.3-0.3,0.5-0.4C301.7,317.4,302,317.4,302.2,317.4z
		 M305.6,317.4c0.6,0,1,0.1,1.3,0.4c0.3,0.3,0.4,0.7,0.4,1.3v3.4h-0.5l-0.2-0.7h0c-0.1,0.2-0.3,0.3-0.4,0.5
		c-0.1,0.1-0.3,0.2-0.5,0.3c-0.2,0.1-0.4,0.1-0.7,0.1c-0.3,0-0.6-0.1-0.8-0.2c-0.2-0.1-0.4-0.3-0.6-0.5c-0.1-0.2-0.2-0.5-0.2-0.8
		c0-0.5,0.2-0.9,0.6-1.1c0.4-0.3,1-0.4,1.8-0.4l0.9,0v-0.3c0-0.4-0.1-0.7-0.3-0.9s-0.4-0.3-0.8-0.3c-0.3,0-0.5,0-0.8,0.1
		c-0.2,0.1-0.5,0.2-0.7,0.3l-0.2-0.6c0.2-0.1,0.5-0.2,0.8-0.3C305,317.4,305.3,317.4,305.6,317.4z M306.6,320l-0.8,0
		c-0.6,0-1.1,0.1-1.3,0.3c-0.2,0.2-0.4,0.4-0.4,0.8c0,0.3,0.1,0.5,0.2,0.6c0.2,0.1,0.4,0.2,0.7,0.2c0.4,0,0.8-0.1,1.1-0.4
		c0.3-0.2,0.4-0.6,0.4-1.1V320z M310.5,321.9c0.1,0,0.2,0,0.4,0c0.1,0,0.2,0,0.3-0.1v0.6c-0.1,0-0.2,0.1-0.4,0.1c-0.2,0-0.3,0-0.5,0
		c-0.3,0-0.5,0-0.7-0.1c-0.2-0.1-0.4-0.2-0.5-0.5c-0.1-0.2-0.2-0.5-0.2-0.9v-3h-0.7v-0.4l0.7-0.3l0.3-1.1h0.5v1.2h1.5v0.6h-1.5v2.9
		c0,0.3,0.1,0.5,0.2,0.7C310.1,321.8,310.3,321.9,310.5,321.9z M316.6,320c0,0.4-0.1,0.8-0.2,1.1s-0.3,0.6-0.5,0.8s-0.4,0.4-0.7,0.5
		c-0.3,0.1-0.6,0.2-1,0.2c-0.3,0-0.6-0.1-0.9-0.2c-0.3-0.1-0.5-0.3-0.7-0.5s-0.4-0.5-0.5-0.8s-0.2-0.7-0.2-1.1c0-0.6,0.1-1,0.3-1.4
		s0.5-0.7,0.8-0.9s0.8-0.3,1.2-0.3c0.4,0,0.8,0.1,1.2,0.3c0.3,0.2,0.6,0.5,0.8,0.9C316.5,318.9,316.6,319.4,316.6,320z M312.8,320
		c0,0.4,0.1,0.7,0.2,1c0.1,0.3,0.3,0.5,0.5,0.7c0.2,0.2,0.5,0.2,0.9,0.2c0.3,0,0.6-0.1,0.8-0.2c0.2-0.2,0.4-0.4,0.5-0.7
		c0.1-0.3,0.2-0.7,0.2-1c0-0.4-0.1-0.8-0.2-1c-0.1-0.3-0.3-0.5-0.5-0.7c-0.2-0.2-0.5-0.2-0.8-0.2c-0.5,0-0.9,0.2-1.2,0.5
		C312.9,318.9,312.8,319.3,312.8,320z M320.1,317.4c0.1,0,0.2,0,0.3,0c0.1,0,0.2,0,0.3,0l-0.1,0.7c-0.1,0-0.2,0-0.3,0
		c-0.1,0-0.2,0-0.3,0c-0.2,0-0.4,0-0.6,0.1c-0.2,0.1-0.3,0.2-0.5,0.3c-0.1,0.1-0.2,0.3-0.3,0.5c-0.1,0.2-0.1,0.4-0.1,0.7v2.7h-0.8
		v-5h0.6l0.1,0.9h0c0.1-0.2,0.2-0.3,0.4-0.5s0.3-0.3,0.5-0.4C319.7,317.4,319.9,317.4,320.1,317.4z"/>
	<path class="st4" d="M234.5,333.9v-40.9h15.9v40.9H234.5z"/>
	<path class="st6" d="M234.5,333.9v-40.9h15.9v40.9H234.5z"/>
	<path class="st7" d="M242.2,322.2c0.4,0,0.8,0.1,1.2,0.2c0.4,0.1,0.7,0.3,0.9,0.5c0.3,0.2,0.5,0.5,0.6,0.8c0.1,0.3,0.2,0.7,0.2,1.1
		c0,0.4-0.1,0.8-0.2,1.2c-0.1,0.3-0.3,0.6-0.6,0.8c-0.3,0.2-0.6,0.4-0.9,0.5c-0.4,0.1-0.8,0.2-1.2,0.2c-0.6,0-1.1-0.1-1.5-0.3
		c-0.4-0.2-0.8-0.5-1-0.9c-0.2-0.4-0.4-0.9-0.4-1.5c0-0.6,0.1-1.1,0.4-1.4c0.2-0.4,0.6-0.7,1-0.9
		C241.1,322.3,241.6,322.2,242.2,322.2z M242.2,326.8c0.5,0,0.9-0.1,1.2-0.2c0.4-0.1,0.6-0.4,0.8-0.6c0.2-0.3,0.3-0.6,0.3-1.1
		c0-0.4-0.1-0.8-0.3-1.1c-0.2-0.3-0.5-0.5-0.8-0.6c-0.4-0.1-0.8-0.2-1.2-0.2c-0.7,0-1.3,0.2-1.7,0.5c-0.4,0.3-0.6,0.8-0.6,1.4
		c0,0.4,0.1,0.8,0.3,1.1c0.2,0.3,0.5,0.5,0.8,0.6C241.3,326.7,241.8,326.8,242.2,326.8z M245.1,317.6l-2.5,0.8
		c-0.1,0-0.2,0.1-0.3,0.1c-0.1,0-0.2,0.1-0.3,0.1c-0.1,0-0.2,0-0.3,0.1c-0.1,0-0.2,0-0.2,0v0c0.1,0,0.1,0,0.2,0c0.1,0,0.2,0,0.3,0.1
		c0.1,0,0.2,0,0.3,0.1c0.1,0,0.2,0.1,0.3,0.1l2.5,0.8v0.7l-4.3,1.2V321l2.4-0.6c0.2,0,0.3-0.1,0.5-0.1c0.1,0,0.3-0.1,0.4-0.1
		c0.1,0,0.3-0.1,0.3-0.1v0c-0.1,0-0.1,0-0.2-0.1c-0.1,0-0.2,0-0.3-0.1c-0.1,0-0.2,0-0.3-0.1c-0.1,0-0.2-0.1-0.3-0.1l-2.5-0.8v-0.7
		l2.5-0.8c0.1,0,0.3-0.1,0.4-0.1c0.1,0,0.3-0.1,0.4-0.1c0.1,0,0.2-0.1,0.3-0.1v0c-0.1,0-0.2,0-0.3,0c-0.1,0-0.3-0.1-0.4-0.1
		c-0.2,0-0.3-0.1-0.5-0.1l-2.4-0.6v-0.7l4.3,1.2V317.6z M240.7,312.8c0-0.5,0.1-0.9,0.4-1.1c0.3-0.3,0.6-0.4,1.2-0.4h2.8v0.6h-2.8
		c-0.4,0-0.6,0.1-0.8,0.2c-0.2,0.2-0.3,0.4-0.3,0.7c0,0.5,0.1,0.8,0.4,1c0.3,0.2,0.6,0.3,1.2,0.3h2.2v0.6h-4.3v-0.5l0.6-0.1v0
		c-0.1-0.1-0.3-0.2-0.4-0.3c-0.1-0.1-0.2-0.3-0.2-0.5C240.8,313.2,240.7,313,240.7,312.8z M240.7,308.3c0-0.4,0.1-0.7,0.2-0.9
		c0.2-0.3,0.4-0.5,0.7-0.6c0.3-0.1,0.6-0.2,1-0.2h0.4v3c0.5,0,0.9-0.1,1.1-0.4c0.3-0.2,0.4-0.6,0.4-1c0-0.3,0-0.5-0.1-0.7
		c-0.1-0.2-0.1-0.4-0.2-0.7h0.6c0.1,0.2,0.2,0.4,0.2,0.7c0.1,0.2,0.1,0.5,0.1,0.8c0,0.4-0.1,0.8-0.2,1.1c-0.2,0.3-0.4,0.5-0.7,0.7
		c-0.3,0.2-0.7,0.2-1.2,0.2c-0.5,0-0.9-0.1-1.2-0.2c-0.3-0.2-0.6-0.4-0.8-0.7C240.8,309,240.7,308.7,240.7,308.3z M241.3,308.3
		c0,0.3,0.1,0.6,0.3,0.8c0.2,0.2,0.5,0.3,0.9,0.4v-2.3c-0.2,0-0.5,0-0.7,0.1c-0.2,0.1-0.3,0.2-0.5,0.3
		C241.3,307.9,241.3,308.1,241.3,308.3z M240.7,303.5c0-0.1,0-0.2,0-0.3c0-0.1,0-0.2,0-0.2l0.6,0.1c0,0.1,0,0.1,0,0.2
		c0,0.1,0,0.2,0,0.2c0,0.2,0,0.3,0.1,0.5c0.1,0.1,0.2,0.3,0.3,0.4c0.1,0.1,0.3,0.2,0.5,0.3c0.2,0.1,0.4,0.1,0.6,0.1h2.3v0.7h-4.3
		v-0.5l0.8-0.1v0c-0.2-0.1-0.3-0.2-0.4-0.3c-0.1-0.1-0.2-0.3-0.3-0.4C240.8,303.9,240.7,303.7,240.7,303.5z M243.9,299.4
		c0.3,0,0.5,0.1,0.7,0.2c0.2,0.1,0.3,0.3,0.4,0.6c0.1,0.2,0.1,0.6,0.1,0.9c0,0.3,0,0.5-0.1,0.8c0,0.2-0.1,0.4-0.2,0.6h-0.6
		c0.1-0.2,0.2-0.4,0.2-0.6c0.1-0.2,0.1-0.5,0.1-0.7c0-0.4-0.1-0.6-0.2-0.8c-0.1-0.2-0.3-0.2-0.5-0.2c-0.1,0-0.2,0-0.3,0.1
		c-0.1,0.1-0.2,0.2-0.3,0.3c-0.1,0.2-0.2,0.4-0.3,0.6c-0.1,0.3-0.2,0.5-0.3,0.7c-0.1,0.2-0.2,0.4-0.4,0.5c-0.1,0.1-0.3,0.2-0.6,0.2
		c-0.4,0-0.6-0.1-0.8-0.4c-0.2-0.3-0.3-0.7-0.3-1.2c0-0.3,0-0.5,0.1-0.7c0.1-0.2,0.1-0.4,0.2-0.6l0.5,0.2c-0.1,0.2-0.1,0.4-0.2,0.6
		c-0.1,0.2-0.1,0.4-0.1,0.6c0,0.3,0.1,0.5,0.2,0.7c0.1,0.2,0.2,0.2,0.4,0.2c0.1,0,0.3,0,0.3-0.1c0.1-0.1,0.2-0.2,0.2-0.4
		c0.1-0.2,0.2-0.4,0.3-0.7c0.1-0.3,0.2-0.5,0.3-0.7c0.1-0.2,0.2-0.3,0.4-0.5C243.5,299.5,243.7,299.4,243.9,299.4z"/>
	<path class="st4" d="M250,265.7L250,265.7c0-2,1.6-3.6,3.6-3.6h7.1l0,0h16.2H311c1,0,1.9,0.4,2.6,1.1c0.7,0.7,1.1,1.6,1.1,2.6v9.1
		l0,0v5.4l0,0c0,2-1.6,3.6-3.6,3.6h-34.1l-4.2,11.4l-12-11.4h-7.1c-2,0-3.6-1.6-3.6-3.6l0,0v-5.4l0,0V265.7z"/>
	<path class="st6" d="M250,265.7L250,265.7c0-2,1.6-3.6,3.6-3.6h7.1l0,0h16.2H311c1,0,1.9,0.4,2.6,1.1c0.7,0.7,1.1,1.6,1.1,2.6v9.1
		l0,0v5.4l0,0c0,2-1.6,3.6-3.6,3.6h-34.1l-4.2,11.4l-12-11.4h-7.1c-2,0-3.6-1.6-3.6-3.6l0,0v-5.4l0,0V265.7z"/>
	<path class="st2" d="M260.9,275.6l1.2-5.7h2.9l-0.1,0.6h-2.2l-0.4,2.1h2.1l-0.1,0.6h-2.1l-0.5,2.4H260.9z M265.9,275.7
		c-0.2,0-0.4,0-0.6-0.1c-0.2-0.1-0.3-0.2-0.4-0.4c-0.1-0.2-0.1-0.3-0.1-0.6c0-0.1,0-0.2,0-0.3c0-0.1,0-0.2,0.1-0.3l0.6-2.6h0.7
		l-0.6,2.7c0,0.1,0,0.2-0.1,0.3c0,0.1,0,0.2,0,0.2c0,0.2,0,0.3,0.1,0.4c0.1,0.1,0.3,0.1,0.5,0.1c0.2,0,0.4-0.1,0.6-0.2
		c0.2-0.1,0.4-0.3,0.6-0.6c0.2-0.3,0.3-0.7,0.4-1.1l0.4-1.9h0.6l-0.9,4.3h-0.5l0.1-0.8h0c-0.1,0.1-0.2,0.3-0.4,0.4
		c-0.1,0.1-0.3,0.2-0.5,0.3C266.4,275.6,266.2,275.7,265.9,275.7z M270.5,275.7c-0.3,0-0.5-0.1-0.7-0.2c-0.2-0.1-0.3-0.4-0.3-0.7
		c0-0.1,0-0.2,0-0.3c0-0.1,0-0.2,0-0.3l0.5-2.4h-0.7l0.1-0.3l0.7-0.3l0.5-0.9h0.4l-0.2,1h1.1l-0.1,0.5h-1.1l-0.5,2.4
		c0,0.1,0,0.2,0,0.2c0,0.1,0,0.2,0,0.2c0,0.1,0,0.2,0.1,0.3c0.1,0.1,0.2,0.1,0.3,0.1c0.1,0,0.2,0,0.3,0c0.1,0,0.2,0,0.3-0.1v0.5
		c-0.1,0-0.2,0.1-0.3,0.1C270.7,275.7,270.6,275.7,270.5,275.7z M273.2,275.7c-0.2,0-0.4,0-0.6-0.1c-0.2-0.1-0.3-0.2-0.4-0.4
		c-0.1-0.2-0.1-0.3-0.1-0.6c0-0.1,0-0.2,0-0.3c0-0.1,0-0.2,0.1-0.3l0.6-2.6h0.7l-0.6,2.7c0,0.1,0,0.2-0.1,0.3c0,0.1,0,0.2,0,0.2
		c0,0.2,0,0.3,0.1,0.4c0.1,0.1,0.3,0.1,0.5,0.1c0.2,0,0.4-0.1,0.6-0.2c0.2-0.1,0.4-0.3,0.6-0.6c0.2-0.3,0.3-0.7,0.4-1.1l0.4-1.9h0.6
		l-0.9,4.3h-0.5l0.1-0.8h0c-0.1,0.1-0.2,0.3-0.4,0.4c-0.1,0.1-0.3,0.2-0.5,0.3C273.6,275.6,273.4,275.7,273.2,275.7z M276.5,275.6
		l0.9-4.3h0.5l-0.1,0.8h0c0.1-0.1,0.2-0.3,0.3-0.4c0.1-0.1,0.3-0.3,0.4-0.3c0.2-0.1,0.4-0.1,0.6-0.1c0.1,0,0.2,0,0.2,0
		c0.1,0,0.2,0,0.2,0l-0.1,0.6c-0.1,0-0.1,0-0.2,0c-0.1,0-0.1,0-0.2,0c-0.2,0-0.4,0.1-0.6,0.2c-0.2,0.1-0.3,0.2-0.5,0.4
		c-0.1,0.2-0.2,0.4-0.3,0.6c-0.1,0.2-0.2,0.4-0.2,0.6l-0.4,2H276.5z M281.3,275.7c-0.3,0-0.6-0.1-0.8-0.2c-0.2-0.1-0.4-0.3-0.5-0.6
		c-0.1-0.2-0.2-0.5-0.2-0.9c0-0.4,0.1-0.7,0.2-1c0.1-0.3,0.2-0.6,0.4-0.9c0.2-0.3,0.4-0.5,0.7-0.6c0.3-0.2,0.6-0.2,0.9-0.2
		c0.4,0,0.7,0.1,0.9,0.3c0.2,0.2,0.3,0.4,0.3,0.7c0,0.2-0.1,0.4-0.2,0.6c-0.1,0.2-0.3,0.3-0.5,0.5c-0.2,0.1-0.5,0.2-0.8,0.3
		c-0.3,0.1-0.7,0.1-1.1,0.1h-0.1c0,0,0,0.1,0,0.2c0,0.1,0,0.1,0,0.2c0,0.3,0.1,0.6,0.2,0.8c0.2,0.2,0.4,0.3,0.8,0.3
		c0.2,0,0.4,0,0.6-0.1c0.2-0.1,0.4-0.1,0.6-0.2v0.6c-0.2,0.1-0.4,0.2-0.6,0.2C281.8,275.7,281.6,275.7,281.3,275.7z M280.6,273.2
		L280.6,273.2c0.4,0,0.7,0,1-0.1c0.3-0.1,0.5-0.2,0.7-0.3c0.2-0.1,0.3-0.3,0.3-0.5c0-0.1-0.1-0.3-0.2-0.4c-0.1-0.1-0.2-0.1-0.5-0.1
		c-0.2,0-0.4,0.1-0.5,0.2c-0.2,0.1-0.3,0.3-0.5,0.5C280.8,272.6,280.7,272.9,280.6,273.2z M285.8,275.6l1.2-5.7h1.2
		c0.6,0,1,0.1,1.3,0.4c0.3,0.2,0.4,0.6,0.4,1.1c0,0.3-0.1,0.5-0.2,0.8c-0.1,0.2-0.2,0.4-0.5,0.6c-0.2,0.2-0.5,0.3-0.8,0.4l0.9,2.5
		h-0.7l-0.8-2.4h-1l-0.5,2.4H285.8z M287.1,272.7h0.7c0.3,0,0.5,0,0.7-0.1c0.2-0.1,0.4-0.2,0.5-0.3c0.1-0.1,0.2-0.2,0.3-0.4
		s0.1-0.3,0.1-0.5c0-0.3-0.1-0.6-0.3-0.7c-0.2-0.1-0.5-0.2-0.8-0.2h-0.6L287.1,272.7z M292,275.7c-0.3,0-0.6-0.1-0.8-0.2
		c-0.2-0.1-0.4-0.3-0.5-0.6c-0.1-0.2-0.2-0.5-0.2-0.9c0-0.3,0-0.5,0.1-0.8c0.1-0.3,0.2-0.5,0.3-0.8c0.1-0.2,0.3-0.4,0.4-0.6
		c0.2-0.2,0.4-0.3,0.6-0.4c0.2-0.1,0.5-0.2,0.8-0.2c0.3,0,0.6,0.1,0.8,0.2c0.2,0.1,0.4,0.3,0.5,0.6c0.1,0.2,0.2,0.5,0.2,0.9
		c0,0.3,0,0.5-0.1,0.8c-0.1,0.3-0.1,0.5-0.2,0.8c-0.1,0.2-0.3,0.4-0.4,0.6c-0.2,0.2-0.4,0.3-0.6,0.4
		C292.6,275.6,292.3,275.7,292,275.7z M292.1,275.1c0.2,0,0.3,0,0.5-0.1c0.1-0.1,0.3-0.2,0.4-0.3c0.1-0.1,0.2-0.3,0.3-0.5
		c0.1-0.2,0.2-0.4,0.2-0.6c0.1-0.2,0.1-0.5,0.1-0.8c0-0.2,0-0.3-0.1-0.5c-0.1-0.2-0.1-0.3-0.3-0.4c-0.1-0.1-0.3-0.2-0.5-0.2
		c-0.2,0-0.3,0-0.5,0.1c-0.2,0.1-0.3,0.2-0.4,0.3c-0.1,0.1-0.2,0.3-0.3,0.5c-0.1,0.2-0.2,0.4-0.2,0.6c0,0.2-0.1,0.4-0.1,0.7
		c0,0.3,0.1,0.6,0.2,0.8C291.5,275,291.8,275.1,292.1,275.1z M294.8,275.6l1.3-6.1h0.7l-1.3,6.1H294.8z M298.5,275.7
		c-0.3,0-0.6-0.1-0.8-0.2c-0.2-0.1-0.4-0.3-0.5-0.6c-0.1-0.2-0.2-0.5-0.2-0.9c0-0.4,0.1-0.7,0.2-1c0.1-0.3,0.2-0.6,0.4-0.9
		c0.2-0.3,0.4-0.5,0.7-0.6c0.3-0.2,0.6-0.2,0.9-0.2c0.4,0,0.7,0.1,0.9,0.3c0.2,0.2,0.3,0.4,0.3,0.7c0,0.2-0.1,0.4-0.2,0.6
		c-0.1,0.2-0.3,0.3-0.5,0.5c-0.2,0.1-0.5,0.2-0.8,0.3c-0.3,0.1-0.7,0.1-1.1,0.1h-0.1c0,0,0,0.1,0,0.2c0,0.1,0,0.1,0,0.2
		c0,0.3,0.1,0.6,0.2,0.8c0.2,0.2,0.4,0.3,0.8,0.3c0.2,0,0.4,0,0.6-0.1c0.2-0.1,0.4-0.1,0.6-0.2v0.6c-0.2,0.1-0.4,0.2-0.6,0.2
		C299,275.7,298.8,275.7,298.5,275.7z M297.7,273.2L297.7,273.2c0.4,0,0.7,0,1-0.1c0.3-0.1,0.5-0.2,0.7-0.3c0.2-0.1,0.3-0.3,0.3-0.5
		c0-0.1-0.1-0.3-0.2-0.4c-0.1-0.1-0.2-0.1-0.5-0.1c-0.2,0-0.4,0.1-0.5,0.2c-0.2,0.1-0.3,0.3-0.5,0.5
		C297.9,272.6,297.8,272.9,297.7,273.2z M301.8,275.7c-0.3,0-0.5,0-0.7-0.1c-0.2-0.1-0.4-0.1-0.5-0.2v-0.6c0.1,0.1,0.3,0.2,0.5,0.2
		c0.2,0.1,0.4,0.1,0.7,0.1c0.2,0,0.4,0,0.5-0.1c0.1-0.1,0.3-0.1,0.3-0.2c0.1-0.1,0.1-0.2,0.1-0.4c0-0.1,0-0.2-0.1-0.3
		c0-0.1-0.1-0.2-0.2-0.2c-0.1-0.1-0.2-0.2-0.4-0.3c-0.2-0.1-0.4-0.2-0.5-0.3c-0.1-0.1-0.2-0.2-0.3-0.4c-0.1-0.1-0.1-0.3-0.1-0.5
		c0-0.2,0.1-0.5,0.2-0.6c0.1-0.2,0.3-0.3,0.5-0.4c0.2-0.1,0.5-0.2,0.8-0.2c0.3,0,0.5,0,0.7,0.1c0.2,0.1,0.4,0.1,0.6,0.2l-0.2,0.5
		c-0.1-0.1-0.3-0.1-0.5-0.2c-0.2-0.1-0.4-0.1-0.6-0.1c-0.2,0-0.4,0.1-0.6,0.2c-0.1,0.1-0.2,0.3-0.2,0.5c0,0.1,0,0.2,0.1,0.3
		c0,0.1,0.1,0.2,0.2,0.2c0.1,0.1,0.3,0.2,0.5,0.3c0.2,0.1,0.3,0.2,0.5,0.3c0.1,0.1,0.3,0.2,0.3,0.4c0.1,0.1,0.1,0.3,0.1,0.5
		c0,0.3-0.1,0.5-0.2,0.7c-0.1,0.2-0.3,0.3-0.6,0.5C302.4,275.6,302.1,275.7,301.8,275.7z"/>
	<path class="st1" d="M302.3,184h28.9v21.7h-28.9V184z"/>
	<g transform="matrix(0.12140629921259842 0.0 0.0 0.12140944881889763 302.27444855643046 183.34908215223098)">
		<g>
			<defs>
				<rect id="SVGID_4_" x="104.6" y="84.3" width="28.9" height="21.7"/>
			</defs>
			<clipPath id="SVGID_5_">
				<use xlink:href="#SVGID_4_"  style="overflow:visible;"/>
			</clipPath>
			<g style="clip-path:url(#SVGID_5_);enable-background:new    ;">
				
					<image style="overflow:visible;" width="238" height="179" xlink:href="5879070F7345A641.png"  transform="matrix(1 0 0 1 0 5.6665)">
				</image>
			</g>
		</g>
	</g>
</g>
</svg>
