<svg width="45" height="40" viewBox="0 0 45 40" fill="none" xmlns="http://www.w3.org/2000/svg">
<mask id="mask0_21500_6243" style="mask-type:luminance" maskUnits="userSpaceOnUse" x="0" y="0" width="45" height="40">
<path d="M45 0H0V40H45V0Z" fill="white"/>
</mask>
<g mask="url(#mask0_21500_6243)">
<path d="M22.5217 40C16.2112 40 9.90077 40 3.59033 40C1.9148 40 0.65271 39.118 0.173987 37.6185C0.065186 37.2438 -9.44443e-05 36.8248 -9.44443e-05 36.4278C-9.44443e-05 30.0773 -0.0218546 23.7045 -9.44443e-05 17.3539C-9.44443e-05 16.8247 0.0869463 16.2955 0.239267 15.7883C1.82776 10.849 3.41625 5.93165 5.00475 1.01433C5.30937 0.088203 5.43995 0 6.41915 0C17.0381 0 27.657 0 38.2978 0C39.2553 0 39.3858 0.088203 39.6688 0.970232C41.17 5.46858 42.6497 9.98897 44.1512 14.4873C44.2817 14.8842 44.4995 15.2591 44.63 15.656C44.7822 16.1852 45 16.7144 45 17.2436C45.0218 23.6825 45.0218 30.1433 45 36.5823C45 38.4785 43.4768 39.978 41.5618 39.978C35.2078 40 28.8757 40 22.5217 40ZM28.9628 13.7596C33.3583 13.7596 37.732 13.7596 42.1492 13.7596C42.1057 13.5612 42.084 13.4509 42.0405 13.3186C40.8003 9.57 39.5598 5.84345 38.3413 2.09482C38.2108 1.67585 37.9495 1.63175 37.6015 1.63175C27.4395 1.63175 17.2557 1.63175 7.09373 1.63175C6.6585 1.63175 6.46268 1.78611 6.3321 2.20507C5.15705 5.9096 3.96025 9.6141 2.76345 13.2966C2.71993 13.4509 2.6764 13.6053 2.63288 13.7817C7.13723 13.7817 11.5981 13.7817 16.0371 13.7817C16.2547 15.4796 16.7335 15.9206 18.409 15.9206C21.1508 15.9206 23.8926 15.9206 26.6125 15.9206C28.2445 15.9427 28.7885 15.4796 28.9628 13.7596ZM16.3418 27.9163C16.4941 27.365 16.6464 26.8578 16.777 26.3505C17.0381 25.3363 16.5376 24.3881 15.6237 24.1235C14.6662 23.8589 13.7741 24.366 13.4695 25.3805C13.0995 26.6152 12.7296 27.872 12.3814 29.129C12.0333 30.386 12.8166 31.4223 14.1005 31.4223C19.8887 31.4223 25.6552 31.4223 31.4433 31.4223C32.5748 31.4223 33.4235 30.408 33.1188 29.3055C32.7055 27.872 32.2268 26.483 31.7263 25.0717C31.465 24.344 30.7905 24.0132 30.029 24.0573C29.3325 24.1014 28.7015 24.5645 28.5492 25.248C28.4622 25.667 28.5275 26.108 28.5928 26.549C28.6798 27.0123 28.8538 27.431 29.028 27.9163C24.7412 27.9163 20.585 27.9163 16.3418 27.9163Z" fill="#00B39F" fill-opacity="0.15"/>
<path d="M22.3486 10.342C27.5275 10.342 32.7282 10.342 37.9072 10.342C38.1465 10.342 38.473 10.342 38.6252 10.4743C38.821 10.6727 39.017 11.0255 38.9952 11.2901C38.9735 11.7312 38.6252 11.9517 38.2117 11.9517C37.3632 11.9737 36.5145 11.9517 35.6657 11.9517C26.048 11.9517 16.4516 11.9517 6.83365 11.9517C6.72485 11.9517 6.61605 11.9517 6.50725 11.9517C5.91973 11.9296 5.5498 11.6209 5.5498 11.1137C5.5498 10.6286 5.91973 10.2979 6.529 10.2979C9.14023 10.2979 11.7514 10.2979 14.3627 10.2979C17.0174 10.342 19.6721 10.342 22.3486 10.342Z" fill="#51636B" fill-opacity="0.15"/>
<path d="M22.2824 6.90186C27.1133 6.90186 31.9658 6.90186 36.7965 6.90186C37.014 6.90186 37.2315 6.90186 37.4493 6.92391C37.8845 6.99006 38.1455 7.23263 38.1673 7.69568C38.189 8.15876 37.928 8.44541 37.471 8.55566C37.297 8.59976 37.101 8.57771 36.927 8.57771C27.1133 8.57771 17.3211 8.57771 7.50727 8.57771C7.28967 8.57771 7.00677 8.59976 6.87622 8.48951C6.65862 8.26901 6.39749 7.91621 6.41924 7.67363C6.44102 7.40903 6.78917 7.16648 7.05029 6.96801C7.18084 6.87981 7.44197 6.92391 7.63782 6.92391C12.5338 6.90186 17.4081 6.90186 22.2824 6.90186Z" fill="#51636B" fill-opacity="0.15"/>
<path d="M22.282 5.11528C17.7994 5.11528 13.3386 5.11528 8.85598 5.11528C8.70366 5.11528 8.52958 5.13733 8.37725 5.09323C7.94205 5.00503 7.65918 4.71838 7.65918 4.2553C7.65918 3.79225 7.94206 3.52763 8.39901 3.43943C8.52958 3.41738 8.6819 3.41738 8.83423 3.41738C17.7994 3.41738 26.7645 3.41738 35.7297 3.41738C35.882 3.41738 36.0127 3.39533 36.165 3.43943C36.6002 3.52763 36.883 3.79225 36.9047 4.2553C36.9265 4.65223 36.5785 5.04913 36.1215 5.11528C35.9692 5.13733 35.8385 5.11528 35.6862 5.11528C31.2472 5.11528 26.7645 5.11528 22.282 5.11528Z" fill="#51636B" fill-opacity="0.15"/>
</g>
</svg>
