<svg width="23" height="25" viewBox="0 0 23 25" fill="none" xmlns="http://www.w3.org/2000/svg">
<path fill-rule="evenodd" clip-rule="evenodd" d="M14.3756 7.60227C14.3756 6.56845 14.7578 5.62391 15.3887 4.90228C14.5091 2.55068 12.2416 0.876465 9.58308 0.876465C6.16085 0.876465 3.38658 3.65073 3.38658 7.07297V10.0847C1.93288 10.1275 0.767578 11.3194 0.767578 12.7835V21.4235C0.767578 22.9146 1.97641 24.1235 3.46758 24.1235H15.7256C17.2167 24.1235 18.4256 22.9146 18.4256 21.4235V19.4795H18.1556C17.5591 19.4795 17.0756 18.9959 17.0756 18.3995V11.4598C15.5004 10.8864 14.3756 9.37569 14.3756 7.60227ZM6.08658 10.0835V7.07297C6.08658 5.1419 7.65201 3.57646 9.58308 3.57646C11.5141 3.57646 13.0796 5.1419 13.0796 7.07297V10.0835H6.08658ZM10.5956 17.7031C11.1266 17.4118 11.4866 16.8474 11.4866 16.199C11.4866 15.2521 10.719 14.4845 9.77208 14.4845C8.82519 14.4845 8.05758 15.2521 8.05758 16.199C8.05758 16.8474 8.41756 17.4118 8.94858 17.7031V19.6685C8.94858 20.1158 9.31123 20.4785 9.75858 20.4785H9.78558C10.2329 20.4785 10.5956 20.1158 10.5956 19.6685V17.7031ZM18.5876 9.62446C19.706 9.62446 20.6126 8.71784 20.6126 7.59946C20.6126 6.48109 19.706 5.57446 18.5876 5.57446C17.4692 5.57446 16.5626 6.48109 16.5626 7.59946C16.5626 8.71784 17.4692 9.62446 18.5876 9.62446ZM22.2326 7.59946C22.2326 9.28571 21.0875 10.7045 19.5326 11.1208V14.6095C19.5757 14.5984 19.621 14.5925 19.6676 14.5925H20.4236C20.7218 14.5925 20.9636 14.8342 20.9636 15.1325V15.6185C20.9636 15.9167 20.7218 16.1585 20.4236 16.1585H19.6676C19.621 16.1585 19.5757 16.1526 19.5326 16.1415V17.1475C19.5757 17.1364 19.621 17.1305 19.6676 17.1305H20.4236C20.7218 17.1305 20.9636 17.3722 20.9636 17.6705V18.1565C20.9636 18.4547 20.7218 18.6965 20.4236 18.6965H19.6676C19.5803 18.6965 19.4978 18.6757 19.4248 18.6389C19.265 18.9459 18.944 19.1555 18.5741 19.1555C18.0447 19.1555 17.6156 18.7263 17.6156 18.197V11.1134C16.0744 10.6881 14.9426 9.27594 14.9426 7.59946C14.9426 5.58639 16.5745 3.95446 18.5876 3.95446C20.6007 3.95446 22.2326 5.58639 22.2326 7.59946Z" fill="#B32700"/>
</svg>
