<!-- <svg id="Layer_1" data-name="Layer 1" xmlns="http://www.w3.org/2000/svg" viewBox="0 0 576.9 94.19"><title>layer5-light-no-trim</title><polygon points="18.76 0 0 0 0 93.78 88.91 93.78 88.91 75.03 18.76 75.03 18.76 0" style="fill:#fff"/><polygon points="135.84 0 98.33 93.78 119.72 93.78 145.22 28.14 163.39 75.03 132.22 75.03 125.22 93.78 192.11 93.78 154.59 0 135.84 0" style="fill:#fff"/><polygon points="218.58 32.83 195.14 0 171.69 0 209.2 56.27 209.2 93.78 227.96 93.78 227.96 56.27 265.47 0 242.32 0 218.58 32.83" style="fill:#fff"/><polygon points="273.56 14.77 273.56 18.76 273.56 37.51 273.56 60.39 273.56 93.78 362.46 93.78 362.46 75.03 292.32 75.03 292.32 60.39 292.32 56.27 346.21 56.27 346.21 37.51 292.32 37.51 292.32 18.76 362.46 18.76 362.46 0 273.56 0 273.56 14.77" style="fill:#fff"/><path d="M392.92,17.88H441V37.39H398.12l.18,17.88h12.87l34,38.51h23.16l-34-38.51h13.27a14.56,14.56,0,0,0,14.57-14.56V14.57A14.57,14.57,0,0,0,447.59,0h-73V93.78h18.76Z" style="fill:#fff"/><rect id="_Path_" data-name="&lt;Path&gt;" x="536.61" y="0.4" width="36.93" height="17.79" style="fill:#00b39f"/><path id="_Path_2" data-name="&lt;Path&gt;" d="M576.9,60.33V53c0-8.49-7.14-15.37-15.94-15.37h-59.6V32.74H479.54v21h75.54v6.57Z" style="fill:#00b39f"/><polygon id="_Path_3" data-name="&lt;Path&gt;" points="501.36 26.93 501.36 18.19 530.58 18.19 530.58 0.4 479.54 0.4 479.54 26.93 501.36 26.93" style="fill:#00d3a9"/><path id="_Path_4" data-name="&lt;Path&gt;" d="M555.08,66.05V76.4H525.86V94.19h36a14.77,14.77,0,0,0,15-14.49V66.05Z" style="fill:#00d3a9"/><path id="_Path_5" data-name="&lt;Path&gt;" d="M499.61,67V76.4h20.22V94.19h-26a14.77,14.77,0,0,1-15-14.49V67Z" style="fill:#00b39f"/></svg> -->
<svg xmlns="http://www.w3.org/2000/svg" viewBox="0 0 1707.52 182.9"><defs><style>.cls-1{fill:#fff;}.cls-2{fill:#00b39f;}.cls-3{fill:#00d3a9;}</style></defs><g id="Layer_2" data-name="Layer 2"><g id="Layer_1-2" data-name="Layer 1"><g id="layer5-docs"><path class="cls-1" d="M36.7,0H0V182.7H173.6V146.2H36.6V0Z"/><path class="cls-1" d="M269.6,0,196.5,182.7h41.7L287.9,54.8l35.4,91.4H262.6L249,182.7H379.3L306.2,0Z"/><path class="cls-1" d="M429.5,64,383.8,0H338.1l73.1,109.7v73.1h36.6V109.7L520.9,0H475.8Z"/><path class="cls-1" d="M539.1,28.8v154H712.7V146.3h-137V109.8H681V73.2H575.8V36.6h137V0H539.1Z"/><path class="cls-1" d="M771.2,34.9h93.9v38H781.4l.4,34.9h25.1l66.3,75h45.2l-66.3-75h26a27.58,27.58,0,0,0,10.9-2.2,29,29,0,0,0,9.2-6.1,30.44,30.44,0,0,0,6.2-9.2,28.67,28.67,0,0,0,2.2-10.9v-51A28.34,28.34,0,0,0,878.2,0H735.6V182.7h36.6Z"/><path class="cls-2" d="M1123.9,0h-73.1V36.6h73.1Z"/><path class="cls-2" d="M1133,118.8V104.2c0-16.9-14.1-30.5-31.5-30.5H984.2V64.1h-43v41.7H1090v13.1Z"/><path class="cls-3" d="M984.1,50.3V33.7h57.5V0H941.1V50.3Z"/><path class="cls-3" d="M1090.1,128v20.2h-57.6v34.7h70.9a29.51,29.51,0,0,0,20.7-8.1,29,29,0,0,0,8.9-20.2V128Z"/><path class="cls-2" d="M980.5,128v18.9h38.3v35.9H969.5a27.14,27.14,0,0,1-19.9-8.4,30.73,30.73,0,0,1-8.5-20.9V127.9h39.4Z"/><path class="cls-1" d="M36.7,0H0V182.7H173.6V146.2H36.6V0Z"/><path class="cls-1" d="M269.6,0,196.5,182.7h41.7L287.9,54.8l35.4,91.4H262.6L249,182.7H379.3L306.2,0Z"/><path class="cls-1" d="M429.5,64,383.8,0H338.1l73.1,109.7v73.1h36.6V109.7L520.9,0H475.8Z"/><path class="cls-1" d="M539.1,28.8v154H712.7V146.3h-137V109.8H681V73.2H575.8V36.6h137V0H539.1Z"/><path class="cls-1" d="M771.2,34.9h93.9v38H781.4l.4,34.9h25.1l66.3,75h45.2l-66.3-75h26a27.58,27.58,0,0,0,10.9-2.2,29,29,0,0,0,9.2-6.1,30.44,30.44,0,0,0,6.2-9.2,28.67,28.67,0,0,0,2.2-10.9v-51A28.34,28.34,0,0,0,878.2,0H735.6V182.7h36.6Z"/><path class="cls-2" d="M1123.9,0h-73.1V36.6h73.1Z"/><path class="cls-2" d="M1133,118.8V104.2c0-16.9-14.1-30.5-31.5-30.5H984.2V64.1h-43v41.7H1090v13.1Z"/><path class="cls-3" d="M984.1,50.3V33.7h57.5V0H941.1V50.3Z"/><path class="cls-3" d="M1090.1,128v20.2h-57.6v34.7h70.9a29.51,29.51,0,0,0,20.7-8.1,29,29,0,0,0,8.9-20.2V128Z"/><path class="cls-2" d="M980.5,128v18.9h38.3v35.9H969.5a27.14,27.14,0,0,1-19.9-8.4,30.73,30.73,0,0,1-8.5-20.9V127.9h39.4Z"/><rect class="cls-1" x="1240" y="1.4" width="5" height="180"/><path class="cls-1" d="M1461.68,92c0,29-20.55,52.5-49.5,52.5h-40.5a2.69,2.69,0,0,1-3-3v-99a2.69,2.69,0,0,1,3-3h40.5C1441.13,39.46,1461.68,63,1461.68,92Zm-10.2,0c0-23.55-15.9-42.59-39.3-42.59h-33v85.19h33C1435.58,134.55,1451.48,115.5,1451.48,92Z"/><path class="cls-1" d="M1474.43,107a39.45,39.45,0,1,1,39.45,39.3A39,39,0,0,1,1474.43,107Zm69,0a29.55,29.55,0,1,0-29.55,29.7A29.26,29.26,0,0,0,1543.43,107Z"/><path class="cls-1" d="M1639.57,123.9c-5.25,13.35-18.9,22.35-34.79,22.35-22.65,0-39.45-17.1-39.45-39.3s16.8-39.3,39.45-39.3c15.89,0,29.39,9,34.79,22.35.9,2.1-.3,3.45-2.4,3.45h-4.35a3.76,3.76,0,0,1-3.6-2.25c-4.5-8.55-13.64-14-24.44-14a29.7,29.7,0,0,0,0,59.4c10.94,0,20.09-5.55,24.44-14a3.76,3.76,0,0,1,3.6-2.25h4.35C1639.27,120.45,1640.47,121.8,1639.57,123.9Z"/><path class="cls-1" d="M1707.52,124.8c0,12.3-11.1,21.45-27.74,21.45-15.45,0-26.1-7.8-27.6-20.4-.15-2.1,1-3.15,3-3.15h3.9c1.8,0,2.7,1,3.15,2.85,1.35,8.25,9,11.1,17.55,11.1,9.44,0,17.84-3.45,17.84-11.85,0-19-44.09-7.65-44.09-35.7,0-12.3,11.1-21.45,26.25-21.45,14.09,0,24.59,7.8,26.09,20.4.15,2.1-1,3.15-3,3.15H1699c-1.8,0-2.7-1-3.15-2.85-1.35-8.25-8.85-11.1-16-11.1-8,0-16.35,3.45-16.35,11.85C1663.43,108.15,1707.52,96.75,1707.52,124.8Z"/></g></g></g></svg>