<?xml version="1.0" encoding="UTF-8"?>
<svg id="Layer_1" xmlns="http://www.w3.org/2000/svg" version="1.1" viewBox="0 0 297.7 208.7">
  <!-- Generator: Adobe Illustrator 29.1.0, SVG Export Plug-In . SVG Version: 2.1.0 Build 142)  -->
  <defs>
    <style>
      .st0 {
        fill: #080808;
      }
    </style>
  </defs>
  <path class="st0" d="M172.9,124.6c.4-2.1,2.2-2.9,4.2-2.8,3.8.3,7.7,7,13.6,7.9,32.1,5,31.6-56.4-.4-50.6s-2.6.9-3.6,1.4c-3.5,1.7-8.3,8.6-12.5,5.9s-1.3-2.2-1.3-2.3v-41.4l.7-.7h42.4c.7,0,3.5-2.2,4-3,4.1-7.3-5.1-11.8-6.8-18-8-28.2,53.2-27.8,44.2.5-1.9,6-9,8.4-7.5,15.7s3.2,4.9,5.1,4.9h41.9l.7.7v41.9c0,2.7-4.1,5.6-6.7,5.7-6.5.2-9.3-7-15.2-8.2-27.2-5.6-27.2,50.1,0,44.5,6.6-1.4,11.3-12.1,19.2-6.8.9.6,2.7,3.3,2.7,4.2v41.9l-.7.7h-41.9c-1.9,0-4.7,2.9-5.1,4.9-1.5,7.3,5.6,9.7,7.5,15.7,9.3,29.6-56,27.7-43.6-1.4s8-6.6,7-13.9c-.3-1.9-2.9-5.3-4.7-5.3h-42.4l-.7-.7v-41.4Z"/>
  <path class="st0" d="M84.3,42c3.8.5,6.3,3.4,6.3,7.2,0,6.1-6.2,8.4-7.8,13.7-7.8,25.6,43.1,29.2,44.7,5.7.7-9.9-8.6-12.2-8.5-19.5s2.6-7.2,6.3-7.2h40.9l.7.7v44.9c0,.6,2.8,3.9,3.5,4.4,3.9,2.5,8.4,2.2,12.4,0s4.7-4.8,8-5.9c20.4-7,22.7,36.2,4.7,37.2-9.4.5-14.1-13.8-25.2-6.7-.8.5-3.5,3.9-3.5,4.4v44.9l-.7.7h-40.9c-2.6,0-5.6-2.8-6.1-5.4-1.7-8.2,8.8-11,8.4-20.9-.9-24.1-52.7-20.4-44.7,5.3s9.4,8.2,7.4,15.9-3.4,5.1-5.9,5.1h-40.9l-.7-.7v-40.4c0-2.8-2.1-5.9-5-6.5-8.5-1.8-9.9,6.2-16.5,7.5-28.2,5.8-28.2-50.3,0-44.5,6.5,1.3,8,9.3,16.5,7.5s5-3.7,5-6.5v-40.4l.7-.7h40.9Z"/>
</svg>