<svg width="440" height="152" viewBox="0 0 440 152" fill="none" xmlns="http://www.w3.org/2000/svg">
<g clip-path="url(#clip0_34783_112391)">
<g opacity="0.6">
<path opacity="0.6" d="M235.918 42.9711C235.297 42.9711 234.784 43.1805 234.373 43.5921C230.56 47.3036 225.404 49.3615 220.047 49.3615C214.689 49.3615 209.641 47.2964 205.728 43.5849C205.316 43.1733 204.695 42.9639 204.182 42.9639C192.947 43.7943 184.087 53.2752 184.087 64.6119V74.6055C184.087 82.0212 190.066 88.0001 197.482 88.0001H242.51C249.926 88.0001 255.905 82.0212 255.905 74.6055V64.6119C256.013 53.2752 247.153 43.7943 235.918 42.9711Z" fill="white"/>
<g opacity="0.6">
<path opacity="0.6" d="M220.054 41.9385C230.048 41.9385 238.294 33.8006 238.294 23.6987C238.294 13.7051 230.048 5.56006 220.054 5.56006C210.061 5.56006 201.814 13.7051 201.814 23.7998C201.814 33.8006 210.053 41.9385 220.054 41.9385ZM220.054 9.68314C227.78 9.68314 234.171 15.9652 234.171 23.7998C234.171 31.5261 227.889 37.9165 220.054 37.9165C212.328 37.9165 205.938 31.6344 205.938 23.7998C205.938 15.9652 212.321 9.68314 220.054 9.68314Z" fill="white"/>
</g>
</g>
<path opacity="0.6" d="M244.468 17.7271H242.605C240.771 7.68294 231.406 0 220.054 0C208.703 0 199.251 7.68294 197.475 17.7271H195.626C192.94 17.7271 190.788 19.7922 190.781 22.1534V29.6775C190.781 32.1543 192.947 34.2122 195.626 34.2122H198.818C199.742 34.2122 200.464 33.4901 200.464 32.6669V21.4675C200.472 21.4241 200.472 21.3736 200.472 21.3303C200.472 11.3367 209.238 3.1916 220.054 3.1916C230.871 3.1916 239.63 11.3367 239.63 21.3303V30.5585C234.539 33.8512 227.983 34.7899 220.156 33.584C219.224 33.4829 218.401 34.1039 218.3 34.9271C218.09 35.7575 218.711 36.4723 219.535 36.6817C227.694 37.9959 234.568 37.0067 240.244 33.8656C240.525 34.0822 240.886 34.2122 241.276 34.2122H244.475C247.154 34.2122 249.313 32.147 249.313 29.7858V22.2618C249.313 19.785 247.147 17.7271 244.468 17.7271ZM197.164 31.1289H195.72C194.897 31.1289 194.276 30.5079 194.276 29.7858V22.269C194.276 21.5469 194.897 20.9259 195.72 20.9259H197.164V31.1289ZM245.818 29.6703C245.818 30.3924 245.197 31.0134 244.374 31.0134H242.93V20.8104H244.374C245.197 20.8104 245.818 21.4314 245.818 22.1534V29.6703Z" fill="white"/>
<path d="M210.71 63.7887C212.219 61.0087 214.963 58.9796 218.176 58.4308L217.541 54.7771C213.172 55.5281 209.482 58.272 207.417 62.0051L210.71 63.7887Z" fill="white"/>
<path opacity="0.8" d="M210.869 74.3888C209.916 72.8002 209.36 70.9372 209.36 68.9082C209.36 67.6012 209.598 66.3665 210.031 65.2184L206.544 63.9475C205.988 65.5 205.67 67.168 205.67 68.9154C205.67 71.616 206.428 74.1577 207.699 76.3023L210.869 74.3888Z" fill="white"/>
<path d="M220.112 79.559H219.989C216.689 79.559 213.758 78.0499 211.765 75.667L208.905 78.0499C211.526 81.227 215.541 83.2922 219.982 83.2922C220.018 83.2922 220.105 83.2922 220.141 83.2922L220.112 79.559Z" fill="white"/>
<path opacity="0.8" d="M229.246 74.1506C227.693 76.8945 224.913 78.8803 221.7 79.393L222.292 83.0828C226.661 82.3679 230.351 79.7034 232.459 75.9775L229.246 74.1506Z" fill="white"/>
<path d="M229.166 63.5505C230.083 65.1391 230.596 66.9298 230.596 68.9083C230.596 70.2586 230.357 71.5295 229.881 72.7209L233.376 74.0712C233.968 72.4826 234.329 70.7352 234.329 68.9517C234.329 66.3305 233.614 63.8249 232.379 61.7236L229.166 63.5505Z" fill="white"/>
<g opacity="0.8">
<path opacity="0.8" d="M226.422 61.5718L225.628 60.7703L227.52 58.8784L225.628 56.9866L226.422 56.1851L229.116 58.8784L226.422 61.5718Z" fill="white"/>
</g>
<g opacity="0.8">
<path opacity="0.8" d="M221.036 61.5718L220.234 60.7703L222.133 58.8784L220.234 56.9866L221.036 56.1851L223.729 58.8784L221.036 61.5718Z" fill="white"/>
</g>
</g>
<path d="M117.625 113.155C117.625 112.847 117.577 112.574 117.481 112.334C117.393 112.095 117.232 111.876 117 111.678C116.767 111.48 116.439 111.289 116.015 111.104C115.598 110.913 115.065 110.718 114.416 110.52C113.705 110.301 113.048 110.058 112.447 109.792C111.852 109.518 111.333 109.204 110.888 108.848C110.444 108.486 110.099 108.072 109.853 107.607C109.606 107.136 109.483 106.592 109.483 105.977C109.483 105.369 109.61 104.815 109.863 104.316C110.123 103.817 110.488 103.386 110.96 103.024C111.438 102.655 112.002 102.371 112.652 102.173C113.301 101.968 114.019 101.865 114.805 101.865C115.913 101.865 116.866 102.07 117.666 102.48C118.473 102.891 119.091 103.441 119.522 104.131C119.959 104.822 120.178 105.584 120.178 106.418H117.625C117.625 105.926 117.519 105.492 117.307 105.116C117.102 104.733 116.788 104.432 116.364 104.213C115.947 103.995 115.417 103.885 114.774 103.885C114.166 103.885 113.66 103.978 113.257 104.162C112.854 104.347 112.553 104.596 112.354 104.911C112.156 105.225 112.057 105.581 112.057 105.977C112.057 106.257 112.122 106.514 112.252 106.746C112.382 106.972 112.58 107.184 112.847 107.382C113.113 107.573 113.448 107.754 113.852 107.925C114.255 108.096 114.73 108.26 115.277 108.417C116.104 108.664 116.825 108.937 117.44 109.238C118.056 109.532 118.568 109.867 118.979 110.243C119.389 110.619 119.696 111.046 119.901 111.524C120.106 111.996 120.209 112.533 120.209 113.134C120.209 113.763 120.083 114.331 119.83 114.836C119.577 115.335 119.214 115.763 118.743 116.118C118.278 116.467 117.717 116.737 117.061 116.928C116.412 117.113 115.687 117.205 114.887 117.205C114.169 117.205 113.462 117.109 112.765 116.918C112.074 116.727 111.445 116.436 110.878 116.046C110.311 115.65 109.859 115.158 109.524 114.57C109.189 113.975 109.022 113.281 109.022 112.488H111.596C111.596 112.974 111.678 113.387 111.842 113.729C112.013 114.071 112.249 114.351 112.549 114.57C112.85 114.782 113.199 114.939 113.595 115.042C113.999 115.144 114.429 115.195 114.887 115.195C115.489 115.195 115.991 115.11 116.395 114.939C116.805 114.768 117.112 114.529 117.317 114.221C117.522 113.914 117.625 113.558 117.625 113.155ZM126.771 115.236C127.175 115.236 127.537 115.158 127.858 115C128.187 114.836 128.45 114.611 128.648 114.324C128.853 114.037 128.966 113.705 128.986 113.329H131.314C131.3 114.047 131.088 114.7 130.678 115.288C130.268 115.875 129.725 116.344 129.048 116.692C128.371 117.034 127.623 117.205 126.802 117.205C125.955 117.205 125.216 117.062 124.587 116.774C123.958 116.48 123.436 116.077 123.019 115.564C122.602 115.052 122.287 114.46 122.075 113.791C121.87 113.121 121.768 112.403 121.768 111.637V111.278C121.768 110.513 121.87 109.795 122.075 109.125C122.287 108.448 122.602 107.854 123.019 107.341C123.436 106.828 123.958 106.428 124.587 106.141C125.216 105.847 125.951 105.7 126.792 105.7C127.681 105.7 128.46 105.878 129.13 106.233C129.8 106.582 130.326 107.071 130.709 107.7C131.099 108.322 131.3 109.046 131.314 109.874H128.986C128.966 109.463 128.863 109.094 128.679 108.766C128.501 108.431 128.248 108.165 127.92 107.966C127.599 107.768 127.212 107.669 126.761 107.669C126.262 107.669 125.849 107.771 125.521 107.977C125.192 108.175 124.936 108.448 124.751 108.797C124.567 109.139 124.434 109.525 124.352 109.956C124.276 110.379 124.239 110.82 124.239 111.278V111.637C124.239 112.095 124.276 112.54 124.352 112.97C124.427 113.401 124.557 113.787 124.741 114.129C124.933 114.464 125.192 114.734 125.521 114.939C125.849 115.137 126.266 115.236 126.771 115.236ZM135.692 108.018V117H133.221V105.905H135.58L135.692 108.018ZM139.086 105.833L139.066 108.13C138.916 108.103 138.751 108.083 138.574 108.069C138.403 108.055 138.232 108.048 138.061 108.048C137.637 108.048 137.265 108.11 136.943 108.233C136.622 108.349 136.352 108.52 136.133 108.746C135.921 108.964 135.757 109.231 135.641 109.545C135.525 109.86 135.457 110.212 135.436 110.602L134.872 110.643C134.872 109.945 134.94 109.299 135.077 108.705C135.214 108.11 135.419 107.587 135.692 107.136C135.973 106.685 136.321 106.333 136.738 106.08C137.162 105.827 137.651 105.7 138.205 105.7C138.355 105.7 138.516 105.714 138.687 105.741C138.864 105.769 138.998 105.799 139.086 105.833ZM145.321 117.205C144.5 117.205 143.759 117.072 143.096 116.805C142.439 116.532 141.879 116.152 141.414 115.667C140.956 115.182 140.604 114.611 140.358 113.955C140.112 113.298 139.989 112.591 139.989 111.832V111.422C139.989 110.554 140.115 109.768 140.368 109.063C140.621 108.359 140.973 107.758 141.424 107.259C141.875 106.753 142.409 106.367 143.024 106.1C143.639 105.833 144.306 105.7 145.023 105.7C145.816 105.7 146.51 105.833 147.105 106.1C147.7 106.367 148.192 106.743 148.582 107.228C148.978 107.707 149.272 108.277 149.463 108.94C149.662 109.604 149.761 110.335 149.761 111.135V112.191H141.188V110.417H147.32V110.222C147.307 109.778 147.218 109.361 147.054 108.971C146.896 108.582 146.654 108.267 146.326 108.028C145.998 107.789 145.56 107.669 145.013 107.669C144.603 107.669 144.237 107.758 143.916 107.936C143.602 108.106 143.338 108.356 143.126 108.684C142.915 109.012 142.75 109.409 142.634 109.874C142.525 110.332 142.47 110.848 142.47 111.422V111.832C142.47 112.317 142.535 112.769 142.665 113.186C142.802 113.596 143 113.955 143.26 114.262C143.52 114.57 143.834 114.812 144.203 114.99C144.572 115.161 144.993 115.247 145.464 115.247C146.059 115.247 146.589 115.127 147.054 114.888C147.519 114.648 147.922 114.31 148.264 113.873L149.566 115.134C149.327 115.482 149.016 115.817 148.633 116.139C148.25 116.453 147.782 116.709 147.228 116.908C146.681 117.106 146.045 117.205 145.321 117.205ZM156.58 117.205C155.759 117.205 155.018 117.072 154.354 116.805C153.698 116.532 153.138 116.152 152.673 115.667C152.215 115.182 151.863 114.611 151.617 113.955C151.371 113.298 151.248 112.591 151.248 111.832V111.422C151.248 110.554 151.374 109.768 151.627 109.063C151.88 108.359 152.232 107.758 152.683 107.259C153.134 106.753 153.667 106.367 154.283 106.1C154.898 105.833 155.564 105.7 156.282 105.7C157.075 105.7 157.769 105.833 158.364 106.1C158.958 106.367 159.451 106.743 159.84 107.228C160.237 107.707 160.531 108.277 160.722 108.94C160.92 109.604 161.02 110.335 161.02 111.135V112.191H152.447V110.417H158.579V110.222C158.565 109.778 158.477 109.361 158.312 108.971C158.155 108.582 157.913 108.267 157.584 108.028C157.256 107.789 156.819 107.669 156.272 107.669C155.862 107.669 155.496 107.758 155.175 107.936C154.86 108.106 154.597 108.356 154.385 108.684C154.173 109.012 154.009 109.409 153.893 109.874C153.784 110.332 153.729 110.848 153.729 111.422V111.832C153.729 112.317 153.794 112.769 153.924 113.186C154.061 113.596 154.259 113.955 154.519 114.262C154.778 114.57 155.093 114.812 155.462 114.99C155.831 115.161 156.251 115.247 156.723 115.247C157.318 115.247 157.848 115.127 158.312 114.888C158.777 114.648 159.181 114.31 159.522 113.873L160.825 115.134C160.585 115.482 160.274 115.817 159.892 116.139C159.509 116.453 159.041 116.709 158.487 116.908C157.94 117.106 157.304 117.205 156.58 117.205ZM165.398 108.274V117H162.927V105.905H165.254L165.398 108.274ZM164.957 111.042L164.157 111.032C164.164 110.246 164.273 109.525 164.485 108.869C164.704 108.212 165.005 107.648 165.388 107.177C165.777 106.705 166.242 106.343 166.782 106.09C167.322 105.83 167.924 105.7 168.587 105.7C169.12 105.7 169.602 105.775 170.033 105.926C170.47 106.069 170.843 106.305 171.15 106.633C171.465 106.961 171.704 107.389 171.868 107.915C172.032 108.435 172.114 109.074 172.114 109.833V117H169.633V109.822C169.633 109.289 169.554 108.869 169.397 108.561C169.247 108.247 169.024 108.024 168.73 107.895C168.443 107.758 168.084 107.689 167.654 107.689C167.23 107.689 166.851 107.778 166.516 107.956C166.181 108.134 165.897 108.376 165.665 108.684C165.439 108.992 165.265 109.347 165.142 109.75C165.019 110.154 164.957 110.584 164.957 111.042ZM180.861 113.996C180.861 113.75 180.799 113.527 180.676 113.329C180.553 113.124 180.317 112.939 179.969 112.775C179.627 112.611 179.121 112.461 178.451 112.324C177.863 112.194 177.323 112.041 176.831 111.863C176.346 111.678 175.929 111.456 175.58 111.196C175.231 110.937 174.961 110.629 174.77 110.273C174.579 109.918 174.483 109.508 174.483 109.043C174.483 108.592 174.582 108.165 174.78 107.761C174.979 107.358 175.262 107.002 175.631 106.695C176 106.387 176.448 106.145 176.975 105.967C177.508 105.789 178.103 105.7 178.759 105.7C179.688 105.7 180.485 105.857 181.148 106.172C181.818 106.479 182.331 106.9 182.686 107.433C183.042 107.959 183.219 108.554 183.219 109.217H180.748C180.748 108.923 180.673 108.65 180.522 108.397C180.379 108.137 180.16 107.929 179.866 107.771C179.572 107.607 179.203 107.525 178.759 107.525C178.335 107.525 177.983 107.594 177.703 107.73C177.429 107.86 177.224 108.031 177.087 108.243C176.958 108.455 176.893 108.688 176.893 108.94C176.893 109.125 176.927 109.292 176.995 109.443C177.07 109.586 177.193 109.72 177.364 109.843C177.535 109.959 177.768 110.068 178.062 110.171C178.362 110.273 178.738 110.373 179.189 110.468C180.037 110.646 180.765 110.875 181.374 111.155C181.989 111.429 182.46 111.784 182.789 112.222C183.117 112.652 183.281 113.199 183.281 113.862C183.281 114.354 183.175 114.806 182.963 115.216C182.758 115.619 182.457 115.971 182.061 116.272C181.664 116.566 181.189 116.795 180.635 116.959C180.088 117.123 179.473 117.205 178.79 117.205C177.785 117.205 176.934 117.027 176.236 116.672C175.539 116.31 175.009 115.848 174.647 115.288C174.292 114.72 174.114 114.132 174.114 113.524H176.503C176.53 113.982 176.657 114.348 176.882 114.621C177.115 114.888 177.402 115.083 177.744 115.206C178.092 115.322 178.451 115.38 178.82 115.38C179.265 115.38 179.637 115.322 179.938 115.206C180.239 115.083 180.468 114.918 180.625 114.713C180.782 114.501 180.861 114.262 180.861 113.996ZM187.885 101.25V117H185.424V101.25H187.885ZM187.454 111.042L186.654 111.032C186.661 110.267 186.767 109.559 186.972 108.91C187.184 108.26 187.478 107.696 187.854 107.218C188.237 106.732 188.695 106.36 189.228 106.1C189.761 105.833 190.353 105.7 191.002 105.7C191.549 105.7 192.041 105.775 192.479 105.926C192.923 106.076 193.306 106.319 193.627 106.654C193.948 106.982 194.191 107.413 194.355 107.946C194.526 108.472 194.611 109.115 194.611 109.874V117H192.13V109.853C192.13 109.32 192.051 108.896 191.894 108.582C191.744 108.267 191.521 108.042 191.228 107.905C190.934 107.761 190.575 107.689 190.151 107.689C189.707 107.689 189.313 107.778 188.972 107.956C188.637 108.134 188.356 108.376 188.131 108.684C187.905 108.992 187.734 109.347 187.618 109.75C187.509 110.154 187.454 110.584 187.454 111.042ZM196.642 111.576V111.34C196.642 110.54 196.758 109.798 196.99 109.115C197.223 108.424 197.558 107.826 197.995 107.32C198.439 106.808 198.979 106.411 199.615 106.131C200.258 105.844 200.982 105.7 201.789 105.7C202.603 105.7 203.327 105.844 203.963 106.131C204.605 106.411 205.149 106.808 205.593 107.32C206.038 107.826 206.376 108.424 206.608 109.115C206.841 109.798 206.957 110.54 206.957 111.34V111.576C206.957 112.375 206.841 113.117 206.608 113.801C206.376 114.484 206.038 115.083 205.593 115.595C205.149 116.101 204.609 116.498 203.973 116.785C203.337 117.065 202.616 117.205 201.81 117.205C200.996 117.205 200.268 117.065 199.625 116.785C198.99 116.498 198.45 116.101 198.005 115.595C197.561 115.083 197.223 114.484 196.99 113.801C196.758 113.117 196.642 112.375 196.642 111.576ZM199.113 111.34V111.576C199.113 112.075 199.164 112.546 199.267 112.991C199.369 113.435 199.53 113.825 199.749 114.16C199.967 114.495 200.248 114.758 200.589 114.949C200.931 115.141 201.338 115.236 201.81 115.236C202.268 115.236 202.664 115.141 202.999 114.949C203.341 114.758 203.621 114.495 203.84 114.16C204.059 113.825 204.219 113.435 204.322 112.991C204.431 112.546 204.486 112.075 204.486 111.576V111.34C204.486 110.848 204.431 110.383 204.322 109.945C204.219 109.501 204.055 109.108 203.83 108.766C203.611 108.424 203.331 108.158 202.989 107.966C202.654 107.768 202.254 107.669 201.789 107.669C201.324 107.669 200.921 107.768 200.579 107.966C200.244 108.158 199.967 108.424 199.749 108.766C199.53 109.108 199.369 109.501 199.267 109.945C199.164 110.383 199.113 110.848 199.113 111.34ZM214.114 105.905V107.71H207.859V105.905H214.114ZM209.664 103.188H212.135V113.934C212.135 114.276 212.183 114.539 212.279 114.724C212.381 114.901 212.521 115.021 212.699 115.083C212.877 115.144 213.085 115.175 213.325 115.175C213.496 115.175 213.66 115.165 213.817 115.144C213.974 115.124 214.101 115.103 214.196 115.083L214.207 116.969C214.001 117.031 213.762 117.085 213.489 117.133C213.222 117.181 212.915 117.205 212.566 117.205C211.999 117.205 211.496 117.106 211.059 116.908C210.621 116.703 210.279 116.371 210.033 115.913C209.787 115.455 209.664 114.847 209.664 114.088V103.188ZM227.167 111.432H223.281V109.392H227.167C227.844 109.392 228.391 109.282 228.808 109.063C229.225 108.845 229.529 108.544 229.721 108.161C229.919 107.771 230.018 107.327 230.018 106.828C230.018 106.356 229.919 105.916 229.721 105.505C229.529 105.088 229.225 104.753 228.808 104.5C228.391 104.248 227.844 104.121 227.167 104.121H224.071V117H221.497V102.07H227.167C228.323 102.07 229.304 102.275 230.11 102.686C230.924 103.089 231.542 103.649 231.966 104.367C232.39 105.078 232.602 105.892 232.602 106.808C232.602 107.771 232.39 108.599 231.966 109.289C231.542 109.979 230.924 110.509 230.11 110.878C229.304 111.248 228.323 111.432 227.167 111.432ZM237.309 101.25V117H234.827V101.25H237.309ZM246.271 114.775V109.484C246.271 109.087 246.199 108.746 246.055 108.458C245.912 108.171 245.693 107.949 245.399 107.792C245.112 107.635 244.75 107.556 244.312 107.556C243.909 107.556 243.56 107.625 243.266 107.761C242.972 107.898 242.743 108.083 242.579 108.315C242.415 108.547 242.333 108.811 242.333 109.104H239.872C239.872 108.667 239.978 108.243 240.19 107.833C240.402 107.423 240.709 107.057 241.113 106.736C241.516 106.415 241.998 106.162 242.559 105.977C243.119 105.792 243.748 105.7 244.445 105.7C245.279 105.7 246.018 105.84 246.66 106.121C247.31 106.401 247.819 106.825 248.188 107.392C248.564 107.953 248.752 108.657 248.752 109.504V114.437C248.752 114.942 248.786 115.397 248.854 115.8C248.93 116.197 249.036 116.542 249.172 116.836V117H246.64C246.523 116.733 246.431 116.395 246.363 115.985C246.301 115.568 246.271 115.165 246.271 114.775ZM246.629 110.253L246.65 111.781H244.876C244.418 111.781 244.015 111.825 243.666 111.914C243.317 111.996 243.027 112.119 242.794 112.283C242.562 112.447 242.388 112.646 242.271 112.878C242.155 113.11 242.097 113.374 242.097 113.667C242.097 113.961 242.166 114.231 242.302 114.478C242.439 114.717 242.637 114.905 242.897 115.042C243.164 115.178 243.485 115.247 243.861 115.247C244.367 115.247 244.808 115.144 245.184 114.939C245.566 114.727 245.867 114.471 246.086 114.17C246.305 113.862 246.421 113.572 246.435 113.298L247.234 114.396C247.152 114.676 247.012 114.977 246.814 115.298C246.616 115.619 246.356 115.927 246.035 116.221C245.72 116.508 245.341 116.744 244.896 116.928C244.459 117.113 243.953 117.205 243.379 117.205C242.654 117.205 242.008 117.062 241.441 116.774C240.874 116.48 240.429 116.087 240.108 115.595C239.787 115.096 239.626 114.532 239.626 113.903C239.626 113.315 239.735 112.796 239.954 112.345C240.18 111.887 240.508 111.504 240.938 111.196C241.376 110.889 241.909 110.656 242.538 110.499C243.167 110.335 243.885 110.253 244.691 110.253H246.629ZM255.868 115.236C256.271 115.236 256.634 115.158 256.955 115C257.283 114.836 257.546 114.611 257.745 114.324C257.95 114.037 258.062 113.705 258.083 113.329H260.411C260.397 114.047 260.185 114.7 259.775 115.288C259.365 115.875 258.821 116.344 258.145 116.692C257.468 117.034 256.719 117.205 255.899 117.205C255.051 117.205 254.313 117.062 253.684 116.774C253.055 116.48 252.532 116.077 252.115 115.564C251.698 115.052 251.384 114.46 251.172 113.791C250.967 113.121 250.864 112.403 250.864 111.637V111.278C250.864 110.513 250.967 109.795 251.172 109.125C251.384 108.448 251.698 107.854 252.115 107.341C252.532 106.828 253.055 106.428 253.684 106.141C254.313 105.847 255.048 105.7 255.889 105.7C256.777 105.7 257.557 105.878 258.227 106.233C258.896 106.582 259.423 107.071 259.806 107.7C260.195 108.322 260.397 109.046 260.411 109.874H258.083C258.062 109.463 257.96 109.094 257.775 108.766C257.598 108.431 257.345 108.165 257.017 107.966C256.695 107.768 256.309 107.669 255.858 107.669C255.359 107.669 254.945 107.771 254.617 107.977C254.289 108.175 254.033 108.448 253.848 108.797C253.664 109.139 253.53 109.525 253.448 109.956C253.373 110.379 253.335 110.82 253.335 111.278V111.637C253.335 112.095 253.373 112.54 253.448 112.97C253.523 113.401 253.653 113.787 253.838 114.129C254.029 114.464 254.289 114.734 254.617 114.939C254.945 115.137 255.362 115.236 255.868 115.236ZM267.199 117.205C266.378 117.205 265.637 117.072 264.974 116.805C264.317 116.532 263.757 116.152 263.292 115.667C262.834 115.182 262.482 114.611 262.236 113.955C261.99 113.298 261.867 112.591 261.867 111.832V111.422C261.867 110.554 261.993 109.768 262.246 109.063C262.499 108.359 262.851 107.758 263.302 107.259C263.753 106.753 264.287 106.367 264.902 106.1C265.517 105.833 266.184 105.7 266.901 105.7C267.694 105.7 268.388 105.833 268.983 106.1C269.578 106.367 270.07 106.743 270.459 107.228C270.856 107.707 271.15 108.277 271.341 108.94C271.54 109.604 271.639 110.335 271.639 111.135V112.191H263.066V110.417H269.198V110.222C269.185 109.778 269.096 109.361 268.932 108.971C268.774 108.582 268.532 108.267 268.204 108.028C267.875 107.789 267.438 107.669 266.891 107.669C266.481 107.669 266.115 107.758 265.794 107.936C265.479 108.106 265.216 108.356 265.004 108.684C264.792 109.012 264.628 109.409 264.512 109.874C264.403 110.332 264.348 110.848 264.348 111.422V111.832C264.348 112.317 264.413 112.769 264.543 113.186C264.68 113.596 264.878 113.955 265.138 114.262C265.397 114.57 265.712 114.812 266.081 114.99C266.45 115.161 266.871 115.247 267.342 115.247C267.937 115.247 268.467 115.127 268.932 114.888C269.396 114.648 269.8 114.31 270.142 113.873L271.444 115.134C271.205 115.482 270.894 115.817 270.511 116.139C270.128 116.453 269.66 116.709 269.106 116.908C268.559 117.106 267.923 117.205 267.199 117.205ZM276.007 101.25V117H273.546V101.25H276.007ZM275.576 111.042L274.776 111.032C274.783 110.267 274.889 109.559 275.094 108.91C275.306 108.26 275.6 107.696 275.976 107.218C276.359 106.732 276.817 106.36 277.35 106.1C277.883 105.833 278.475 105.7 279.124 105.7C279.671 105.7 280.163 105.775 280.601 105.926C281.045 106.076 281.428 106.319 281.749 106.654C282.07 106.982 282.313 107.413 282.477 107.946C282.648 108.472 282.733 109.115 282.733 109.874V117H280.252V109.853C280.252 109.32 280.173 108.896 280.016 108.582C279.866 108.267 279.644 108.042 279.35 107.905C279.056 107.761 278.697 107.689 278.273 107.689C277.829 107.689 277.436 107.778 277.094 107.956C276.759 108.134 276.479 108.376 276.253 108.684C276.027 108.992 275.856 109.347 275.74 109.75C275.631 110.154 275.576 110.584 275.576 111.042ZM284.764 111.576V111.34C284.764 110.54 284.88 109.798 285.112 109.115C285.345 108.424 285.68 107.826 286.117 107.32C286.562 106.808 287.102 106.411 287.737 106.131C288.38 105.844 289.104 105.7 289.911 105.7C290.725 105.7 291.449 105.844 292.085 106.131C292.728 106.411 293.271 106.808 293.715 107.32C294.16 107.826 294.498 108.424 294.73 109.115C294.963 109.798 295.079 110.54 295.079 111.34V111.576C295.079 112.375 294.963 113.117 294.73 113.801C294.498 114.484 294.16 115.083 293.715 115.595C293.271 116.101 292.731 116.498 292.095 116.785C291.459 117.065 290.738 117.205 289.932 117.205C289.118 117.205 288.39 117.065 287.748 116.785C287.112 116.498 286.572 116.101 286.127 115.595C285.683 115.083 285.345 114.484 285.112 113.801C284.88 113.117 284.764 112.375 284.764 111.576ZM287.235 111.34V111.576C287.235 112.075 287.286 112.546 287.389 112.991C287.491 113.435 287.652 113.825 287.871 114.16C288.089 114.495 288.37 114.758 288.711 114.949C289.053 115.141 289.46 115.236 289.932 115.236C290.39 115.236 290.786 115.141 291.121 114.949C291.463 114.758 291.743 114.495 291.962 114.16C292.181 113.825 292.341 113.435 292.444 112.991C292.553 112.546 292.608 112.075 292.608 111.576V111.34C292.608 110.848 292.553 110.383 292.444 109.945C292.341 109.501 292.177 109.108 291.952 108.766C291.733 108.424 291.453 108.158 291.111 107.966C290.776 107.768 290.376 107.669 289.911 107.669C289.446 107.669 289.043 107.768 288.701 107.966C288.366 108.158 288.089 108.424 287.871 108.766C287.652 109.108 287.491 109.501 287.389 109.945C287.286 110.383 287.235 110.848 287.235 111.34ZM299.796 101.25V117H297.314V101.25H299.796ZM309.271 114.703V101.25H311.752V117H309.506L309.271 114.703ZM302.052 111.576V111.36C302.052 110.52 302.151 109.754 302.349 109.063C302.547 108.366 302.834 107.768 303.21 107.269C303.586 106.763 304.044 106.377 304.584 106.11C305.125 105.837 305.733 105.7 306.41 105.7C307.08 105.7 307.667 105.83 308.173 106.09C308.679 106.35 309.11 106.722 309.465 107.208C309.821 107.686 310.104 108.26 310.316 108.93C310.528 109.593 310.679 110.332 310.768 111.145V111.832C310.679 112.625 310.528 113.35 310.316 114.006C310.104 114.662 309.821 115.229 309.465 115.708C309.11 116.187 308.676 116.556 308.163 116.815C307.657 117.075 307.066 117.205 306.389 117.205C305.719 117.205 305.114 117.065 304.574 116.785C304.041 116.504 303.586 116.111 303.21 115.605C302.834 115.1 302.547 114.505 302.349 113.821C302.151 113.131 302.052 112.382 302.052 111.576ZM304.523 111.36V111.576C304.523 112.082 304.567 112.553 304.656 112.991C304.752 113.428 304.899 113.814 305.097 114.149C305.295 114.478 305.552 114.737 305.866 114.929C306.188 115.113 306.57 115.206 307.015 115.206C307.575 115.206 308.037 115.083 308.399 114.836C308.761 114.59 309.045 114.259 309.25 113.842C309.462 113.418 309.605 112.946 309.681 112.427V110.571C309.64 110.167 309.554 109.792 309.424 109.443C309.301 109.094 309.134 108.79 308.922 108.53C308.71 108.264 308.447 108.059 308.132 107.915C307.825 107.765 307.459 107.689 307.035 107.689C306.584 107.689 306.201 107.785 305.887 107.977C305.572 108.168 305.312 108.431 305.107 108.766C304.909 109.101 304.762 109.491 304.667 109.935C304.571 110.379 304.523 110.854 304.523 111.36ZM319.227 117.205C318.407 117.205 317.665 117.072 317.002 116.805C316.346 116.532 315.785 116.152 315.32 115.667C314.862 115.182 314.51 114.611 314.264 113.955C314.018 113.298 313.895 112.591 313.895 111.832V111.422C313.895 110.554 314.021 109.768 314.274 109.063C314.527 108.359 314.879 107.758 315.331 107.259C315.782 106.753 316.315 106.367 316.93 106.1C317.545 105.833 318.212 105.7 318.93 105.7C319.723 105.7 320.417 105.833 321.011 106.1C321.606 106.367 322.098 106.743 322.488 107.228C322.884 107.707 323.178 108.277 323.37 108.94C323.568 109.604 323.667 110.335 323.667 111.135V112.191H315.095V110.417H321.227V110.222C321.213 109.778 321.124 109.361 320.96 108.971C320.803 108.582 320.56 108.267 320.232 108.028C319.904 107.789 319.466 107.669 318.919 107.669C318.509 107.669 318.144 107.758 317.822 107.936C317.508 108.106 317.245 108.356 317.033 108.684C316.821 109.012 316.657 109.409 316.541 109.874C316.431 110.332 316.376 110.848 316.376 111.422V111.832C316.376 112.317 316.441 112.769 316.571 113.186C316.708 113.596 316.906 113.955 317.166 114.262C317.426 114.57 317.74 114.812 318.109 114.99C318.479 115.161 318.899 115.247 319.371 115.247C319.965 115.247 320.495 115.127 320.96 114.888C321.425 114.648 321.828 114.31 322.17 113.873L323.472 115.134C323.233 115.482 322.922 115.817 322.539 116.139C322.156 116.453 321.688 116.709 321.134 116.908C320.587 117.106 319.952 117.205 319.227 117.205ZM328.076 108.018V117H325.605V105.905H327.963L328.076 108.018ZM331.47 105.833L331.45 108.13C331.299 108.103 331.135 108.083 330.958 108.069C330.787 108.055 330.616 108.048 330.445 108.048C330.021 108.048 329.648 108.11 329.327 108.233C329.006 108.349 328.736 108.52 328.517 108.746C328.305 108.964 328.141 109.231 328.025 109.545C327.909 109.86 327.84 110.212 327.82 110.602L327.256 110.643C327.256 109.945 327.324 109.299 327.461 108.705C327.598 108.11 327.803 107.587 328.076 107.136C328.356 106.685 328.705 106.333 329.122 106.08C329.546 105.827 330.035 105.7 330.588 105.7C330.739 105.7 330.899 105.714 331.07 105.741C331.248 105.769 331.381 105.799 331.47 105.833Z" fill="white"/>
<path d="M128.987 137.929L125.692 147H124.345L128.139 137.047H129.007L128.987 137.929ZM131.748 147L128.447 137.929L128.426 137.047H129.294L133.102 147H131.748ZM131.577 143.315V144.396H125.986V143.315H131.577ZM142.583 145.038C142.583 144.856 142.542 144.687 142.46 144.532C142.382 144.373 142.22 144.229 141.974 144.102C141.733 143.969 141.368 143.855 140.881 143.76C140.47 143.673 140.099 143.571 139.766 143.452C139.438 143.334 139.158 143.19 138.926 143.021C138.698 142.853 138.522 142.655 138.399 142.427C138.276 142.199 138.215 141.932 138.215 141.627C138.215 141.335 138.278 141.06 138.406 140.8C138.538 140.54 138.723 140.31 138.96 140.109C139.201 139.909 139.491 139.752 139.828 139.638C140.165 139.524 140.541 139.467 140.956 139.467C141.548 139.467 142.054 139.572 142.473 139.781C142.893 139.991 143.214 140.271 143.437 140.622C143.661 140.968 143.772 141.354 143.772 141.777H142.508C142.508 141.572 142.446 141.374 142.323 141.183C142.204 140.987 142.029 140.825 141.797 140.697C141.569 140.57 141.288 140.506 140.956 140.506C140.605 140.506 140.32 140.561 140.101 140.67C139.887 140.775 139.73 140.909 139.63 141.073C139.534 141.237 139.486 141.41 139.486 141.593C139.486 141.729 139.509 141.853 139.554 141.962C139.605 142.067 139.691 142.165 139.814 142.256C139.937 142.342 140.11 142.424 140.334 142.502C140.557 142.579 140.842 142.657 141.188 142.734C141.794 142.871 142.293 143.035 142.685 143.227C143.077 143.418 143.369 143.653 143.56 143.931C143.752 144.209 143.847 144.546 143.847 144.942C143.847 145.266 143.779 145.562 143.642 145.831C143.51 146.1 143.316 146.332 143.061 146.528C142.811 146.72 142.51 146.87 142.159 146.979C141.813 147.084 141.423 147.137 140.99 147.137C140.338 147.137 139.787 147.021 139.336 146.788C138.884 146.556 138.543 146.255 138.31 145.886C138.078 145.517 137.962 145.127 137.962 144.717H139.233C139.251 145.063 139.352 145.339 139.534 145.544C139.716 145.744 139.94 145.888 140.204 145.975C140.468 146.057 140.73 146.098 140.99 146.098C141.336 146.098 141.626 146.052 141.858 145.961C142.095 145.87 142.275 145.744 142.398 145.585C142.521 145.425 142.583 145.243 142.583 145.038ZM148.748 146.098C149.049 146.098 149.327 146.036 149.582 145.913C149.838 145.79 150.047 145.621 150.211 145.407C150.375 145.188 150.469 144.94 150.492 144.662H151.695C151.672 145.1 151.524 145.507 151.25 145.886C150.982 146.259 150.628 146.562 150.191 146.795C149.753 147.023 149.273 147.137 148.748 147.137C148.192 147.137 147.707 147.039 147.292 146.843C146.882 146.647 146.54 146.378 146.267 146.036C145.998 145.694 145.795 145.302 145.659 144.86C145.526 144.414 145.46 143.942 145.46 143.445V143.158C145.46 142.661 145.526 142.192 145.659 141.75C145.795 141.303 145.998 140.909 146.267 140.567C146.54 140.226 146.882 139.957 147.292 139.761C147.707 139.565 148.192 139.467 148.748 139.467C149.327 139.467 149.833 139.585 150.266 139.822C150.699 140.055 151.039 140.374 151.285 140.779C151.535 141.18 151.672 141.636 151.695 142.146H150.492C150.469 141.841 150.382 141.565 150.232 141.319C150.086 141.073 149.886 140.877 149.63 140.731C149.38 140.581 149.086 140.506 148.748 140.506C148.361 140.506 148.035 140.583 147.771 140.738C147.511 140.889 147.304 141.094 147.149 141.354C146.998 141.609 146.889 141.894 146.821 142.208C146.757 142.518 146.725 142.835 146.725 143.158V143.445C146.725 143.769 146.757 144.088 146.821 144.402C146.885 144.717 146.992 145.002 147.142 145.257C147.297 145.512 147.504 145.717 147.764 145.872C148.028 146.022 148.357 146.098 148.748 146.098ZM154.661 140.766V147H153.397V139.604H154.627L154.661 140.766ZM156.972 139.562L156.965 140.738C156.86 140.715 156.76 140.702 156.664 140.697C156.573 140.688 156.468 140.684 156.35 140.684C156.058 140.684 155.801 140.729 155.577 140.82C155.354 140.911 155.165 141.039 155.01 141.203C154.855 141.367 154.732 141.563 154.641 141.791C154.554 142.014 154.497 142.26 154.47 142.529L154.114 142.734C154.114 142.288 154.158 141.868 154.244 141.477C154.335 141.085 154.474 140.738 154.661 140.438C154.848 140.132 155.085 139.895 155.372 139.727C155.664 139.553 156.01 139.467 156.411 139.467C156.502 139.467 156.607 139.478 156.726 139.501C156.844 139.519 156.926 139.54 156.972 139.562ZM161.353 147.137C160.838 147.137 160.371 147.05 159.952 146.877C159.537 146.699 159.18 146.451 158.879 146.132C158.583 145.813 158.355 145.435 158.195 144.997C158.036 144.56 157.956 144.081 157.956 143.562V143.274C157.956 142.673 158.045 142.137 158.223 141.668C158.4 141.194 158.642 140.793 158.947 140.465C159.252 140.137 159.599 139.888 159.986 139.72C160.374 139.551 160.775 139.467 161.189 139.467C161.718 139.467 162.174 139.558 162.557 139.74C162.944 139.923 163.261 140.178 163.507 140.506C163.753 140.829 163.935 141.212 164.054 141.654C164.172 142.092 164.231 142.57 164.231 143.09V143.657H158.708V142.625H162.967V142.529C162.948 142.201 162.88 141.882 162.762 141.572C162.648 141.262 162.465 141.007 162.215 140.807C161.964 140.606 161.622 140.506 161.189 140.506C160.902 140.506 160.638 140.567 160.396 140.69C160.155 140.809 159.947 140.987 159.774 141.224C159.601 141.461 159.467 141.75 159.371 142.092C159.275 142.434 159.227 142.828 159.227 143.274V143.562C159.227 143.912 159.275 144.243 159.371 144.553C159.471 144.858 159.615 145.127 159.802 145.359C159.993 145.592 160.223 145.774 160.492 145.906C160.766 146.038 161.075 146.104 161.422 146.104C161.868 146.104 162.247 146.013 162.557 145.831C162.866 145.649 163.138 145.405 163.37 145.1L164.136 145.708C163.976 145.95 163.773 146.18 163.527 146.398C163.281 146.617 162.978 146.795 162.618 146.932C162.263 147.068 161.841 147.137 161.353 147.137ZM169.057 147.137C168.542 147.137 168.075 147.05 167.656 146.877C167.241 146.699 166.883 146.451 166.583 146.132C166.286 145.813 166.059 145.435 165.899 144.997C165.74 144.56 165.66 144.081 165.66 143.562V143.274C165.66 142.673 165.749 142.137 165.926 141.668C166.104 141.194 166.346 140.793 166.651 140.465C166.956 140.137 167.303 139.888 167.69 139.72C168.077 139.551 168.478 139.467 168.893 139.467C169.422 139.467 169.878 139.558 170.26 139.74C170.648 139.923 170.964 140.178 171.211 140.506C171.457 140.829 171.639 141.212 171.757 141.654C171.876 142.092 171.935 142.57 171.935 143.09V143.657H166.412V142.625H170.671V142.529C170.652 142.201 170.584 141.882 170.465 141.572C170.351 141.262 170.169 141.007 169.919 140.807C169.668 140.606 169.326 140.506 168.893 140.506C168.606 140.506 168.342 140.567 168.1 140.69C167.859 140.809 167.651 140.987 167.478 141.224C167.305 141.461 167.171 141.75 167.075 142.092C166.979 142.434 166.931 142.828 166.931 143.274V143.562C166.931 143.912 166.979 144.243 167.075 144.553C167.175 144.858 167.319 145.127 167.505 145.359C167.697 145.592 167.927 145.774 168.196 145.906C168.469 146.038 168.779 146.104 169.126 146.104C169.572 146.104 169.95 146.013 170.26 145.831C170.57 145.649 170.841 145.405 171.074 145.1L171.839 145.708C171.68 145.95 171.477 146.18 171.231 146.398C170.985 146.617 170.682 146.795 170.322 146.932C169.966 147.068 169.545 147.137 169.057 147.137ZM174.956 141.183V147H173.692V139.604H174.888L174.956 141.183ZM174.656 143.021L174.129 143.001C174.134 142.495 174.209 142.028 174.355 141.6C174.501 141.167 174.706 140.791 174.97 140.472C175.234 140.153 175.549 139.907 175.913 139.733C176.283 139.556 176.69 139.467 177.137 139.467C177.502 139.467 177.83 139.517 178.121 139.617C178.413 139.713 178.661 139.868 178.867 140.082C179.076 140.296 179.236 140.574 179.345 140.916C179.454 141.253 179.509 141.666 179.509 142.153V147H178.238V142.14C178.238 141.752 178.181 141.442 178.067 141.21C177.953 140.973 177.786 140.802 177.568 140.697C177.349 140.588 177.08 140.533 176.761 140.533C176.447 140.533 176.159 140.599 175.9 140.731C175.645 140.864 175.423 141.046 175.237 141.278C175.054 141.511 174.911 141.777 174.806 142.078C174.706 142.374 174.656 142.689 174.656 143.021ZM186.017 145.038C186.017 144.856 185.976 144.687 185.894 144.532C185.816 144.373 185.654 144.229 185.408 144.102C185.167 143.969 184.802 143.855 184.314 143.76C183.904 143.673 183.533 143.571 183.2 143.452C182.872 143.334 182.592 143.19 182.359 143.021C182.132 142.853 181.956 142.655 181.833 142.427C181.71 142.199 181.648 141.932 181.648 141.627C181.648 141.335 181.712 141.06 181.84 140.8C181.972 140.54 182.157 140.31 182.394 140.109C182.635 139.909 182.925 139.752 183.262 139.638C183.599 139.524 183.975 139.467 184.39 139.467C184.982 139.467 185.488 139.572 185.907 139.781C186.327 139.991 186.648 140.271 186.871 140.622C187.094 140.968 187.206 141.354 187.206 141.777H185.941C185.941 141.572 185.88 141.374 185.757 141.183C185.638 140.987 185.463 140.825 185.231 140.697C185.003 140.57 184.722 140.506 184.39 140.506C184.039 140.506 183.754 140.561 183.535 140.67C183.321 140.775 183.164 140.909 183.064 141.073C182.968 141.237 182.92 141.41 182.92 141.593C182.92 141.729 182.943 141.853 182.988 141.962C183.038 142.067 183.125 142.165 183.248 142.256C183.371 142.342 183.544 142.424 183.768 142.502C183.991 142.579 184.276 142.657 184.622 142.734C185.228 142.871 185.727 143.035 186.119 143.227C186.511 143.418 186.803 143.653 186.994 143.931C187.186 144.209 187.281 144.546 187.281 144.942C187.281 145.266 187.213 145.562 187.076 145.831C186.944 146.1 186.75 146.332 186.495 146.528C186.245 146.72 185.944 146.87 185.593 146.979C185.246 147.084 184.857 147.137 184.424 147.137C183.772 147.137 183.221 147.021 182.77 146.788C182.318 146.556 181.977 146.255 181.744 145.886C181.512 145.517 181.396 145.127 181.396 144.717H182.667C182.685 145.063 182.786 145.339 182.968 145.544C183.15 145.744 183.373 145.888 183.638 145.975C183.902 146.057 184.164 146.098 184.424 146.098C184.77 146.098 185.06 146.052 185.292 145.961C185.529 145.87 185.709 145.744 185.832 145.585C185.955 145.425 186.017 145.243 186.017 145.038ZM190.487 136.5V147H189.222V136.5H190.487ZM190.186 143.021L189.66 143.001C189.664 142.495 189.74 142.028 189.885 141.6C190.031 141.167 190.236 140.791 190.501 140.472C190.765 140.153 191.08 139.907 191.444 139.733C191.813 139.556 192.221 139.467 192.668 139.467C193.032 139.467 193.36 139.517 193.652 139.617C193.944 139.713 194.192 139.868 194.397 140.082C194.607 140.296 194.766 140.574 194.876 140.916C194.985 141.253 195.04 141.666 195.04 142.153V147H193.768V142.14C193.768 141.752 193.711 141.442 193.597 141.21C193.483 140.973 193.317 140.802 193.098 140.697C192.88 140.588 192.611 140.533 192.292 140.533C191.977 140.533 191.69 140.599 191.43 140.731C191.175 140.864 190.954 141.046 190.767 141.278C190.585 141.511 190.441 141.777 190.337 142.078C190.236 142.374 190.186 142.689 190.186 143.021ZM196.878 143.384V143.227C196.878 142.693 196.956 142.199 197.111 141.743C197.266 141.283 197.489 140.884 197.781 140.547C198.072 140.205 198.426 139.941 198.84 139.754C199.255 139.562 199.72 139.467 200.235 139.467C200.754 139.467 201.222 139.562 201.636 139.754C202.055 139.941 202.411 140.205 202.703 140.547C202.999 140.884 203.224 141.283 203.379 141.743C203.534 142.199 203.612 142.693 203.612 143.227V143.384C203.612 143.917 203.534 144.411 203.379 144.867C203.224 145.323 202.999 145.722 202.703 146.063C202.411 146.401 202.058 146.665 201.643 146.856C201.233 147.043 200.768 147.137 200.249 147.137C199.729 147.137 199.262 147.043 198.847 146.856C198.432 146.665 198.077 146.401 197.781 146.063C197.489 145.722 197.266 145.323 197.111 144.867C196.956 144.411 196.878 143.917 196.878 143.384ZM198.143 143.227V143.384C198.143 143.753 198.186 144.102 198.273 144.43C198.36 144.753 198.489 145.04 198.663 145.291C198.84 145.542 199.061 145.74 199.326 145.886C199.59 146.027 199.898 146.098 200.249 146.098C200.595 146.098 200.898 146.027 201.158 145.886C201.422 145.74 201.641 145.542 201.814 145.291C201.987 145.04 202.117 144.753 202.204 144.43C202.295 144.102 202.34 143.753 202.34 143.384V143.227C202.34 142.862 202.295 142.518 202.204 142.194C202.117 141.866 201.985 141.577 201.807 141.326C201.634 141.071 201.415 140.87 201.151 140.725C200.891 140.579 200.586 140.506 200.235 140.506C199.888 140.506 199.583 140.579 199.319 140.725C199.059 140.87 198.84 141.071 198.663 141.326C198.489 141.577 198.36 141.866 198.273 142.194C198.186 142.518 198.143 142.862 198.143 143.227ZM208.574 139.604V140.574H204.575V139.604H208.574ZM205.929 137.806H207.194V145.168C207.194 145.419 207.232 145.608 207.31 145.735C207.387 145.863 207.488 145.947 207.611 145.988C207.734 146.029 207.866 146.05 208.007 146.05C208.112 146.05 208.221 146.041 208.335 146.022C208.454 146 208.543 145.981 208.602 145.968L208.609 147C208.508 147.032 208.376 147.062 208.212 147.089C208.053 147.121 207.859 147.137 207.631 147.137C207.321 147.137 207.036 147.075 206.777 146.952C206.517 146.829 206.309 146.624 206.154 146.337C206.004 146.045 205.929 145.653 205.929 145.161V137.806ZM215.464 139.604V147H214.193V139.604H215.464ZM214.097 137.642C214.097 137.437 214.159 137.263 214.282 137.122C214.409 136.981 214.596 136.91 214.842 136.91C215.084 136.91 215.269 136.981 215.396 137.122C215.528 137.263 215.594 137.437 215.594 137.642C215.594 137.838 215.528 138.006 215.396 138.147C215.269 138.284 215.084 138.353 214.842 138.353C214.596 138.353 214.409 138.284 214.282 138.147C214.159 138.006 214.097 137.838 214.097 137.642ZM222.081 145.038C222.081 144.856 222.04 144.687 221.958 144.532C221.881 144.373 221.719 144.229 221.473 144.102C221.231 143.969 220.867 143.855 220.379 143.76C219.969 143.673 219.598 143.571 219.265 143.452C218.937 143.334 218.657 143.19 218.424 143.021C218.196 142.853 218.021 142.655 217.898 142.427C217.775 142.199 217.713 141.932 217.713 141.627C217.713 141.335 217.777 141.06 217.905 140.8C218.037 140.54 218.221 140.31 218.458 140.109C218.7 139.909 218.989 139.752 219.327 139.638C219.664 139.524 220.04 139.467 220.454 139.467C221.047 139.467 221.553 139.572 221.972 139.781C222.391 139.991 222.713 140.271 222.936 140.622C223.159 140.968 223.271 141.354 223.271 141.777H222.006C222.006 141.572 221.945 141.374 221.822 141.183C221.703 140.987 221.528 140.825 221.295 140.697C221.067 140.57 220.787 140.506 220.454 140.506C220.104 140.506 219.819 140.561 219.6 140.67C219.386 140.775 219.229 140.909 219.128 141.073C219.033 141.237 218.985 141.41 218.985 141.593C218.985 141.729 219.008 141.853 219.053 141.962C219.103 142.067 219.19 142.165 219.313 142.256C219.436 142.342 219.609 142.424 219.832 142.502C220.056 142.579 220.341 142.657 220.687 142.734C221.293 142.871 221.792 143.035 222.184 143.227C222.576 143.418 222.868 143.653 223.059 143.931C223.25 144.209 223.346 144.546 223.346 144.942C223.346 145.266 223.278 145.562 223.141 145.831C223.009 146.1 222.815 146.332 222.56 146.528C222.309 146.72 222.008 146.87 221.658 146.979C221.311 147.084 220.922 147.137 220.489 147.137C219.837 147.137 219.286 147.021 218.834 146.788C218.383 146.556 218.041 146.255 217.809 145.886C217.577 145.517 217.46 145.127 217.46 144.717H218.732C218.75 145.063 218.85 145.339 219.033 145.544C219.215 145.744 219.438 145.888 219.702 145.975C219.967 146.057 220.229 146.098 220.489 146.098C220.835 146.098 221.124 146.052 221.357 145.961C221.594 145.87 221.774 145.744 221.897 145.585C222.02 145.425 222.081 145.243 222.081 145.038ZM232 146.098C232.301 146.098 232.579 146.036 232.834 145.913C233.089 145.79 233.299 145.621 233.463 145.407C233.627 145.188 233.72 144.94 233.743 144.662H234.946C234.923 145.1 234.775 145.507 234.502 145.886C234.233 146.259 233.88 146.562 233.442 146.795C233.005 147.023 232.524 147.137 232 147.137C231.444 147.137 230.958 147.039 230.544 146.843C230.134 146.647 229.792 146.378 229.518 146.036C229.249 145.694 229.047 145.302 228.91 144.86C228.778 144.414 228.712 143.942 228.712 143.445V143.158C228.712 142.661 228.778 142.192 228.91 141.75C229.047 141.303 229.249 140.909 229.518 140.567C229.792 140.226 230.134 139.957 230.544 139.761C230.958 139.565 231.444 139.467 232 139.467C232.579 139.467 233.084 139.585 233.517 139.822C233.95 140.055 234.29 140.374 234.536 140.779C234.787 141.18 234.923 141.636 234.946 142.146H233.743C233.72 141.841 233.634 141.565 233.483 141.319C233.337 141.073 233.137 140.877 232.882 140.731C232.631 140.581 232.337 140.506 232 140.506C231.612 140.506 231.287 140.583 231.022 140.738C230.763 140.889 230.555 141.094 230.4 141.354C230.25 141.609 230.14 141.894 230.072 142.208C230.008 142.518 229.976 142.835 229.976 143.158V143.445C229.976 143.769 230.008 144.088 230.072 144.402C230.136 144.717 230.243 145.002 230.393 145.257C230.548 145.512 230.756 145.717 231.015 145.872C231.28 146.022 231.608 146.098 232 146.098ZM236.313 143.384V143.227C236.313 142.693 236.39 142.199 236.545 141.743C236.7 141.283 236.924 140.884 237.215 140.547C237.507 140.205 237.86 139.941 238.275 139.754C238.69 139.562 239.154 139.467 239.669 139.467C240.189 139.467 240.656 139.562 241.071 139.754C241.49 139.941 241.846 140.205 242.137 140.547C242.433 140.884 242.659 141.283 242.814 141.743C242.969 142.199 243.046 142.693 243.046 143.227V143.384C243.046 143.917 242.969 144.411 242.814 144.867C242.659 145.323 242.433 145.722 242.137 146.063C241.846 146.401 241.492 146.665 241.078 146.856C240.668 147.043 240.203 147.137 239.683 147.137C239.164 147.137 238.696 147.043 238.282 146.856C237.867 146.665 237.512 146.401 237.215 146.063C236.924 145.722 236.7 145.323 236.545 144.867C236.39 144.411 236.313 143.917 236.313 143.384ZM237.578 143.227V143.384C237.578 143.753 237.621 144.102 237.708 144.43C237.794 144.753 237.924 145.04 238.097 145.291C238.275 145.542 238.496 145.74 238.76 145.886C239.025 146.027 239.332 146.098 239.683 146.098C240.029 146.098 240.333 146.027 240.592 145.886C240.857 145.74 241.075 145.542 241.249 145.291C241.422 145.04 241.552 144.753 241.638 144.43C241.729 144.102 241.775 143.753 241.775 143.384V143.227C241.775 142.862 241.729 142.518 241.638 142.194C241.552 141.866 241.419 141.577 241.242 141.326C241.069 141.071 240.85 140.87 240.585 140.725C240.326 140.579 240.02 140.506 239.669 140.506C239.323 140.506 239.018 140.579 238.753 140.725C238.494 140.87 238.275 141.071 238.097 141.326C237.924 141.577 237.794 141.866 237.708 142.194C237.621 142.518 237.578 142.862 237.578 143.227ZM246.17 141.073V147H244.899V139.604H246.102L246.17 141.073ZM245.91 143.021L245.323 143.001C245.327 142.495 245.393 142.028 245.521 141.6C245.648 141.167 245.837 140.791 246.088 140.472C246.339 140.153 246.651 139.907 247.025 139.733C247.398 139.556 247.831 139.467 248.323 139.467C248.67 139.467 248.989 139.517 249.281 139.617C249.572 139.713 249.825 139.866 250.039 140.075C250.253 140.285 250.42 140.554 250.538 140.882C250.657 141.21 250.716 141.606 250.716 142.071V147H249.451V142.133C249.451 141.745 249.385 141.436 249.253 141.203C249.126 140.971 248.943 140.802 248.706 140.697C248.469 140.588 248.191 140.533 247.872 140.533C247.499 140.533 247.186 140.599 246.936 140.731C246.685 140.864 246.485 141.046 246.334 141.278C246.184 141.511 246.074 141.777 246.006 142.078C245.942 142.374 245.91 142.689 245.91 143.021ZM250.702 142.324L249.855 142.584C249.859 142.178 249.925 141.789 250.053 141.415C250.185 141.041 250.374 140.709 250.62 140.417C250.871 140.125 251.179 139.895 251.543 139.727C251.908 139.553 252.325 139.467 252.794 139.467C253.191 139.467 253.542 139.519 253.847 139.624C254.157 139.729 254.417 139.891 254.626 140.109C254.84 140.324 255.002 140.599 255.112 140.937C255.221 141.274 255.276 141.675 255.276 142.14V147H254.004V142.126C254.004 141.711 253.938 141.39 253.806 141.162C253.678 140.93 253.496 140.768 253.259 140.677C253.027 140.581 252.749 140.533 252.425 140.533C252.147 140.533 251.901 140.581 251.687 140.677C251.473 140.772 251.293 140.905 251.147 141.073C251.001 141.237 250.889 141.426 250.812 141.641C250.739 141.855 250.702 142.083 250.702 142.324ZM258.844 139.604V147H257.572V139.604H258.844ZM257.477 137.642C257.477 137.437 257.538 137.263 257.661 137.122C257.789 136.981 257.976 136.91 258.222 136.91C258.463 136.91 258.648 136.981 258.775 137.122C258.908 137.263 258.974 137.437 258.974 137.642C258.974 137.838 258.908 138.006 258.775 138.147C258.648 138.284 258.463 138.353 258.222 138.353C257.976 138.353 257.789 138.284 257.661 138.147C257.538 138.006 257.477 137.838 257.477 137.642ZM262.419 141.183V147H261.154V139.604H262.35L262.419 141.183ZM262.118 143.021L261.591 143.001C261.596 142.495 261.671 142.028 261.817 141.6C261.963 141.167 262.168 140.791 262.432 140.472C262.697 140.153 263.011 139.907 263.376 139.733C263.745 139.556 264.153 139.467 264.599 139.467C264.964 139.467 265.292 139.517 265.584 139.617C265.875 139.713 266.124 139.868 266.329 140.082C266.538 140.296 266.698 140.574 266.807 140.916C266.917 141.253 266.971 141.666 266.971 142.153V147H265.7V142.14C265.7 141.752 265.643 141.442 265.529 141.21C265.415 140.973 265.249 140.802 265.03 140.697C264.811 140.588 264.542 140.533 264.223 140.533C263.909 140.533 263.622 140.599 263.362 140.731C263.107 140.864 262.886 141.046 262.699 141.278C262.517 141.511 262.373 141.777 262.268 142.078C262.168 142.374 262.118 142.689 262.118 143.021ZM273.964 139.604H275.113V146.843C275.113 147.494 274.981 148.05 274.716 148.511C274.452 148.971 274.083 149.32 273.609 149.557C273.139 149.798 272.597 149.919 271.982 149.919C271.727 149.919 271.426 149.878 271.079 149.796C270.738 149.718 270.4 149.584 270.068 149.393C269.74 149.206 269.464 148.953 269.241 148.634L269.904 147.882C270.214 148.256 270.537 148.515 270.874 148.661C271.216 148.807 271.553 148.88 271.886 148.88C272.287 148.88 272.634 148.805 272.925 148.654C273.217 148.504 273.442 148.281 273.602 147.984C273.766 147.693 273.848 147.333 273.848 146.904V141.23L273.964 139.604ZM268.871 143.384V143.24C268.871 142.675 268.938 142.162 269.07 141.702C269.206 141.237 269.4 140.839 269.651 140.506C269.906 140.173 270.214 139.918 270.574 139.74C270.934 139.558 271.339 139.467 271.79 139.467C272.255 139.467 272.661 139.549 273.007 139.713C273.358 139.872 273.654 140.107 273.896 140.417C274.142 140.722 274.336 141.091 274.477 141.524C274.618 141.957 274.716 142.447 274.771 142.994V143.623C274.721 144.165 274.623 144.653 274.477 145.086C274.336 145.519 274.142 145.888 273.896 146.193C273.654 146.499 273.358 146.733 273.007 146.897C272.656 147.057 272.246 147.137 271.777 147.137C271.335 147.137 270.934 147.043 270.574 146.856C270.218 146.67 269.913 146.408 269.658 146.07C269.402 145.733 269.206 145.337 269.07 144.881C268.938 144.421 268.871 143.922 268.871 143.384ZM270.136 143.24V143.384C270.136 143.753 270.173 144.099 270.246 144.423C270.323 144.746 270.439 145.031 270.594 145.277C270.754 145.523 270.956 145.717 271.203 145.858C271.449 145.995 271.743 146.063 272.084 146.063C272.504 146.063 272.85 145.975 273.123 145.797C273.397 145.619 273.613 145.384 273.773 145.093C273.937 144.801 274.065 144.484 274.156 144.143V142.495C274.106 142.244 274.028 142.003 273.923 141.771C273.823 141.534 273.691 141.324 273.527 141.142C273.367 140.955 273.169 140.807 272.932 140.697C272.695 140.588 272.417 140.533 272.098 140.533C271.752 140.533 271.453 140.606 271.203 140.752C270.956 140.893 270.754 141.089 270.594 141.34C270.439 141.586 270.323 141.873 270.246 142.201C270.173 142.525 270.136 142.871 270.136 143.24ZM285.373 145.038C285.373 144.856 285.332 144.687 285.25 144.532C285.172 144.373 285.011 144.229 284.764 144.102C284.523 143.969 284.158 143.855 283.671 143.76C283.261 143.673 282.889 143.571 282.556 143.452C282.228 143.334 281.948 143.19 281.716 143.021C281.488 142.853 281.312 142.655 281.189 142.427C281.066 142.199 281.005 141.932 281.005 141.627C281.005 141.335 281.069 141.06 281.196 140.8C281.328 140.54 281.513 140.31 281.75 140.109C281.991 139.909 282.281 139.752 282.618 139.638C282.955 139.524 283.331 139.467 283.746 139.467C284.338 139.467 284.844 139.572 285.264 139.781C285.683 139.991 286.004 140.271 286.227 140.622C286.451 140.968 286.562 141.354 286.562 141.777H285.298C285.298 141.572 285.236 141.374 285.113 141.183C284.995 140.987 284.819 140.825 284.587 140.697C284.359 140.57 284.079 140.506 283.746 140.506C283.395 140.506 283.11 140.561 282.891 140.67C282.677 140.775 282.52 140.909 282.42 141.073C282.324 141.237 282.276 141.41 282.276 141.593C282.276 141.729 282.299 141.853 282.345 141.962C282.395 142.067 282.481 142.165 282.604 142.256C282.727 142.342 282.901 142.424 283.124 142.502C283.347 142.579 283.632 142.657 283.978 142.734C284.584 142.871 285.084 143.035 285.475 143.227C285.867 143.418 286.159 143.653 286.35 143.931C286.542 144.209 286.638 144.546 286.638 144.942C286.638 145.266 286.569 145.562 286.432 145.831C286.3 146.1 286.107 146.332 285.851 146.528C285.601 146.72 285.3 146.87 284.949 146.979C284.603 147.084 284.213 147.137 283.78 147.137C283.128 147.137 282.577 147.021 282.126 146.788C281.675 146.556 281.333 146.255 281.1 145.886C280.868 145.517 280.752 145.127 280.752 144.717H282.023C282.042 145.063 282.142 145.339 282.324 145.544C282.506 145.744 282.73 145.888 282.994 145.975C283.258 146.057 283.52 146.098 283.78 146.098C284.126 146.098 284.416 146.052 284.648 145.961C284.885 145.87 285.065 145.744 285.188 145.585C285.311 145.425 285.373 145.243 285.373 145.038ZM288.244 143.384V143.227C288.244 142.693 288.321 142.199 288.476 141.743C288.631 141.283 288.854 140.884 289.146 140.547C289.438 140.205 289.791 139.941 290.206 139.754C290.62 139.562 291.085 139.467 291.6 139.467C292.12 139.467 292.587 139.562 293.002 139.754C293.421 139.941 293.776 140.205 294.068 140.547C294.364 140.884 294.59 141.283 294.745 141.743C294.9 142.199 294.977 142.693 294.977 143.227V143.384C294.977 143.917 294.9 144.411 294.745 144.867C294.59 145.323 294.364 145.722 294.068 146.063C293.776 146.401 293.423 146.665 293.008 146.856C292.598 147.043 292.133 147.137 291.614 147.137C291.094 147.137 290.627 147.043 290.212 146.856C289.798 146.665 289.442 146.401 289.146 146.063C288.854 145.722 288.631 145.323 288.476 144.867C288.321 144.411 288.244 143.917 288.244 143.384ZM289.508 143.227V143.384C289.508 143.753 289.552 144.102 289.638 144.43C289.725 144.753 289.855 145.04 290.028 145.291C290.206 145.542 290.427 145.74 290.691 145.886C290.955 146.027 291.263 146.098 291.614 146.098C291.96 146.098 292.263 146.027 292.523 145.886C292.787 145.74 293.006 145.542 293.179 145.291C293.352 145.04 293.482 144.753 293.569 144.43C293.66 144.102 293.706 143.753 293.706 143.384V143.227C293.706 142.862 293.66 142.518 293.569 142.194C293.482 141.866 293.35 141.577 293.172 141.326C292.999 141.071 292.78 140.87 292.516 140.725C292.256 140.579 291.951 140.506 291.6 140.506C291.254 140.506 290.948 140.579 290.684 140.725C290.424 140.87 290.206 141.071 290.028 141.326C289.855 141.577 289.725 141.866 289.638 142.194C289.552 142.518 289.508 142.862 289.508 143.227ZM296.508 143.384V143.227C296.508 142.693 296.586 142.199 296.741 141.743C296.895 141.283 297.119 140.884 297.41 140.547C297.702 140.205 298.055 139.941 298.47 139.754C298.885 139.562 299.35 139.467 299.865 139.467C300.384 139.467 300.851 139.562 301.266 139.754C301.685 139.941 302.041 140.205 302.332 140.547C302.629 140.884 302.854 141.283 303.009 141.743C303.164 142.199 303.241 142.693 303.241 143.227V143.384C303.241 143.917 303.164 144.411 303.009 144.867C302.854 145.323 302.629 145.722 302.332 146.063C302.041 146.401 301.687 146.665 301.273 146.856C300.863 147.043 300.398 147.137 299.878 147.137C299.359 147.137 298.892 147.043 298.477 146.856C298.062 146.665 297.707 146.401 297.41 146.063C297.119 145.722 296.895 145.323 296.741 144.867C296.586 144.411 296.508 143.917 296.508 143.384ZM297.773 143.227V143.384C297.773 143.753 297.816 144.102 297.903 144.43C297.989 144.753 298.119 145.04 298.292 145.291C298.47 145.542 298.691 145.74 298.955 145.886C299.22 146.027 299.527 146.098 299.878 146.098C300.225 146.098 300.528 146.027 300.787 145.886C301.052 145.74 301.27 145.542 301.444 145.291C301.617 145.04 301.747 144.753 301.833 144.43C301.924 144.102 301.97 143.753 301.97 143.384V143.227C301.97 142.862 301.924 142.518 301.833 142.194C301.747 141.866 301.615 141.577 301.437 141.326C301.264 141.071 301.045 140.87 300.781 140.725C300.521 140.579 300.215 140.506 299.865 140.506C299.518 140.506 299.213 140.579 298.949 140.725C298.689 140.87 298.47 141.071 298.292 141.326C298.119 141.577 297.989 141.866 297.903 142.194C297.816 142.518 297.773 142.862 297.773 143.227ZM306.372 141.183V147H305.107V139.604H306.304L306.372 141.183ZM306.071 143.021L305.545 143.001C305.549 142.495 305.625 142.028 305.771 141.6C305.916 141.167 306.121 140.791 306.386 140.472C306.65 140.153 306.965 139.907 307.329 139.733C307.698 139.556 308.106 139.467 308.553 139.467C308.917 139.467 309.245 139.517 309.537 139.617C309.829 139.713 310.077 139.868 310.282 140.082C310.492 140.296 310.651 140.574 310.761 140.916C310.87 141.253 310.925 141.666 310.925 142.153V147H309.653V142.14C309.653 141.752 309.596 141.442 309.482 141.21C309.368 140.973 309.202 140.802 308.983 140.697C308.765 140.588 308.496 140.533 308.177 140.533C307.862 140.533 307.575 140.599 307.315 140.731C307.06 140.864 306.839 141.046 306.652 141.278C306.47 141.511 306.326 141.777 306.222 142.078C306.121 142.374 306.071 142.689 306.071 143.021ZM313.146 146.33C313.146 146.116 313.212 145.936 313.344 145.79C313.481 145.64 313.677 145.564 313.932 145.564C314.188 145.564 314.381 145.64 314.513 145.79C314.65 145.936 314.718 146.116 314.718 146.33C314.718 146.54 314.65 146.717 314.513 146.863C314.381 147.009 314.188 147.082 313.932 147.082C313.677 147.082 313.481 147.009 313.344 146.863C313.212 146.717 313.146 146.54 313.146 146.33Z" fill="#ADBECB"/>
<defs>
<clipPath id="clip0_34783_112391">
<rect width="88" height="88" fill="white" transform="translate(176)"/>
</clipPath>
</defs>
</svg>
